<?xml version="1.0" encoding="utf-8"?>
<!-- Generator: Adobe Illustrator 21.1.0, SVG Export Plug-In . SVG Version: 6.00 Build 0)  -->
<svg version="1.1" id="Capa_1" xmlns="http://www.w3.org/2000/svg" xmlns:xlink="http://www.w3.org/1999/xlink" x="0px" y="0px"
	 viewBox="0 0 808 685" style="enable-background:new 0 0 808 685;" xml:space="preserve">
<style type="text/css">
	.st0{fill:url(#SVGID_1_);}
	.st1{fill:url(#SVGID_2_);}
	.st2{fill:url(#SVGID_3_);}
	.st3{fill:url(#SVGID_4_);}
	.st4{fill:url(#SVGID_5_);}
	.st5{fill:url(#SVGID_6_);}
	.st6{fill:url(#SVGID_7_);}
	.st7{fill:url(#SVGID_8_);}
	.st8{fill:url(#SVGID_9_);}
</style>
<g>
	
		<linearGradient id="SVGID_1_" gradientUnits="userSpaceOnUse" x1="184.15" y1="442.9486" x2="398.55" y2="442.9486" gradientTransform="matrix(1 0 0 -1 0 685)">
		<stop  offset="0" style="stop-color:#FDD479"/>
		<stop  offset="1" style="stop-color:#FFB449"/>
	</linearGradient>
	<path class="st0" d="M398.5,242.1c0-60-48.6-109.7-107.2-109.7s-107.2,49.8-107.2,109.7s48.6,109.7,107.2,109.7
		C349.9,351.7,398.5,302.1,398.5,242.1z M226.9,242.1c0-36.6,28.6-65.8,64.4-65.8s64.4,29.2,64.4,65.8s-28.6,65.8-64.4,65.8
		S226.9,278.6,226.9,242.1z"/>
	
		<linearGradient id="SVGID_2_" gradientUnits="userSpaceOnUse" x1="327.05" y1="243.3477" x2="440.05" y2="243.3477" gradientTransform="matrix(1 0 0 -1 0 685)">
		<stop  offset="0" style="stop-color:#FDD479"/>
		<stop  offset="1" style="stop-color:#FFB449"/>
	</linearGradient>
	<path class="st1" d="M398.5,530.2l41.5-5.9l-22.9-144.8l-77.3-26.3l-12.8,41l52.9,17.6L398.5,530.2z"/>
	
		<linearGradient id="SVGID_3_" gradientUnits="userSpaceOnUse" x1="141.05" y1="243.8962" x2="254.05" y2="243.8962" gradientTransform="matrix(1 0 0 -1 0 685)">
		<stop  offset="0" style="stop-color:#FDD479"/>
		<stop  offset="1" style="stop-color:#FFB449"/>
	</linearGradient>
	<path class="st2" d="M141.1,523l42.9,7.4l17.2-120.1l52.9-17.6l-12.9-40.9l-77.3,26.3L141.1,523z"/>
	
		<linearGradient id="SVGID_4_" gradientUnits="userSpaceOnUse" x1="484.35" y1="478.1518" x2="570.15" y2="478.1518" gradientTransform="matrix(1 0 0 -1 0 685)">
		<stop  offset="0" style="stop-color:#FDD479"/>
		<stop  offset="1" style="stop-color:#FFB449"/>
	</linearGradient>
	<path class="st3" d="M484.4,182h85.8v49.7h-85.8L484.4,182L484.4,182z"/>
	
		<linearGradient id="SVGID_5_" gradientUnits="userSpaceOnUse" x1="484.35" y1="378.825" x2="655.95" y2="378.825" gradientTransform="matrix(1 0 0 -1 0 685)">
		<stop  offset="0" style="stop-color:#FDD479"/>
		<stop  offset="1" style="stop-color:#FFB449"/>
	</linearGradient>
	<path class="st4" d="M484.4,281.3H656V331H484.4V281.3L484.4,281.3z"/>
	
		<linearGradient id="SVGID_6_" gradientUnits="userSpaceOnUse" x1="484.35" y1="279.598" x2="655.95" y2="279.598" gradientTransform="matrix(1 0 0 -1 0 685)">
		<stop  offset="0" style="stop-color:#FDD479"/>
		<stop  offset="1" style="stop-color:#FFB449"/>
	</linearGradient>
	<path class="st5" d="M484.4,380.6H656v49.7H484.4V380.6z"/>
	
		<linearGradient id="SVGID_7_" gradientUnits="userSpaceOnUse" x1="484.35" y1="180.371" x2="655.95" y2="180.371" gradientTransform="matrix(1 0 0 -1 0 685)">
		<stop  offset="0" style="stop-color:#FDD479"/>
		<stop  offset="1" style="stop-color:#FFB449"/>
	</linearGradient>
	<path class="st6" d="M484.4,479.8H656v49.7H484.4V479.8z"/>
	
		<linearGradient id="SVGID_8_" gradientUnits="userSpaceOnUse" x1="54.95" y1="342.475" x2="741.35" y2="342.475" gradientTransform="matrix(1 0 0 -1 0 685)">
		<stop  offset="0" style="stop-color:#FDD479"/>
		<stop  offset="1" style="stop-color:#FFB449"/>
	</linearGradient>
	<path class="st7" d="M651.7,0.2h-507C95.1,0.2,55,37,55,82.4v520.3c0,45.4,40.1,82.2,89.7,82.2H291v-41.2H175.3
		c-43.6,0-78.9-32.3-78.9-72.2V113.8c0-39.9,35.3-72.2,78.9-72.2h445.9c43.6,0,78.9,32.3,78.9,72.2v457.5
		c0,39.9-35.3,72.2-78.9,72.2H505.4v41.2h146.3c49.5,0,89.7-36.8,89.7-82.2V82.4C741.3,37,701.3,0.2,651.7,0.2z"/>
	
		<linearGradient id="SVGID_9_" gradientUnits="userSpaceOnUse" x1="336.15" y1="23.1036" x2="460.15" y2="23.1036" gradientTransform="matrix(1 0 0 -1 0 685)">
		<stop  offset="0" style="stop-color:#FDD479"/>
		<stop  offset="1" style="stop-color:#FFB449"/>
	</linearGradient>
	<path class="st8" d="M437.1,639h-78c-12.7,0-23,10.3-23,22.9s10.3,22.9,23,22.9h78c12.7,0,23-10.3,23-22.9
		C460.1,649.1,449.9,639,437.1,639z"/>
</g>
</svg>
