<?xml version="1.0" encoding="utf-8"?>
<!-- Generator: Adobe Illustrator 21.1.0, SVG Export Plug-In . SVG Version: 6.00 Build 0)  -->
<svg version="1.1" id="Capa_1" xmlns="http://www.w3.org/2000/svg" xmlns:xlink="http://www.w3.org/1999/xlink" x="0px" y="0px"
	 viewBox="0 0 808 704" style="enable-background:new 0 0 808 704;" xml:space="preserve">
<style type="text/css">
	.st0{fill:url(#SVGID_1_);}
	.st1{fill:url(#SVGID_2_);}
	.st2{fill:url(#SVGID_3_);}
	.st3{fill:url(#SVGID_4_);}
</style>
<g>
	<g>
		
			<linearGradient id="SVGID_1_" gradientUnits="userSpaceOnUse" x1="0.9489" y1="233.5" x2="807.4858" y2="233.5" gradientTransform="matrix(1 0 0 -1 0 704)">
			<stop  offset="0" style="stop-color:#FDD479"/>
			<stop  offset="1" style="stop-color:#FFB449"/>
		</linearGradient>
		<path class="st0" d="M794.1,343.6c-26.4-63-85.7-103.7-151.3-103.7c-20.4,0-40.1,4-59,11.9c-34.7,14.6-63,41.8-79.5,76.2
			c-16.6-5.7-33.9-8.6-51-8.6c-17.2,0-34,2.9-50.2,8.5c-8.5-4-17.4-7.1-26.9-9.3c-39.4-9.2-79.1-0.1-110.6,22.1l0,0
			c-18.6-33.9-50-59.7-89.4-68.9C100.4,254,23.8,304.4,5.1,384.3c-10.3,43.9-0.9,87.6,22.3,120.9l0,0c0,0,131.1,166.2,131.4,166.7
			c6.3,7.9,15.2,13.9,25.8,16.3c10.7,2.5,21.3,1.1,30.4-3.2l148.8-70.8c14.1,11.1,29.8,20,46.8,26.1c0.5,0.2,1.1,0.4,1.6,0.6
			c92.8,26.4,203.6,57.8,204,57.9c5.6,1.6,11.4,2.3,17.2,2.3c8.5,0,16.8-1.7,24.7-5c13.5-5.6,24.3-15.4,31.3-28.2l101.9-186.2
			c0.2-0.3,0.3-0.6,0.5-1C811.9,438.2,812.7,388.1,794.1,343.6z M760.5,465.4L658.9,651.1c-3.2,5.8-8.1,10.2-14.3,12.8
			c-6,2.5-12.8,2.9-19,1.2c-2.3-0.6-190.2-54-203.2-57.7c-7.8-2.8-15.2-6.3-22.2-10.4l6.2-2.9c35.5-19.7,63.2-54.7,73.5-98.6
			c12.4-53.1-3.9-105.8-38.5-140.4c3.9-0.4,7.9-0.6,11.9-0.6c18,0,36.3,4.2,53,12.2c4.5,2.1,9.7,2.3,14.3,0.3
			c4.6-1.9,8.1-5.7,9.8-10.4c11.6-33.4,35.3-59.2,67-72.4c14.5-6.1,29.7-9.2,45.4-9.2c51.5,0,98.2,32.3,119.1,82.2
			C776.6,392.4,776.1,431.8,760.5,465.4z"/>
		
			<linearGradient id="SVGID_2_" gradientUnits="userSpaceOnUse" x1="373.7559" y1="483.7505" x2="527.0524" y2="483.7505" gradientTransform="matrix(1 0 0 -1 0 704)">
			<stop  offset="0" style="stop-color:#FDD479"/>
			<stop  offset="1" style="stop-color:#FFB449"/>
		</linearGradient>
		<path class="st1" d="M440.4,178.6L440.4,178.6c-10.6-6.3-23.5-8.2-35.7-4.3c-23.8,7.5-36.5,33.9-28.6,58.9
			c4.3,13.7,14.1,24.2,25.9,29.6l0,0c0,0,63.1,24.2,63.3,24.3c3,1.1,6.4,1.3,9.8,0.3c3.3-1.1,6-3.2,7.8-5.9l37.7-56.3
			c6.5-11.2,8.5-25.3,4.1-39.1c-7.9-25-33.5-39.2-57.3-31.6C454.9,158.4,445.5,167.4,440.4,178.6z"/>
		
			<linearGradient id="SVGID_3_" gradientUnits="userSpaceOnUse" x1="206.3423" y1="542.05" x2="362.6483" y2="542.05" gradientTransform="matrix(1 0 0 -1 0 704)">
			<stop  offset="0" style="stop-color:#FDD479"/>
			<stop  offset="1" style="stop-color:#FFB449"/>
		</linearGradient>
		<path class="st2" d="M221.4,186c0,0,37.3,36.1,37.9,36.6c0.1,0.1,0.1,0.1,0.2,0.2c4.7,4.5,10.9,7.3,17.3,7.9
			c0.9,0.1,1.9,0.1,2.8,0.1l0,0c5.6,0,11.1-1.6,15.9-4.7l44.2-28.9c0.3-0.2,0.6-0.4,0.9-0.6c12.4-9.2,20.3-23.5,21.8-39.2
			c2.8-29.9-18.4-56.5-47.2-59.2c-9-0.8-18.1,0.7-26.2,4.4c-7.3-5.2-15.9-8.4-24.8-9.3c-1.6-0.2-3.2-0.2-4.9-0.2
			c-27.4,0-50,21.3-52.7,49.5c-1.5,15.6,3.6,31.1,14,42.5C220.8,185.4,221.1,185.7,221.4,186z M241.5,146c1-10.5,9.6-18.7,19.5-17.7
			c4.7,0.4,9,2.9,12,7c3,4,7.5,6.6,12.4,7c4.9,0.5,9.9-1.2,13.5-4.6c3.7-3.4,8.4-5,13.1-4.6c9.7,0.9,16.8,10.4,15.8,21.1
			c-0.5,5.7-3.3,10.8-7.5,14.1l-39.7,26c-4.2-4.1-13.5-13.1-34.1-33C242.7,157.2,240.9,151.6,241.5,146z"/>
		
			<linearGradient id="SVGID_4_" gradientUnits="userSpaceOnUse" x1="333.916" y1="647.9474" x2="459.5833" y2="647.9474" gradientTransform="matrix(1 0 0 -1 0 704)">
			<stop  offset="0" style="stop-color:#FDD479"/>
			<stop  offset="1" style="stop-color:#FFB449"/>
		</linearGradient>
		<path class="st3" d="M344,67.9c0,0,39.2,37.9,39.3,38c1.9,1.8,4.4,3,7.2,3.3c2.8,0.3,5.5-0.5,7.7-1.9L444,77.4
			c8.4-6.3,14.3-16.2,15.4-27.7c2-21.1-12.6-39.7-32.6-41.6c-10.4-1-20.2,2.7-27.6,9.5C393.3,9.5,384.3,4,373.9,3
			c-20-1.9-37.8,13.6-39.8,34.7C333,49.3,336.9,60.1,344,67.9L344,67.9z"/>
	</g>
</g>
</svg>
