<?xml version="1.0" encoding="utf-8"?>
<!-- Generator: Adobe Illustrator 21.1.0, SVG Export Plug-In . SVG Version: 6.00 Build 0)  -->
<svg version="1.1" id="Capa_1" xmlns="http://www.w3.org/2000/svg" xmlns:xlink="http://www.w3.org/1999/xlink" x="0px" y="0px"
	 viewBox="0 0 808 713" style="enable-background:new 0 0 808 713;" xml:space="preserve">
<style type="text/css">
	.st0{fill:url(#SVGID_1_);}
	.st1{fill:url(#SVGID_2_);}
	.st2{fill:url(#SVGID_3_);}
</style>
<g>
	
		<linearGradient id="SVGID_1_" gradientUnits="userSpaceOnUse" x1="38.5" y1="176.5535" x2="662.0063" y2="176.5535" gradientTransform="matrix(1 0 0 -1 0 713)">
		<stop  offset="0" style="stop-color:#FDD479"/>
		<stop  offset="1" style="stop-color:#FFB449"/>
	</linearGradient>
	<path class="st0" d="M38.5,546c1.1-6,2.2-12,3.4-17.9c10.8-52.8,39.6-92.9,85.8-120.6c20.1-12,41.9-18.9,64.9-22.7
		c5.7-0.9,10.5,0.3,15.1,3.6c18.8,13.3,39.1,23.9,60.7,31.5c27.2,9.6,55.4,14.5,84.3,14.2c32.3-0.3,63.7-6.4,93.2-19.6
		c16.7-7.4,32-17.9,48.1-26.4c3.9-2.1,9-3.6,13.3-3c32.2,4.3,61.4,16.2,86.7,36.6c43.6,35.1,66.2,80.9,68,136.8c0.1,2-1,4.8-2.5,6.1
		c-18.5,15.7-37.2,31.1-57.1,47.7c-7.7-8.1-15.3-16.2-23.2-24.2c-6.6-6.7-13.3-13.6-20.4-19.8c-15.2-13.2-37.7-13.1-52.5,0.5
		c-9,8.3-18.4,16.5-25.3,26.4c-12.4,17.8-8.3,38.5,8.8,54.9c9.1,8.7,17.8,17.8,27.7,27.6c-5.7,0.8-10.5,1.6-15.2,2.1
		c-67.2,8.2-134.7,10-202.3,7.6c-64.8-2.3-129.3-8-192.4-24.2c-15.3-3.9-30.1-9.5-45.1-14.2c-11.7-3.6-19.9-10.8-24-22.4
		C38.5,599.7,38.5,572.9,38.5,546z"/>
	
		<linearGradient id="SVGID_2_" gradientUnits="userSpaceOnUse" x1="502.2445" y1="91.8794" x2="780.6" y2="91.8794" gradientTransform="matrix(1 0 0 -1 0 713)">
		<stop  offset="0" style="stop-color:#FDD479"/>
		<stop  offset="1" style="stop-color:#FFB449"/>
	</linearGradient>
	<path class="st1" d="M780.6,563.8c-7.3,7.1-14.3,14.5-22.1,21.1c-35.9,30.2-72.1,60.2-108.1,90.3c-13.5,11.2-26.9,22.5-40.5,33.7
		c-8.3,6.8-14.7,6.7-22.4-1c-26.4-26.3-52.8-52.7-79.1-79.1c-8.5-8.5-8.1-15.4,0.6-23.8c3.8-3.7,7.6-7.5,11.3-11.3
		c8.6-9,15.6-9.3,24.3-0.7c17.8,17.7,35.5,35.3,53,53.2c2.9,3,4.4,3,7.5,0.3c22.3-18.8,44.9-37.4,67.3-56.1
		c21.4-17.8,42.7-35.7,64-53.5c1.5-1.3,3-2.6,4.5-3.8c9-6.9,15.2-6.3,22.4,2.4c5.8,7,11.4,14.1,17.1,21.1
		C780.6,559,780.6,561.4,780.6,563.8z"/>
	
		<linearGradient id="SVGID_3_" gradientUnits="userSpaceOnUse" x1="166.0997" y1="527.3021" x2="534.9001" y2="527.3021" gradientTransform="matrix(1 0 0 -1 0 713)">
		<stop  offset="0" style="stop-color:#FDD479"/>
		<stop  offset="1" style="stop-color:#FFB449"/>
	</linearGradient>
	<path class="st2" d="M534.9,185.7c-0.5,102.6-81.9,184.6-184.7,184.5c-102.9-0.2-184-82.5-184.1-184.4
		C165.9,83.7,249.4,0.5,350.6,1.2C453,1.9,535,84,534.9,185.7z M265.2,258.9c1.7,3.9,2.4,7.6,4.5,10.1c6,6.9,11.9,14.5,19.3,19.7
		c24,16.8,51.2,20.5,79.7,17.2c21.9-2.5,41.7-10.2,57.7-26c5.9-5.8,10.6-12.4,12.6-21C381,258.9,323.6,258.9,265.2,258.9z"/>
</g>
</svg>
