<?xml version="1.0" encoding="utf-8"?>
<!-- Generator: Adobe Illustrator 21.1.0, SVG Export Plug-In . SVG Version: 6.00 Build 0)  -->
<svg version="1.1" id="Layer_1" xmlns="http://www.w3.org/2000/svg" xmlns:xlink="http://www.w3.org/1999/xlink" x="0px" y="0px"
	 viewBox="0 0 315 428" style="enable-background:new 0 0 315 428;" xml:space="preserve">
<style type="text/css">
	.st0{clip-path:url(#SVGID_2_);}
	.st1{fill-opacity:0;}
	.st2{fill:#606060;}
</style>
<g>
	<defs>
		<rect id="SVGID_1_" x="-631" y="-347" width="960" height="720"/>
	</defs>
	<clipPath id="SVGID_2_">
		<use xlink:href="#SVGID_1_"  style="overflow:visible;"/>
	</clipPath>
	<g class="st0">
		<path class="st1" d="M299-67h960v720H299V-67z"/>
		<path class="st2" d="M130,23.3c0.4-0.2,1.4-1.2,1.8-1.6c0.4-0.3,0.5-0.3,0.5-0.4c0-0.1-0.2-0.2-0.4-0.4c-0.2-0.2-0.6-0.5-1-0.8
			c-0.4-0.4-1.1-0.9-1.7-1.3s-1.3-0.9-1.9-1.3c-0.6-0.4-1.2-0.8-1.9-1.2c-0.7-0.4-1.5-0.7-2.1-1c-0.6-0.3-1.1-0.5-1.6-0.7
			c-0.6-0.2-1.2-0.4-1.7-0.6c-0.5-0.2-1.1-0.3-1.5-0.5c-0.5-0.1-0.9-0.2-1.3-0.3s-0.5-0.1-0.9-0.2c-0.4-0.1-1.2-0.2-1.7-0.2
			c-0.5-0.1-0.8-0.1-1.4-0.2c-0.5,0-1.4-0.1-1.9-0.1c-0.5,0-0.8,0-1.3,0c-0.5,0-1.2,0-1.8,0c-0.6,0-1,0.1-1.7,0.2s-1.5,0.3-2.3,0.4
			c-0.8,0.2-1.8,0.3-2.5,0.5c-0.8,0.2-1.4,0.4-2,0.6c-0.7,0.2-1.4,0.5-1.9,0.7s-0.9,0.3-1.4,0.5c-0.5,0.2-1,0.4-1.3,0.6
			c-0.3,0.2-0.7,0.5-0.7,0.4c-0.1-0.1,0.2-0.5,0.4-0.8c0.1-0.3,0.3-0.9,0.4-1.3c0.1-0.4,0.1-0.7,0-1.2c0-0.4-0.1-0.9-0.2-1.5
			c-0.1-0.6-0.3-1.2-0.6-1.8c-0.2-0.6-0.5-1.1-0.8-1.6c-0.3-0.5-0.7-1.1-1.1-1.5c-0.4-0.4-0.7-0.7-1.1-1c-0.4-0.3-0.8-0.6-1.2-0.8
			s-0.9-0.3-1.3-0.5c-0.5-0.1-1-0.2-1.4-0.2c-0.5,0-0.9,0-1.3,0c-0.4,0-0.9,0.1-1.2,0.1c-0.3,0.1-0.4,0.2-0.6,0.4
			c-0.2,0.2-0.5,0.4-0.6,0.6c-0.2,0.2-0.3,0.4-0.3,0.7c-0.1,0.2-0.1,0.6,0,0.8c0,0.2,0.1,0.3,0.3,0.3s0.5,0,0.8,0c0.3,0,0.6,0,0.9,0
			c0.3,0,0.7,0.1,0.9,0.1c0.3,0,0.4,0.1,0.7,0.2s0.7,0.2,0.6,0.2c0,0-0.5,0-0.8-0.1c-0.3,0-0.8,0-1.2,0s-1,0-1.4,0
			c-0.5,0-1,0-1.5,0.1c-0.4,0.1-0.9,0.2-1.2,0.2c-0.3,0.1-0.6,0.1-0.9,0.3c-0.3,0.1-0.6,0.3-0.9,0.5C79.2,8.7,79,9,78.8,9.2
			s-0.3,0.5-0.4,0.7c-0.1,0.3-0.1,0.6-0.2,0.9c0,0.3,0,0.7,0.1,1.1s0.1,0.7,0.3,1c0.2,0.3,0.4,0.7,0.6,0.9c0.2,0.2,0.5,0.3,0.8,0.4
			c0.3,0.1,0.7,0,1,0c0.3-0.1,0.6-0.2,1-0.4c0.4-0.2,0.8-0.4,1.1-0.6c0.3-0.2,0.6-0.4,1-0.6c0.3-0.2,0.8-0.5,1.1-0.7
			c0.3-0.2,0.4-0.2,0.6-0.3c0.2-0.1,0.3-0.2,0.5-0.2c0.2-0.1,0.3-0.1,0.5-0.1c0.1,0,0.3-0.1,0.2,0s-0.5,0.4-0.7,0.6
			c-0.3,0.2-0.7,0.4-0.9,0.7c-0.3,0.2-0.6,0.5-0.7,0.7c-0.1,0.2,0,0.4,0.1,0.6c0.1,0.2,0.3,0.6,0.5,0.9c0.2,0.2,0.3,0.5,0.5,0.6
			c0.2,0.1,0.3,0.2,0.5,0.2c0.2,0,0.5,0.1,0.8,0.1s0.7-0.2,1.1-0.3c0.3-0.1,0.7-0.4,1-0.5c0.3-0.2,0.6-0.3,0.9-0.4
			c0.3-0.1,0.5-0.3,0.7-0.4s0.3-0.2,0.4-0.2c0.2,0,0.4-0.1,0.6-0.1c0.2,0,0.4,0.1,0.6,0.2c0.2,0.2,0.4,0.5,0.5,0.8
			c0.1,0.3,0.1,0.7,0.1,1c0,0.3-0.1,0.4-0.2,0.5c0,0.2-0.2,0.4-0.1,0.4c0.1,0,0.4-0.4,0.5-0.5c0.1-0.2,0.2-0.3,0.2-0.5
			c0.1-0.2,0.1-0.4,0.2-0.7c0.1-0.3,0.2-0.5,0.2-0.9c0-0.3,0-0.7-0.1-1c-0.1-0.4-0.3-0.7-0.5-1.1c-0.2-0.3-0.4-0.6-0.6-0.8
			c-0.2-0.2-0.5-0.4-0.8-0.6s-0.7-0.4-1-0.5c-0.3-0.1-0.6-0.2-1-0.3c-0.4-0.1-0.9-0.2-1.3-0.2c-0.4,0-0.8,0-1.1,0
			c-0.4,0-0.7,0-1.1,0s-0.7,0-1.1,0.1c-0.4,0.1-0.9,0.2-1.3,0.2s-0.7,0.1-1,0.2c-0.3,0.1-0.6,0.2-0.9,0.3c-0.3,0.1-0.4,0.2-0.6,0.2
			c-0.2,0.1-0.5,0.3-0.5,0.2c-0.1,0,0-0.2,0.2-0.3s0.5-0.3,0.9-0.4c0.4-0.2,0.8-0.3,1.2-0.5c0.4-0.1,0.7-0.3,1.1-0.4
			c0.3-0.1,0.6-0.2,0.9-0.2C85.5,9.1,85.8,9,86.1,9c0.3-0.1,0.6-0.1,0.9-0.1c0.4,0,0.8-0.1,1.2,0c0.4,0,0.8,0,1.2,0.1
			c0.3,0,0.6,0.1,0.9,0.2c0.3,0.1,0.4,0.2,0.7,0.3c0.3,0.1,0.7,0.3,1,0.5c0.3,0.2,0.6,0.5,0.8,0.7s0.4,0.4,0.6,0.7
			c0.2,0.3,0.5,0.6,0.6,0.9c0.1,0.3,0.2,0.5,0.2,0.8c0.1,0.3,0.1,0.6,0.1,0.8s0,0.5,0,0.7c0,0.3-0.1,0.6-0.2,0.9
			c-0.1,0.3-0.3,0.7-0.4,1c-0.1,0.3-0.1,0.5-0.5,0.7s-1.3,0.4-1.9,0.7s-0.3,0-1.6,0.7c-1.3,0.7-4.1,2.3-6.1,3.5
			c-2,1.2-4.3,2.6-5.9,3.7s-2.9,1.9-4.1,2.6c-1.2,0.7-2,1.2-2.8,1.7c-0.8,0.5-1.5,0.9-2.2,1.3s-1.5,0.8-2.3,1.2
			c-0.8,0.4-1.8,0.9-2.6,1.2c-0.8,0.3-1.6,0.5-2.2,0.7c-0.6,0.2-1.2,0.3-1.5,0.4c-0.4,0.1-0.7,0-0.8,0.2c-0.1,0.2,0.1,0.6,0.1,0.9
			c0.1,0.3,0.1,0.8,0.2,1.1c0.1,0.3,0.1,0.7,0.2,0.9c0.1,0.2-0.1,0.4,0.2,0.5c0.3,0,0.8-0.1,1.5-0.3c0.7-0.2,2-0.6,2.8-0.9
			c0.8-0.3,1.3-0.5,2-0.8c0.7-0.3,1.7-0.7,2.5-1.1s1.1-0.6,2.4-1.3c1.3-0.7,3.2-1.7,5.4-3s5.5-3.4,7.5-4.7c2-1.3,3.4-2.1,4.7-2.8
			c1.4-0.8,2.3-1.3,3.4-1.8c1.1-0.6,2.2-1.2,3.3-1.6c1-0.5,2.1-0.9,3-1.2s1.6-0.6,2.6-0.9c1-0.3,2.3-0.7,3.2-0.9
			c0.9-0.2,1.4-0.4,2.1-0.5c0.7-0.1,1.5-0.2,2.3-0.3c0.8-0.1,1.7-0.1,2.6-0.1c1,0,2.2,0.1,3.3,0.2c1.1,0.1,2.2,0.4,3.1,0.6
			c0.9,0.2,1.3,0.4,2.1,0.7c0.8,0.3,1.7,0.6,2.5,1s1.7,0.8,2.4,1.2s1.1,0.6,1.7,1c0.6,0.4,1.5,0.9,2,1.3c0.5,0.3,0.8,0.6,1.1,0.8
			S129.6,23.5,130,23.3z"/>
		<path class="st2" d="M81.1,21.1c-0.1,0.3-0.7,0.3-1.2,0.6c-0.5,0.3-1.4,1-1.8,1.1c-0.4,0.1-0.2,0-0.5-0.3
			c-0.3-0.3-0.8-0.9-1.4-1.6s-1.6-1.5-2.3-2.2c-0.7-0.7-1.5-1.3-2.1-1.8c-0.7-0.5-1.3-0.9-1.9-1.3c-0.6-0.4-1.3-0.8-1.7-1.1
			s-0.5-0.3-1-0.6c-0.5-0.2-1.2-0.6-1.8-0.9c-0.6-0.3-1.2-0.5-1.8-0.8c-0.6-0.2-1.1-0.4-1.7-0.6c-0.6-0.2-1.2-0.4-1.9-0.5
			c-0.7-0.2-1.6-0.4-2.2-0.5c-0.7-0.1-1.2-0.2-1.8-0.3c-0.6-0.1-1.3-0.1-1.9-0.2c-0.6,0-1.3,0-1.9,0c-0.6,0-1.3,0-1.9,0.1
			c-0.6,0-1.3,0.1-1.9,0.2s-1.2,0.2-1.9,0.4c-0.7,0.2-1.3,0.4-2,0.6c-0.7,0.2-1.4,0.4-2,0.7c-0.7,0.3-1.3,0.5-1.9,0.8
			s-1.3,0.7-1.9,1.1s-1.2,0.8-1.8,1.3c-0.6,0.5-1.4,1.1-2,1.6c-0.6,0.5-0.9,0.9-1.3,1.4c-0.4,0.5-0.8,1.1-1.1,1.4
			C32.1,20,32,20,31.6,20.1c-0.3,0.1-0.9,0.2-1.3,0.3c-0.4,0.1-0.8,0.2-1.2,0.3s-0.9,0.2-1.2,0.3s-0.7,0.3-0.7,0.2s0.3-0.5,0.8-1
			c0.4-0.6,1.4-1.8,1.9-2.4c0.5-0.6,0.6-0.8,1.1-1.3c0.5-0.5,1.2-1.2,1.8-1.7c0.6-0.5,1-0.9,1.6-1.4c0.6-0.5,1.4-1,2-1.5
			c0.6-0.4,1.2-0.7,1.9-1.1s1.7-0.9,2.4-1.2c0.7-0.3,1.1-0.5,1.8-0.7S44,8.2,44.7,8c0.7-0.2,1.5-0.4,2.2-0.5
			c0.7-0.1,1.5-0.3,2.2-0.4c0.8-0.1,1.7-0.2,2.4-0.2c0.7,0,1-0.1,1.7,0C54,6.8,55.1,6.9,56,7c0.8,0.1,1.5,0.2,2.2,0.3
			s1.5,0.2,2.3,0.4c0.8,0.2,1.4,0.4,2.4,0.7c0.9,0.3,2.4,0.8,3.2,1.2c0.8,0.3,1.2,0.5,1.8,0.8c0.6,0.3,1.2,0.6,1.9,1
			c0.7,0.4,1.5,0.9,2.3,1.4c0.8,0.5,1.6,1.2,2.2,1.7s1,0.7,1.5,1.2c0.6,0.5,1.3,1.1,1.8,1.6s1,1,1.5,1.4c0.4,0.4,0.8,0.8,1.2,1.2
			S81.2,20.8,81.1,21.1z"/>
		<path class="st2" d="M45.8,22.1c-0.1,0.1,0.2,0.7,0.3,1.1s0.3,1.1,0.4,1.4c0.1,0.3,0,0.4,0.1,0.5c0.1,0.2,0.4,0.2,0.7,0.4
			c0.3,0.1,0.7,0.2,1.1,0.4c0.4,0.2,1,0.5,1.4,0.8c0.4,0.3,0.8,0.6,1.2,0.9c0.4,0.3,0.7,0.7,1,1.2c0.3,0.4,0.6,0.8,0.9,1.3
			c0.3,0.5,0.5,1,0.7,1.5c0.2,0.5,0.3,0.8,0.4,1.4c0.1,0.6,0.3,1.4,0.4,2c0.1,0.6,0.1,1.1,0.2,1.8c0,0.6,0.1,1.4,0,2
			c0,0.6-0.1,1.2-0.1,1.8c0,0.6-0.1,1.2-0.1,1.8c0,0.6-0.1,1.2-0.2,1.5c0,0.4-0.3,0.5-0.1,0.7c0.2,0.2,0.7,0.2,1.2,0.2
			c0.4,0,1.1,0,1.4,0c0.3,0,0.4,0,0.5-0.1c0.1-0.1,0,0,0.1-0.6c0.1-0.6,0.3-2.1,0.3-3c0.1-0.9,0.2-1.4,0.2-2.2c0-0.8,0-1.8,0-2.6
			c0-0.9-0.1-1.7-0.2-2.5c-0.1-0.8-0.3-1.4-0.4-2.1c-0.2-0.6-0.3-1.1-0.5-1.7c-0.3-0.6-0.6-1.3-1-1.9c-0.4-0.6-0.9-1.2-1.3-1.7
			c-0.4-0.5-0.9-0.8-1.3-1.2c-0.5-0.4-0.9-0.7-1.5-1c-0.5-0.3-1.3-0.6-1.8-0.9c-0.5-0.2-0.9-0.4-1.4-0.5c-0.5-0.2-1.2-0.3-1.6-0.5
			C46.3,22.2,45.9,21.9,45.8,22.1z"/>
		<path class="st2" d="M39.5,15.2c-0.3,0-0.6,0.5-0.8,0.8c-0.3,0.2-0.5,0.4-0.7,0.6c-0.2,0.2-0.5,0.4-0.6,0.6
			c-0.1,0.2-0.2,0.3-0.2,0.5c0.1,0.1,0.2,0.1,0.5,0.4c0.3,0.3,0.7,0.9,1.1,1.4c0.3,0.4,0.6,0.9,0.8,1.3s0.4,0.8,0.7,1.2
			c0.2,0.5,0.5,0.9,0.7,1.5s0.4,1.3,0.6,1.9c0.2,0.6,0.3,1.2,0.5,1.9s0.2,1.7,0.3,2.4c0.1,0.7,0.1,1.3,0.2,1.9
			c0.1,0.6,0.1,0.9,0.2,1.4c0.1,0.5,0.1,1.3,0.2,1.8c0,0.6,0,1.3,0.1,1.6c0.1,0.3,0.4,0.2,0.7,0.2c0.3,0,0.7-0.1,1-0.2
			c0.3-0.1,0.8-0.2,1.1-0.2c0.3,0,0.5,0,0.7,0c0.2,0,0.3,0,0.3,0c0-0.1,0,0,0-0.4c0-0.4-0.1-1.3-0.2-2.1s-0.2-2.2-0.3-3.1
			c-0.1-0.9-0.2-1.5-0.3-2.2c-0.1-0.7-0.3-1.6-0.4-2.3c-0.2-0.7-0.3-1.3-0.5-2c-0.2-0.7-0.5-1.3-0.7-1.9c-0.3-0.6-0.5-1.2-0.8-1.8
			c-0.3-0.6-0.7-1.2-1-1.7c-0.3-0.5-0.6-0.8-0.9-1.2c-0.3-0.4-0.6-0.8-0.9-1.2C40.2,15.8,39.9,15.2,39.5,15.2z"/>
		<path class="st2" d="M39.9,25.3c0-0.2-0.4-0.9-0.5-1.3s-0.2-0.7-0.3-1c-0.1-0.3-0.2-0.6-0.3-0.8c0-0.2,0.1-0.2,0-0.3
			c-0.1,0,0,0-0.3,0c-0.3,0-1.1,0-1.7,0c-0.6,0-1.4,0.1-2.1,0.2c-0.8,0.1-1.6,0.2-2.4,0.4c-0.8,0.2-1.7,0.3-2.6,0.6
			c-0.9,0.3-2.1,0.7-3,1.1c-0.9,0.4-1.6,0.7-2.3,1c-0.7,0.4-1.3,0.7-2,1.1c-0.6,0.4-1.3,0.8-1.9,1.2c-0.6,0.4-1.2,1-1.7,1.4
			c-0.5,0.4-0.8,0.8-1.1,1.1c-0.3,0.3-0.5,0.4-0.6,0.5c0,0.2,0.1,0.3,0.4,0.5c0.2,0.2,0.7,0.6,1.1,0.8c0.3,0.3,0.8,0.7,1,0.9
			c0.2,0.2,0.3,0.3,0.4,0.3c0.2,0,0.2,0.1,0.5-0.2c0.3-0.3,1-1,1.5-1.4c0.5-0.4,0.9-0.8,1.4-1.2c0.5-0.4,1-0.7,1.5-1.1
			c0.5-0.3,1.1-0.7,1.6-0.9c0.5-0.3,1-0.5,1.6-0.7c0.5-0.2,1-0.5,1.5-0.7c0.5-0.2,1.2-0.4,1.7-0.6c0.6-0.2,1.1-0.3,1.6-0.4
			c0.5-0.1,1.2-0.3,1.6-0.3c0.5-0.1,0.7-0.1,1.1-0.2c0.4-0.1,0.9-0.1,1.3-0.1c0.5,0,1,0,1.4,0s0.8,0,1,0S39.9,25.5,39.9,25.3z"/>
		<path class="st2" d="M33.4,9.8c0,0.3-0.8,0.8-1.2,1.1c-0.4,0.3-0.8,0.7-1,0.9s-0.4,0.5-0.6,0.5c-0.2,0-0.2-0.1-0.5-0.3
			c-0.4-0.2-1.2-0.7-1.7-0.9c-0.5-0.2-0.8-0.3-1.2-0.4c-0.4-0.2-0.9-0.4-1.5-0.5C25.2,10,24.6,10,24,9.9c-0.5,0-1-0.1-1.5-0.1
			c-0.5,0-0.9,0.1-1.4,0.2s-1.1,0.3-1.7,0.4c-0.5,0.2-1,0.4-1.5,0.6c-0.4,0.2-0.6,0.3-1,0.6c-0.4,0.3-1.1,0.8-1.6,1.2
			c-0.5,0.4-1,1-1.3,1.4c-0.4,0.4-0.5,0.6-0.8,1c-0.3,0.4-0.7,0.9-0.9,1.3c-0.2,0.4-0.4,0.8-0.5,1.3c-0.2,0.5-0.4,1.1-0.5,1.6
			c-0.1,0.5-0.2,0.9-0.3,1.4c-0.1,0.6-0.2,1.1-0.2,1.9c0,0.8,0.2,2,0.3,2.8c0.1,0.7,0.2,1,0.5,1.6c0.3,0.6,0.8,1.5,1.2,2.2
			c0.4,0.7,0.9,1.2,1.3,1.7c0.5,0.6,1,1.1,1.5,1.6s0.9,0.8,1.4,1.2c0.5,0.4,1.1,0.8,1.6,1.1c0.5,0.3,0.9,0.6,1.4,0.9
			c0.5,0.3,1.1,0.6,1.5,0.9c0.4,0.2,0.9,0.2,1.2,0.4c0.3,0.3,0.2,0.5,0.3,1.1c0.1,0.5,0.3,1.5,0.4,2c0.1,0.5,0.2,0.9,0.1,1.1
			c-0.1,0.1-0.4-0.1-0.9-0.3c-0.5-0.2-1.3-0.6-2.2-1c-0.9-0.4-2.1-1-3-1.6c-0.9-0.5-1.6-1.1-2.4-1.6c-0.7-0.5-1.3-0.9-1.9-1.4
			c-0.6-0.5-1.2-1.1-1.7-1.6c-0.5-0.5-0.9-1-1.3-1.5c-0.4-0.5-0.6-0.9-0.9-1.4s-0.8-1.2-1.1-1.8S7.8,27.7,7.6,27
			c-0.2-0.7-0.4-1.3-0.6-2c-0.1-0.7-0.2-1.4-0.2-2.2c0-0.9,0.1-2.1,0.2-3c0.1-0.9,0.3-1.4,0.5-2.2c0.2-0.7,0.6-1.6,0.9-2.3
			c0.3-0.7,0.7-1.2,1-1.8c0.4-0.5,0.6-0.9,1.1-1.5c0.5-0.5,1.1-1.2,1.6-1.7s0.9-0.9,1.5-1.2c0.5-0.4,1.1-0.7,1.6-1
			c0.5-0.3,1-0.5,1.5-0.8c0.6-0.2,1.3-0.5,1.9-0.7c0.6-0.2,1-0.3,1.6-0.4c0.6-0.1,1.4-0.1,2-0.2c0.7,0,1.4-0.1,2,0
			c0.7,0,1.2,0.2,1.9,0.3C27,6.6,28,6.8,28.7,7.1c0.7,0.3,1.3,0.6,1.9,0.9c0.6,0.3,1.3,0.7,1.7,1S33.5,9.5,33.4,9.8z"/>
		<path class="st2" d="M30,28.9c-0.6,0.1-3.4,1.3-4.2,1.8c-0.8,0.5-0.4,0.8-0.5,1.3c-0.1,0.6-0.3,1.3-0.4,2c-0.1,0.7,0,1.5,0,2.3
			s0,1.8,0.1,2.7c0.1,0.9,0.3,2,0.6,2.9c0.3,0.9,0.6,1.7,1.1,2.5s0.9,1.5,1.4,2.2c0.5,0.7,1.1,1.3,1.7,1.9c0.6,0.5,1.2,0.9,1.8,1.3
			c0.6,0.4,1.3,0.6,1.9,0.9c0.6,0.2,1.2,0.4,1.8,0.6c0.6,0.2,1.2,0.3,1.8,0.4c0.6,0.1,1.3,0.2,1.9,0.2c0.6,0,1.4,0.2,1.7,0
			c0.3-0.2,0.2-0.9,0.3-1.4c0.1-0.6,0.5-1.6,0.4-1.9c-0.1-0.3-0.7,0-1.2,0c-0.5,0-1.2-0.1-1.8-0.2c-0.6-0.1-1.2-0.3-1.8-0.5
			c-0.6-0.2-1.3-0.5-1.9-0.8c-0.6-0.3-1.1-0.6-1.6-1c-0.5-0.4-1-0.9-1.4-1.4c-0.4-0.5-0.7-1-1-1.5c-0.3-0.5-0.5-0.8-0.7-1.4
			c-0.2-0.6-0.5-1.3-0.7-2c-0.2-0.6-0.2-1.3-0.2-1.9s-0.1-1.2-0.2-1.8s0-1,0.1-1.6c0.1-0.7,0.3-1.7,0.4-2.4c0.1-0.7,0.2-1.3,0.3-1.8
			C29.8,29.7,30.7,28.8,30,28.9z"/>
		<path class="st2" d="M51.9,36.5c0.2,0.4,0.4,2.3,0.3,2.8c0,0.6-0.1,0.4-0.5,0.6c-0.4,0.2-1.2,0.3-1.8,0.4s-1.2,0.3-2,0.4
			c-0.8,0.1-1.6,0.3-2.6,0.5c-1,0.2-2.4,0.4-3.4,0.5c-1,0.1-1.7,0.1-2.5,0.2C38.7,42,38,42,37.1,42.1s-2,0.1-2.8,0.1
			c-0.7,0-1.3,0-1.7-0.1c-0.4-0.1-0.5-0.2-0.7-0.6c-0.2-0.4-0.3-1.3-0.3-1.7c-0.1-0.4-0.4-0.6-0.1-0.7c0.3-0.1,1,0,1.8,0
			c0.8,0,2.2,0.1,3.2,0c1,0,1.7-0.1,2.6-0.1c0.9-0.1,1.9-0.2,2.7-0.3s1.3-0.2,2.2-0.3c0.9-0.2,2.2-0.4,3.2-0.6
			c0.9-0.2,1.9-0.5,2.5-0.6c0.6-0.2,0.9-0.3,1.3-0.4C51.4,36.7,51.7,36.1,51.9,36.5z"/>
		<path class="st2" d="M43.4,43.6c0.3-0.4,1.7-0.3,2.1-0.4c0.5-0.1,0.4-0.1,0.6-0.1c0.2,0,0.5-0.2,0.6-0.1c0.1,0.1,0,0.1,0,0.6
			c0,0.5,0,1.3-0.1,2.4s-0.1,2.9-0.2,4.1s0,2-0.1,3.2c-0.1,1.2-0.3,2.8-0.4,3.9c-0.1,1.1-0.3,1.8-0.5,2.7s-0.4,1.7-0.7,2.5
			c-0.3,0.8-0.5,1.7-0.9,2.6c-0.4,0.9-0.8,1.7-1.3,2.7c-0.5,0.9-1.3,2.1-1.9,3c-0.6,0.9-1.4,1.8-2,2.5s-0.9,1-1.7,1.7
			c-0.8,0.7-2.2,2-3,2.6c-0.7,0.6-1.1,1.1-1.4,1.2c-0.3,0.1-0.3-0.2-0.5-0.5c-0.2-0.3-0.5-0.7-0.7-1.1c-0.3-0.4-0.8-0.8-0.8-1.2
			c0-0.3,0.5-0.3,1.1-0.8c0.5-0.5,1.3-1.3,2.2-2.2s2.1-2.2,2.9-3.2c0.8-1,1.4-2.1,1.9-2.9c0.5-0.8,0.7-1.1,1.1-1.8
			c0.4-0.7,0.8-1.6,1.2-2.4c0.3-0.8,0.6-1.6,0.9-2.6c0.3-0.9,0.5-2,0.6-3c0.2-0.9,0.4-1.8,0.5-2.7c0.1-0.9,0.1-1.7,0.2-2.6
			c0-1,0.1-2.2,0.1-3.2s0.1-2.2,0.1-3C43.5,44.6,43.1,44,43.4,43.6z"/>
		<path class="st2" d="M48.3,48c0.3-0.5,1.2-0.4,1.9-0.5s1.5-0.3,2.3-0.5c0.8-0.1,1.5-0.3,2.3-0.4c0.7-0.1,1.4-0.1,2.2-0.2
			c0.7-0.1,1.4-0.1,2.2-0.1c0.8,0,1.5,0,2.4,0.1c0.9,0.1,2.1,0.3,2.8,0.4c0.8,0.2,1.2,0.3,1.7,0.5c0.5,0.2,0.8,0.3,1.3,0.6
			c0.5,0.2,1.1,0.6,1.5,0.9c0.4,0.3,0.7,0.4,1.2,0.8c0.4,0.4,1.1,1.1,1.5,1.6c0.4,0.5,0.7,1,1,1.5c0.3,0.5,0.5,1.1,0.7,1.7
			c0.2,0.5,0.3,0.9,0.4,1.6c0.1,0.6,0.2,1.4,0.1,2.2s-0.2,1.8-0.4,2.5c-0.1,0.6-0.2,0.9-0.4,1.4c-0.2,0.5-0.6,1.1-1,1.6
			c-0.4,0.5-1,1.2-1.5,1.6c-0.5,0.5-1,0.8-1.6,1.1c-0.6,0.3-1.4,0.6-2.1,0.8c-0.7,0.2-1.5,0.3-2.1,0.3c-0.7,0-1.2,0-2-0.2
			c-0.7-0.2-1.6-0.4-2.5-0.8c-0.9-0.4-2-1.2-2.7-1.8c-0.7-0.6-1.2-1.2-1.7-1.9c-0.5-0.7-1-1.5-1.3-2.3c-0.3-0.8-0.6-1.7-0.8-2.4
			c-0.2-0.7-0.2-1.3-0.3-2c-0.1-0.7-0.1-1.7,0-2.4c0-0.7,0-1.3,0.2-1.6c0.2-0.3,0.5-0.1,0.9-0.1c0.4,0,1.1,0,1.4,0
			c0.4,0,0.6-0.2,0.7,0c0.1,0.2-0.1,0.4-0.1,0.9c0,0.5-0.1,1.4,0,2s0.1,1,0.2,1.7c0.2,0.6,0.5,1.5,0.7,2.1c0.2,0.6,0.3,0.8,0.7,1.3
			c0.3,0.5,0.9,1.3,1.4,1.7c0.5,0.4,1,0.7,1.5,1c0.6,0.3,1.3,0.5,1.9,0.6c0.7,0.1,1.5,0.1,2.1,0c0.6-0.1,1.2-0.4,1.7-0.6
			c0.5-0.3,0.9-0.6,1.3-0.9c0.3-0.3,0.5-0.6,0.8-1c0.2-0.4,0.5-1,0.7-1.4s0.3-0.8,0.3-1.3c0.1-0.5,0-1.1,0-1.6c0-0.5,0-0.8-0.1-1.3
			c-0.2-0.5-0.6-1.3-0.9-1.7c-0.3-0.5-0.4-0.7-0.8-1c-0.4-0.3-0.9-0.7-1.4-1.1c-0.5-0.3-1.2-0.6-1.7-0.9c-0.6-0.2-1.2-0.3-1.8-0.4
			c-0.6-0.1-1.3-0.3-2-0.4c-0.7-0.1-1.3,0-2,0c-0.7,0-1.5,0-2.3,0c-0.8,0.1-1.7,0.2-2.5,0.3c-0.8,0.1-1.6,0.2-2.2,0.4
			c-0.6,0.1-1.1,0.2-1.6,0.3c-0.5,0.1-1,0.3-1.3,0.4c-0.3,0.1-0.4,0.3-0.5,0.1c-0.1-0.2-0.1-0.6-0.2-1.2C48.3,49.6,48,48.5,48.3,48z
			"/>
		<path class="st2" d="M20.1,71.5c0.3,0.6,0.2,0.6,0.2,0.9c0,0.3-0.1,0.6-0.2,0.9C20,73.5,20,73.8,19.8,74c-0.2,0.3-0.5,0.5-0.8,0.7
			c-0.3,0.2-0.7,0.3-1.1,0.4s-0.7,0.3-1.1,0.4c-0.4,0.1-0.8,0.1-1.2,0.2s-0.7,0.3-1,0.4c-0.3,0.2-0.7,0.3-1.1,0.5
			c-0.3,0.2-0.7,0.3-1,0.5c-0.3,0.2-0.6,0.5-0.9,0.7c-0.3,0.3-0.5,0.6-0.8,0.9s-0.4,0.5-0.6,0.9c-0.2,0.4-0.5,1.1-0.6,1.7
			c-0.2,0.5-0.3,1.1-0.3,1.5c0,0.5,0,0.9,0.1,1.4c0.1,0.5,0.4,1.6,0.3,1.7c0,0.1-0.4-0.6-0.5-1.1c-0.1-0.5-0.3-1.2-0.3-1.7
			c0-0.6,0.1-1.1,0.2-1.7s0.2-1,0.4-1.4c0.2-0.4,0.4-0.7,0.6-1.1c0.3-0.4,0.6-0.8,0.9-1.1c0.3-0.3,0.4-0.4,1-0.7
			c0.7-0.4,2.8-1.2,3-1.4c0.2-0.2-1.2,0-1.8,0c-0.6,0-1.3-0.1-2-0.1c-0.6,0-1.3,0.1-1.9,0.2c-0.6,0.2-1.2,0.5-1.6,0.7
			c-0.4,0.3-0.7,0.6-1,0.9c-0.2,0.3-0.4,0.5-0.5,0.9s-0.1,0.9,0,1.3c0,0.3,0.1,0.6,0.3,0.7c0.2,0.1,0.7-0.1,0.9-0.2
			c0.2-0.1,0.3-0.2,0.5-0.3c0.2-0.2,0.7-0.8,0.7-0.7c0,0.1-0.6,0.9-0.8,1.5c-0.2,0.5-0.4,1.2-0.6,1.8S7,83.4,7,84c0,0.5,0,1,0.2,1.6
			c0.2,0.6,0.6,1.4,0.9,1.9c0.3,0.5,0.8,0.8,1.1,1.1s0.5,0.4,0.8,0.5c0.3,0.1,0.8,0.3,1.1,0.2c0.4-0.1,0.9-0.4,1.1-0.7
			c0.3-0.3,0.3-0.6,0.4-1.1c0.1-0.5,0-1.3,0-1.8s0-0.8,0-1.4c0-0.6,0-1.9,0-2.4c0-0.5-0.1-0.4,0-0.5c0.1-0.1,0.2-0.5,0.3-0.3
			c0.1,0.2,0.1,0.9,0.2,1.3c0.1,0.5,0.3,1.1,0.4,1.5s0.2,0.7,0.4,0.9c0.2,0.2,0.6,0.3,1,0.2c0.4-0.1,0.8-0.4,1.2-0.8
			c0.4-0.3,0.9-0.8,1.1-1.3c0.3-0.5,0.4-0.8,0.4-1.4c0-0.6-0.3-1.5-0.4-2.1c-0.2-0.6-0.4-0.9-0.5-1.3c-0.1-0.4-0.2-0.7-0.2-1
			c0.1-0.3,0.2-0.4,0.5-0.5c0.3-0.1,0.6,0,1.1-0.2c0.5-0.2,1.4-0.7,1.8-1s0.4-0.6,0.6-0.9c0.2-0.4,0.4-0.9,0.5-1.2
			c0.1-0.3-0.4-1.1,0-0.7c0.4,0.4,1.8,2.2,2.6,3.1c0.8,1,1.3,1.6,2.1,2.6s1.8,2.2,2.6,3.2c0.8,1,1.5,2.1,2,2.9s0.6,0.9,1,1.5
			c0.4,0.6,1,1.5,1.5,2.4c0.5,0.9,0.9,1.8,1.4,2.8c0.5,1,1.2,2.4,1.6,3.4c0.4,1.1,0.7,1.9,1,3c0.3,1.1,0.6,2.7,0.8,3.8
			c0.2,1.1,0.3,1.9,0.4,2.8c0.1,1,0,1.8,0,2.9c0,1.1,0,2.5-0.2,3.6c-0.1,1.1-0.3,2-0.6,3c-0.2,1.1-0.5,2.4-0.8,3.4
			c-0.3,0.9-0.4,1.2-0.8,2.2c-0.4,1-1.1,2.8-1.5,3.9c-0.5,1.1-0.7,1.8-1.2,2.6c-0.4,0.9-0.9,1.7-1.5,2.7c-0.5,1-1.3,2.3-1.8,3.2
			c-0.5,0.9-0.8,1.3-1.3,2c-0.5,0.7-1.3,1.5-1.5,2c-0.2,0.5,0.2,0.4,0.4,0.9c0.2,0.4,0.4,1.3,0.6,1.7c0.1,0.4,0.1,0.8,0.2,0.8
			c0.1,0,0.2-0.2,0.7-0.9c0.5-0.7,1.5-2.1,2.3-3.3c0.8-1.1,1.6-2.4,2.3-3.6c0.7-1.1,1.3-2,1.9-3.3c0.7-1.3,1.6-3,2.2-4.3
			c0.6-1.3,0.9-2.1,1.3-3.3c0.4-1.2,0.9-2.7,1.3-4c0.4-1.3,0.8-2.8,1-3.9c0.2-1.1,0.2-1.4,0.3-2.4c0.1-1.1,0.3-2.5,0.3-4
			c0-1.5-0.1-3.4-0.3-4.9c-0.2-1.5-0.5-2.6-0.8-3.9c-0.3-1.3-0.7-2.7-1.1-3.9c-0.4-1.1-0.9-2.1-1.3-3c-0.4-0.9-0.6-1.3-1.1-2.2
			c-0.5-1-1.3-2.4-2.1-3.7c-0.8-1.2-1.6-2.5-2.5-3.7c-0.8-1.2-1.5-2.1-2.5-3.4c-1-1.3-2.4-3-3.4-4.2c-1-1.2-1.6-2-2.4-3
			s-1.6-1.9-2.4-3C21,66.4,20,65,19.1,63.8c-0.9-1.2-1.7-2.4-2.4-3.5s-1.1-1.9-1.5-2.9c-0.5-0.9-0.8-1.9-1.2-2.8
			c-0.3-0.9-0.6-1.8-0.8-2.7s-0.4-1.6-0.4-2.6c-0.1-1,0-2.2,0-3.2s0.2-1.7,0.4-2.5c0.2-0.8,0.5-1.5,0.8-2.3c0.3-0.8,1-2.1,1.1-2.6
			s-0.2-0.1-0.5-0.4c-0.3-0.3-0.8-0.8-1.2-1.1c-0.4-0.4-1.1-1.1-1.4-1.1c-0.3,0-0.2,0.4-0.4,1s-0.8,2-1.1,2.7s-0.4,0.9-0.6,1.7
			c-0.2,0.8-0.6,2.1-0.7,2.9s-0.2,1.2-0.3,2.1s0,2.1,0,3.2c0.1,1,0.3,2.1,0.5,3.1c0.2,1,0.4,1.7,0.7,2.8c0.4,1.1,1,2.6,1.5,3.6
			c0.5,1,0.9,1.8,1.4,2.6c0.5,0.8,0.9,1.3,1.4,2.1c0.6,0.8,1.3,1.9,1.9,2.8c0.6,0.9,1.3,1.6,1.9,2.4C18.9,69.9,19.8,70.9,20.1,71.5z
			"/>
		<path class="st2" d="M17.7,176.3c0.4,0.5,0.5,0.9,1,1.3s1.1,0.8,1.6,1.1c0.5,0.3,1,0.4,1.5,0.6c0.5,0.1,1.2,0.2,1.7,0.3
			c0.6,0,1.2,0,1.7-0.1c0.5-0.1,0.9-0.3,1.3-0.4s0.7-0.4,1.1-0.7c0.4-0.3,1.4-1.2,1.3-1.1c-0.1,0.1-1.2,1.4-1.7,1.7
			c-0.5,0.4-0.7,0.4-1.1,0.6s-0.7,0.3-1.1,0.4s-0.6,0.1-1,0.1s-0.7,0.1-1.1,0c-0.4-0.1-0.9-0.2-1.3-0.4c-0.4-0.2-0.9-0.3-1.3-0.6
			c-0.4-0.3-0.9-0.6-1.3-0.9c-0.4-0.3-0.8-1-1-1.1c-0.2,0-0.2,0.4-0.3,0.9c-0.1,0.4-0.3,1.1-0.4,1.7c-0.1,0.6,0,1.3,0,1.8
			c0.1,0.5,0.2,0.9,0.4,1.3c0.2,0.4,0.6,0.8,1,1.1s0.9,0.8,1.5,1c0.6,0.2,1.2,0.2,1.9,0.2c0.6,0,1.3,0.1,1.9-0.1
			c0.6-0.1,1.1-0.4,1.5-0.8c0.4-0.4,0.8-1.2,0.9-1.5c0.1-0.2-0.3,0.1-0.5,0.1c-0.2,0-0.5,0-0.8-0.1c-0.3-0.1-0.8-0.3-0.7-0.4
			c0.1-0.1,0.7,0.1,1.2,0s1,0,1.6-0.2s1.5-0.7,2.1-1.1s1.1-0.9,1.4-1.4c0.3-0.5,0.4-1,0.5-1.5c0.1-0.5,0-1.3-0.1-1.7
			c-0.1-0.5-0.3-0.8-0.5-1.1c-0.2-0.3-0.5-0.7-0.8-0.9c-0.3-0.2-0.7-0.3-1-0.3c-0.3,0-0.7,0-1.1,0.2c-0.3,0.2-0.7,0.5-1,0.8
			c-0.3,0.3-0.6,0.7-0.9,1.1c-0.3,0.4-0.6,0.8-0.9,1.1c-0.3,0.3-0.5,0.5-0.7,0.7c-0.2,0.2-0.5,0.3-0.6,0.2c-0.1-0.1,0-0.4,0.1-0.6
			c0.1-0.2,0.4-0.3,0.6-0.5c0.2-0.1,0.5-0.2,0.6-0.4s0.3-0.5,0.2-0.8c-0.1-0.3-0.4-0.8-0.6-1s-0.4-0.4-0.7-0.5s-0.6-0.3-1.1-0.3
			c-0.5,0-1.3,0.1-1.9,0.2s-1.1,0.5-1.5,0.9c-0.4,0.3-0.8,1.4-1.1,1.2c-0.4-0.1-0.8-1.3-1.1-2.1c-0.3-0.8-0.6-1.6-0.8-2.5
			c-0.2-0.9-0.4-2.2-0.5-3.2c-0.1-1,0-1.8,0-2.8c0-1,0.1-2.1,0.2-3s0.1-1.5,0.3-2.4c0.2-0.9,0.5-2.1,0.7-3c0.2-0.8,0.4-1.4,0.6-2.1
			c0.2-0.7,0.5-1.2,0.8-1.9c0.3-0.6,0.7-1.3,1.1-2c0.4-0.7,0.8-1.5,1.1-2.1c0.4-0.6,0.5-1,1-1.7c0.5-0.8,1.7-2.2,2-2.9
			c0.3-0.7-0.2-0.7-0.4-1.1c-0.2-0.4-0.4-0.8-0.6-1.1s-0.3-0.9-0.5-0.9c-0.2,0-0.2,0.2-0.6,0.9c-0.4,0.7-1.3,2.5-1.8,3.5
			c-0.5,1-0.8,1.6-1.2,2.4s-0.9,1.8-1.3,2.8c-0.4,1-0.8,2.1-1.2,3c-0.4,1-0.7,1.9-0.9,2.8s-0.2,1.3-0.4,2.3c-0.1,1-0.3,2.8-0.3,3.9
			c-0.1,1.1-0.1,1.8-0.1,2.6s0,1.1,0.1,1.9c0.1,0.8,0.2,1.8,0.4,2.6c0.2,0.8,0.3,1.5,0.6,2.2c0.3,0.7,0.7,1.5,1.1,2.1
			C16.9,175.2,17.4,175.8,17.7,176.3z"/>
		<path class="st2" d="M25.3,80.6c0.6,0.2,2,1.6,2.3,2.1c0.3,0.5-0.1,0.4-0.6,0.9c-0.4,0.5-1.4,1.5-2.1,2.3
			c-0.6,0.8-1.3,1.7-1.8,2.5c-0.5,0.7-0.8,1.2-1.3,2c-0.4,0.8-0.9,1.8-1.3,2.5c-0.4,0.7-0.6,1.3-0.9,1.9c-0.3,0.6-0.4,1.2-0.6,1.9
			s-0.4,1.5-0.6,2.4c-0.2,0.8-0.5,2-0.6,2.7c-0.1,0.7,0,0.9,0,1.5c0.1,0.6,0.1,1.5,0.3,2.3c0.2,0.8,0.5,1.7,0.7,2.4
			c0.3,0.7,0.5,1.1,0.8,1.6c0.4,0.5,0.8,1,1.3,1.4c0.5,0.4,1.1,0.7,1.6,0.9c0.6,0.2,1,0.2,1.7,0.3c0.8,0,2.1,0.1,2.8,0
			c0.7-0.1,1.3-0.2,1.7-0.4c0.4-0.2,0.4-0.4,0.6-0.7c0.2-0.3,0.5-0.6,0.7-1c0.2-0.4,0.4-0.8,0.5-1.3c0.1-0.4,0.3-0.9,0.3-1.3
			c0.1-0.4,0.1-0.9,0.1-1.3c0-0.4-0.1-0.7-0.2-1.1c-0.1-0.4-0.3-0.8-0.5-1.2c-0.2-0.4-0.5-0.8-0.8-1.1c-0.3-0.3-0.6-0.5-0.9-0.7
			c-0.3-0.2-0.5-0.3-0.8-0.4c-0.3-0.1-1-0.5-0.9-0.4c0.1,0.2,1.3,0.9,1.8,1.3s0.7,0.8,1,1.3c0.3,0.5,0.6,1.3,0.7,1.9
			c0.1,0.6,0.1,1.2,0,1.7c-0.1,0.5-0.2,1-0.4,1.5c-0.2,0.5-0.6,1.2-0.9,1.7c-0.3,0.4-0.3,0.6-0.9,0.9s-2.3,0.4-2.7,0.4
			c-0.4,0,0.4-0.4,0.4-0.6c0-0.2-0.2-0.4-0.5-0.6c-0.3-0.3-0.8-0.7-1.1-1c-0.3-0.3-0.6-0.5-0.8-0.9c-0.2-0.3-0.4-0.7-0.4-1.1
			c0-0.4,0.2-0.8,0.2-1.1c0.1-0.3,0.1-0.6,0.2-0.9c0.1-0.2,0.3-0.4,0.6-0.6c0.3-0.1,0.7-0.3,1.1-0.3c0.4,0,0.7,0.3,1.1,0.5
			c0.4,0.2,0.8,0.4,1.1,0.6c0.3,0.2,0.8,0.6,0.9,0.5c0.1,0-0.2-0.5-0.5-0.8c-0.3-0.3-0.9-0.6-1.4-0.9c-0.5-0.3-1-0.5-1.4-0.9
			c-0.4-0.3-0.8-0.7-1-1.1c-0.2-0.4-0.3-0.8-0.3-1.2c0-0.4,0.1-0.7,0.3-1c0.2-0.3,0.4-0.7,0.9-0.9c0.5-0.2,1.2-0.4,1.8-0.5
			c0.6-0.1,1.2-0.1,1.7,0c0.5,0.1,1.1,0.5,1.6,0.9c0.5,0.4,0.9,1,1.2,1.5c0.3,0.6,0.5,1.3,0.7,1.9s0.4,1,0.4,1.4
			c0.1,0.4,0,0.8,0.1,0.8s0.4-0.5,0.5-0.9c0.1-0.3,0.1-0.7,0.1-1c0-0.3-0.4-0.9-0.2-0.9s0.8,0.4,1.1,0.6c0.3,0.2,0.5,0.4,0.7,0.7
			c0.2,0.3,0.3,0.9,0.4,1.3c0.1,0.4,0.1,0.7,0,1.2c-0.1,0.4-0.2,1-0.4,1.5c-0.2,0.5-0.4,1.1-0.8,1.7s-0.7,1-1.3,1.5
			s-1.3,0.9-1.9,1.3c-0.6,0.3-0.9,0.5-1.5,0.6c-0.6,0.2-1.3,0.4-1.9,0.5c-0.6,0.1-1.3,0.1-1.9,0c-0.6,0-1.3-0.1-1.8-0.2
			s-0.8-0.1-1.2-0.2s-0.7-0.3-1.1-0.5c-0.4-0.2-0.9-0.5-1.3-0.9c-0.4-0.4-0.9-0.9-1.3-1.4s-0.6-1-0.9-1.5c-0.2-0.5-0.5-1.6-0.5-1.5
			c-0.1,0.1,0,1,0.1,2.2c0.1,1.1,0.4,3.4,0.6,4.7c0.2,1.3,0.4,2.1,0.6,3.2c0.3,1.1,0.6,2.2,0.9,3.4s0.8,2.5,1.2,3.6
			c0.4,1.1,0.6,1.9,1,2.9c0.4,1,0.5,1.5,1.2,3.2c0.7,1.7,2.2,5.3,3,7.1c0.8,1.8,1.2,2.6,1.7,3.8c0.5,1.2,0.8,1.9,1.3,3.2
			c0.5,1.3,1.4,3.3,1.9,4.7c0.6,1.5,1,2.8,1.4,4s0.7,2.2,1.1,3.3s0.5,2,0.8,3.2c0.3,1.1,0.7,2.6,0.8,3.7s0,1.5,0.1,2.4
			c0,0.9,0.1,2,0.1,2.9c0,0.9,0,1.6,0,2.6c-0.1,1-0.2,2.3-0.4,3.5c-0.2,1.2-0.4,2.5-0.6,3.6c-0.2,1-0.3,1.6-0.6,2.6
			c-0.3,1-0.6,2.3-1,3.4c-0.4,1.1-0.8,2.1-1.2,3.3c-0.5,1.1-1,2.4-1.5,3.5c-0.5,1.1-0.9,1.9-1.5,3.1c-0.6,1.2-1.6,2.9-2.2,4
			c-0.6,1.1-1,1.8-1.4,2.6c-0.4,0.8-0.7,1.4-1.1,2.1c-0.4,0.7-0.7,1.5-1.1,2.3s-0.7,1.8-0.9,2.3c-0.2,0.5-0.2,0.4-0.2,0.6
			c0,0.2,0,0.4,0.2,0.8c0.1,0.4,0.3,0.9,0.5,1.4c0.3,0.5,0.7,1,1,1.3c0.4,0.4,0.6,0.6,1.1,0.9c0.5,0.3,1.2,0.8,1.7,1.1
			c0.5,0.4,0.6,0.7,1.1,1.2c0.5,0.4,1.3,1,1.8,1.5c0.5,0.4,0.7,0.7,1,1.1c0.3,0.4,0.5,0.9,0.7,1.3c0.2,0.4,0.3,0.8,0.3,1.3
			c0,0.5,0,1.3-0.1,1.8c-0.1,0.5-0.2,0.7-0.3,1.1c-0.1,0.4-0.2,0.8-0.4,1.3c-0.2,0.5-0.8,1.4-0.8,1.5c0,0.1,0.6-0.6,0.9-1
			c0.3-0.4,0.5-0.9,0.7-1.3c0.2-0.5,0.5-0.9,0.6-1.4s0.2-1.2,0.2-1.8c-0.1-0.6-0.3-1.3-0.5-1.8c-0.2-0.5-0.5-0.7-0.9-1.1
			c-0.3-0.4-0.8-0.8-1.1-1.1c-0.3-0.3-0.6-0.7-0.9-0.9c-0.3-0.2-0.5-0.2-0.9-0.5c-0.4-0.3-1.5-1.3-1.5-1.5c0-0.2,0.9,0.3,1.4,0.4
			c0.5,0.1,1.1,0.3,1.6,0.3c0.5,0.1,0.9,0.1,1.3,0c0.4,0,0.8-0.1,1.2-0.1c0.4,0,0.9,0.1,1.3,0.2c0.4,0.1,0.8,0.4,1.1,0.7
			c0.3,0.3,0.6,0.7,0.9,1c0.2,0.3,0.4,0.7,0.5,1.1c0.1,0.4,0.3,0.8,0.3,1.3c0,0.5-0.1,1-0.2,1.5c-0.1,0.4-0.4,1.1-0.5,1.2
			s0-0.6,0-0.9c-0.1-0.3-0.2-0.6-0.4-0.8c-0.2-0.2-0.6-0.8-0.6-0.6c0,0.1,0.4,1,0.4,1.5c0.1,0.5,0.1,0.9,0.1,1.5
			c0,0.5-0.1,1.2-0.2,1.8c-0.2,0.6-0.5,1.2-0.9,1.7s-0.7,1-1.1,1.3c-0.4,0.4-0.7,0.7-1.1,0.9c-0.4,0.2-0.8,0.4-1.3,0.5
			c-0.5,0.1-1.1,0.1-1.5,0c-0.4,0-0.5-0.1-0.8-0.3c-0.3-0.2-0.8-0.6-1.1-1c-0.2-0.4-0.3-1-0.2-1.7c0-0.6,0.4-1.5,0.5-2
			c0.2-0.6,0.4-1,0.5-1.4c0.1-0.4,0.2-0.9,0.1-1.1s-0.6-0.2-0.8,0c-0.2,0.1-0.2,0.6-0.3,0.9c0,0.3,0,0.7,0,1c0,0.3,0.2,0.5,0,0.5
			c-0.2,0-0.7-0.1-1.1-0.4c-0.4-0.2-0.9-0.6-1.1-1c-0.2-0.4-0.3-1-0.2-1.5c0-0.5,0.3-1.2,0.5-1.7c0.2-0.5,0.4-1,0.6-1.5
			c0.2-0.5,0.3-0.9,0.4-1.2c0.1-0.4,0.2-0.7,0-0.9c-0.2-0.3-0.9-0.4-1.3-0.6c-0.4-0.2-0.6-0.4-1-0.6c-0.3-0.3-0.7-0.8-1-1.1
			c-0.3-0.4-0.4-0.7-0.6-1c-0.2-0.3-0.3-1.2-0.4-0.9c-0.2,0.3-0.4,1.8-0.6,2.8c-0.2,1-0.3,1.9-0.4,3.2c-0.1,1.2-0.2,2.9-0.2,4.2
			s0.1,2.3,0.2,3.4c0.1,1.1,0.2,2.3,0.4,3.4c0.2,1.2,0.5,2.6,0.8,3.7c0.3,1.1,0.4,1.8,0.8,3c0.4,1.2,1,3.1,1.5,4.3
			c0.5,1.2,0.8,2,1.3,3c0.5,1.1,1,2.4,1.5,3.4c0.5,1,0.9,1.8,1.3,2.8c0.4,1,1,2.2,1.4,3.2c0.4,1.1,0.8,2.3,1.1,3.3
			c0.3,1,0.3,1.8,0.4,2.6c0.1,0.8,0.1,1.4,0,2.1s-0.3,1.5-0.6,2.1c-0.3,0.6-0.7,1.1-1.1,1.6c-0.4,0.4-0.8,0.8-1.3,1.1
			c-0.5,0.3-1.1,0.5-1.7,0.5c-0.6,0.1-1.4,0-1.9-0.1c-0.5-0.1-0.9-0.4-1.3-0.8c-0.4-0.4-0.8-0.9-1.1-1.5c-0.3-0.6-0.4-1.7-0.5-2.3
			c-0.1-0.6,0-1.1,0-1.5c0-0.5,0.1-1.5,0.2-1.3c0.1,0.2,0.1,1.9,0.2,2.6c0.1,0.7,0.3,1.1,0.6,1.6c0.3,0.5,0.7,1.1,1.2,1.4
			c0.5,0.3,1.2,0.5,1.8,0.6c0.6,0,1.4-0.2,1.9-0.4c0.5-0.3,1-0.8,1.3-1.2c0.3-0.4,0.5-0.8,0.7-1.3c0.2-0.4,0.3-0.7,0.3-1.3
			c0-0.6,0.1-1.4,0-2.1c-0.1-0.7-0.3-1.4-0.6-2.2c-0.3-0.9-0.8-2-1.2-2.9c-0.4-0.9-0.7-1.3-1.2-2.5c-0.6-1.2-1.5-3-2.1-4.5
			c-0.7-1.5-1.4-3.3-2-4.6s-0.9-2.2-1.3-3.5c-0.4-1.3-0.9-3-1.3-4.2c-0.3-1.2-0.4-1.7-0.6-2.8c-0.2-1.1-0.5-2.4-0.7-3.7
			c-0.2-1.3-0.3-3.1-0.4-4.3c-0.1-1.3-0.1-2.2,0-3.4c0.1-1.2,0.1-2.4,0.3-3.7s0.5-2.6,0.8-3.9s0.7-2.6,1.1-3.8
			c0.4-1.2,0.9-2.3,1.4-3.4c0.5-1.1,1-2.2,1.7-3.5c0.6-1.3,1.5-3.2,2.2-4.5c0.6-1.3,1.1-2.1,1.7-3.3c0.6-1.1,1.2-2.4,1.7-3.6
			c0.5-1.1,0.9-2.3,1.3-3.3c0.4-1.1,0.7-1.8,1.1-3c0.4-1.2,0.8-2.9,1.1-4.2c0.3-1.3,0.4-2.4,0.5-3.7c0.2-1.3,0.4-2.7,0.4-4
			c0.1-1.3,0.1-2.4-0.1-3.7c-0.1-1.3-0.5-2.8-0.8-4.2c-0.3-1.4-0.7-2.9-1.1-4.2c-0.4-1.3-0.9-2.5-1.3-3.7c-0.4-1.2-0.7-1.9-1.3-3.4
			s-1.8-4.2-2.5-5.9c-0.7-1.7-1.1-2.7-1.9-4.5c-0.7-1.8-1.8-4.2-2.5-6.1c-0.8-1.9-1.4-3.6-2-5.3c-0.6-1.7-1.2-3.1-1.7-4.8
			c-0.5-1.7-1.1-3.5-1.5-5.3c-0.4-1.8-0.8-3.8-1.1-5.6c-0.3-1.7-0.5-3.3-0.6-4.9c-0.1-1.6-0.1-3.2,0-4.7c0.1-1.5,0.2-3,0.4-4.5
			c0.2-1.5,0.6-2.9,1-4.3c0.4-1.4,1-2.8,1.5-4c0.5-1.2,1-2,1.6-3c0.6-1,1.4-2.2,2.1-3.1c0.6-0.9,1.3-1.6,1.8-2.2s0.9-1.1,1.3-1.5
			C24.6,81.2,24.7,80.4,25.3,80.6z"/>
		<path class="st2" d="M138.9,26.7c-0.4,0.1-0.7,1-1,1.3c-0.3,0.4-0.7,0.6-0.7,0.9s0.1,0.1,0.6,0.6c0.6,0.4,1.7,1.4,2.8,2.1
			c1.2,0.7,2.9,1.7,4.1,2.2c1.2,0.6,2,0.8,3,1.1c1,0.3,2,0.6,3,0.9c1.1,0.2,2,0.4,3.3,0.6s3,0.4,4.4,0.5c1.4,0.1,2.6-0.1,4-0.2
			c1.3-0.1,2.7-0.3,4-0.5c1.2-0.2,2.1-0.3,3.5-0.5c1.4-0.3,3.2-0.7,4.7-1c1.5-0.4,2.9-0.7,4.3-1.1c1.4-0.4,3-0.9,4.3-1.3
			c1.4-0.4,2.6-0.8,3.9-1.3c1.3-0.4,2.5-0.8,3.9-1.3s2.8-1,4.1-1.4c1.2-0.4,2-0.7,3.2-1.1s2.9-1,4.1-1.4c1.1-0.4,1.7-0.5,2.8-0.8
			c1.1-0.3,2.8-0.8,3.9-1.1c1-0.3,1.5-0.4,2.4-0.6s2-0.5,3-0.7c1-0.2,1.8-0.4,2.9-0.6c1-0.2,2.3-0.3,3.3-0.4c1-0.1,1.9-0.2,2.8-0.2
			c0.9,0,2-0.1,2.8-0.1c0.8,0,1.3-0.1,1.9,0c0.6,0.1,1.1,0.4,1.5,0.7s0.7,0.7,1,1.3c0.3,0.6,0.7,1.7,0.7,2c0,0.4-0.3-0.1-0.6,0.1
			c-0.4,0.1-1.2,0.5-1.6,0.8c-0.4,0.3-0.7,0.7-1,1.1c-0.3,0.3-0.5,0.6-0.7,0.9c-0.1,0.3-0.2,0.5-0.2,0.8c0,0.3-0.1,0.7-0.1,1
			c0,0.3,0.1,0.6,0.3,0.8c0.2,0.2,0.7,0.4,1.1,0.4c0.4,0,0.8,0,1.1-0.2c0.4-0.1,0.7-0.4,1-0.6c0.3-0.2,0.6-0.7,0.7-0.6
			c0.1,0.1-0.1,0.7-0.2,1.1c-0.2,0.4-0.5,0.7-0.7,1c-0.2,0.3-0.3,0.6-0.4,0.9c-0.1,0.3-0.2,0.5-0.2,0.9c0,0.4,0.2,0.9,0.4,1.2
			c0.2,0.3,0.5,0.4,1,0.6s1.4,0.5,1.9,0.6c0.4,0.1,0.4,0,0.7,0c0.3,0,0.9,0.1,1.3-0.1c0.4-0.2,0.8-0.5,1.1-0.9s0.5-0.7,0.6-1.2
			c0.1-0.4,0.1-1.1,0.2-1.5c0-0.4,0-0.5,0-0.9c-0.1-0.4-0.3-1.1-0.4-1.5c-0.1-0.4-0.3-1-0.2-0.9c0.1,0.1,0.5,1,0.8,1.3
			c0.3,0.3,0.6,0.6,1,0.7c0.4,0.1,1.1,0,1.4-0.1c0.3-0.1,0.4-0.4,0.5-0.7c0.1-0.3,0.1-1,0-1.3c-0.1-0.3-0.2-0.5-0.5-0.8
			c-0.2-0.3-0.7-0.8-1-1.1c-0.3-0.3-0.6-0.5-0.9-0.7c-0.3-0.3-0.7-0.6-1.1-0.8c-0.4-0.2-0.8-0.4-1.4-0.5c-0.6-0.1-1.6,0.1-2.1,0
			c-0.4-0.1-0.6-0.8-0.6-0.7c0,0.1,0.3,0.9,0.4,1.4s0.3,0.8,0.4,1.3c0.2,0.4,0.4,1,0.5,1.4c0.1,0.4,0.2,0.7,0.3,1.1
			c0.1,0.4,0.1,0.9,0.1,1.3c0,0.4-0.1,0.6-0.2,1c-0.1,0.3-0.1,0.7-0.2,1.1c-0.1,0.4-0.5,1.3-0.6,1.3c-0.1,0,0.2-0.8,0.2-1.3
			c0.1-0.4,0.2-0.8,0.2-1.3c0-0.5,0-1.2,0-1.6c0-0.5-0.1-0.7-0.2-1.1s-0.2-0.8-0.3-1.2c-0.1-0.4-0.2-0.7-0.2-1.1
			c-0.1-0.4-0.1-0.6-0.2-1.1c-0.1-0.5-0.4-1.2-0.5-1.6c-0.1-0.4-0.1-0.6-0.3-0.9c-0.2-0.3-0.5-0.7-0.8-0.9c-0.3-0.3-1-0.6-0.9-0.7
			c0.1-0.1,0.6-0.1,1.3-0.1c0.6,0,1.5,0.2,2.6,0.2c1.1,0.1,2.7,0.1,3.8,0.2s2.1,0.2,3,0.4c1,0.1,1.8,0.3,2.8,0.5s2.3,0.4,3.2,0.6
			c1,0.2,1.7,0.4,2.6,0.6c0.9,0.2,1.9,0.4,2.8,0.7c1,0.3,2,0.5,3.1,0.9c1.1,0.4,2.7,0.9,3.7,1.3s1.6,0.5,2.4,0.8
			c0.8,0.3,1.6,0.6,2.5,0.9c0.9,0.3,2.1,0.8,3,1.1c0.9,0.3,1.6,0.5,2.4,0.7c0.8,0.2,1.6,0.4,2.3,0.6c0.7,0.1,1.1,0.2,1.8,0.3
			c0.6,0,1.4,0,2.1,0c0.7,0,1.3,0,1.9-0.1c0.6-0.1,1.2-0.3,1.7-0.6c0.5-0.3,1.1-0.6,1.5-0.9s0.6-0.5,0.9-0.9
			c0.3-0.4,0.6-0.9,0.8-1.5c0.2-0.6,0.4-1.4,0.3-2c-0.1-0.6-0.4-1.3-0.7-1.8c-0.4-0.5-0.9-0.9-1.4-1.2c-0.5-0.3-1.1-0.5-1.6-0.7
			c-0.6-0.2-1.1-0.3-1.7-0.4c-0.6-0.1-1.4-0.1-2-0.1c-0.6,0-1.2,0-1.7,0c-0.5,0-1.3,0.1-1.2,0.2c0.1,0,1.1,0,1.8,0
			c0.7,0.1,1.7,0.2,2.4,0.4s1.3,0.3,1.9,0.6c0.6,0.3,1.2,0.6,1.6,0.9s0.7,0.7,1,1.1c0.2,0.4,0.3,0.8,0.4,1.1s0,0.6,0,0.9
			c-0.1,0.3,0,0.7-0.3,1.1c-0.3,0.4-0.8,0.9-1.3,1.2c-0.5,0.3-1,0.6-1.6,0.9c-0.6,0.2-1.4,0.3-2.2,0.4c-0.8,0-1.6,0-2.5-0.1
			c-0.9-0.1-2-0.5-2.8-0.8s-1.4-0.4-2.4-0.8c-1-0.3-1.9-0.7-3.4-1.3c-1.5-0.6-4.3-1.7-5.7-2.2c-1.4-0.5-1.6-0.6-2.6-0.9
			c-0.9-0.3-1.8-0.6-2.9-1c-1.1-0.3-2.2-0.6-3.6-1s-3.6-0.9-5.1-1.2c-1.5-0.3-2-0.4-3.7-0.6c-1.8-0.2-4.8-0.6-6.8-0.8
			s-3.8-0.2-5.2-0.3c-1.4-0.1-2.1-0.1-3.2-0.1c-1.1,0-1.9,0-3.2,0c-1.3,0.1-2.9,0.2-4.6,0.4s-3.6,0.5-5.6,0.9
			c-2,0.4-4.6,1.1-6.5,1.6c-1.9,0.5-3.8,1.1-5,1.5c-1.2,0.4-0.9,0.3-2.1,0.6c-1.2,0.4-3.1,1-4.9,1.6c-1.9,0.6-4.3,1.4-6.2,2
			c-1.9,0.6-3.4,1.1-4.9,1.6c-1.6,0.5-3.6,1-4.4,1.2c-0.8,0.2,0.2-0.1-0.4,0.1c-0.6,0.2-1.9,0.6-3,0.9c-1.1,0.3-2.3,0.5-3.5,0.8
			c-1.2,0.3-2.7,0.5-3.9,0.7c-1.2,0.2-2.4,0.3-3.5,0.4c-1.1,0.1-1.8,0.2-3.2,0.2c-1.4,0-3.4-0.1-5-0.2s-3.1-0.4-4.4-0.6
			c-1.3-0.3-2.4-0.6-3.4-0.9c-1.1-0.4-2-0.8-2.9-1.2c-0.9-0.4-1.8-0.9-2.6-1.4c-0.8-0.5-1.8-1.1-2.4-1.5
			C139.6,27.3,139.3,26.6,138.9,26.7z"/>
		<path class="st2" d="M107.4,34.9c0.5-0.1,1-0.4,1.3-0.6c0.4-0.2,0.5-0.4,0.8-0.6c0.3-0.2,0.7-0.5,0.9-0.8c0.2-0.3,0.5-0.5,0.4-0.8
			c0-0.3-0.2-0.6-0.5-0.8c-0.3-0.2-0.9-0.3-1.2-0.5c-0.3-0.2-0.5-0.4-0.8-0.6c-0.2-0.2-0.5-0.5-0.6-0.8c-0.1-0.3-0.2-0.8-0.2-1.3
			c0-0.4,0-1,0.1-1.4c0.1-0.4,0.3-0.8,0.5-1c0.2-0.2,0.6-0.3,0.9-0.2c0.3,0.1,0.7,0.4,1,0.7s0.8,0.5,1.1,0.7c0.3,0.2,1,0.6,0.8,0.4
			c-0.1-0.2-1.1-1.1-1.6-1.6s-1-1-1.5-1.4c-0.5-0.4-0.9-0.7-1.2-1.1c-0.3-0.4-0.7-1-0.7-1.4c0-0.4,0.3-0.8,0.7-1.1s1.4-0.4,2-0.5
			c0.6-0.1,1.1-0.1,1.6-0.1c0.5,0,1,0.1,1.5,0.3c0.4,0.2,0.9,0.3,1.2,0.7s0.4,0.9,0.6,1.4c0.2,0.4,0.4,0.9,0.5,1.3
			c0.1,0.4,0.1,0.7,0.1,1s-0.1,0.8,0,1c0.1,0.3,0.4,0.7,0.5,0.6s0.2-1.1,0.2-1.4c0-0.4,0-0.6-0.1-0.9c-0.1-0.3-0.6-0.9-0.4-0.9
			c0.2,0,1.2,0.7,1.6,1c0.4,0.3,0.8,0.5,1,0.9c0.2,0.4,0.3,1.1,0.4,1.5c0.1,0.4,0.2,0.7,0.1,1.1s-0.3,1.2-0.5,1.6
			c-0.2,0.4-0.4,0.7-0.7,1c-0.3,0.4-0.6,0.8-1,1.1s-1,0.7-1.5,1c-0.5,0.3-1.2,0.6-1.6,0.9c-0.5,0.3-0.7,0.5-1.2,0.7
			c-0.6,0.2-2,0.6-2.1,0.6s0.9-0.7,1.4-1c0.5-0.4,1.1-0.8,1.5-1.2c0.4-0.4,0.7-0.8,1-1.2c0.3-0.4,0.5-0.8,0.7-1.3
			c0.2-0.4,0.4-0.8,0.5-1.4c0-0.6-0.1-1.6-0.2-2.2c-0.1-0.6-0.4-1.1-0.6-1.5c-0.2-0.4-0.4-0.7-0.7-1c-0.3-0.3-0.8-0.7-1.3-1
			c-0.5-0.4-1.7-1.1-1.7-1.1c0,0.1,1.2,1,1.6,1.4c0.4,0.4,0.6,0.6,0.9,1c0.2,0.4,0.4,0.8,0.6,1.3c0.2,0.5,0.4,0.9,0.5,1.4
			s0.1,1,0.1,1.5c-0.1,0.5-0.2,1.2-0.4,1.8c-0.2,0.5-0.6,1-0.9,1.4c-0.3,0.4-0.5,0.8-1,1.3s-1.4,1.1-1.7,1.4s-1,0.7-0.4,0.6
			c0.5,0,2.6-0.6,3.7-0.9c1.1-0.3,1.8-0.5,2.8-0.9c0.9-0.3,1.9-0.7,2.9-1.1c1-0.4,2.2-1,3.2-1.5c1-0.5,1.9-1,2.9-1.5
			c1-0.6,2.2-1.2,3.3-1.8c1.1-0.7,2.3-1.4,3.3-2.1c1.1-0.7,2.1-1.3,3.1-1.9c1-0.6,1.8-1,2.8-1.6c1-0.6,1.8-1.1,3-1.8s3-1.7,4.2-2.2
			c1.2-0.6,2-0.9,3-1.3c1-0.4,1.9-0.8,3-1.2c1.1-0.4,2.5-0.7,3.6-1s1.8-0.4,2.9-0.5c1.1-0.1,2.5-0.2,3.6-0.2c1.1,0,1.8,0.1,2.9,0.2
			c1.1,0.1,2.8,0.4,3.8,0.6c1,0.2,1.5,0.3,2.2,0.6c0.8,0.3,1.6,0.7,2.4,1c0.8,0.4,1.8,0.8,2.6,1.2s1.2,0.7,1.8,1.1
			c0.5,0.3,0.8,0.5,1.4,0.9s1.8,1.1,2.4,1.5c0.6,0.4,0.7,0.7,1.1,1.1c0.4,0.4,0.8,1,1,1.6s0.4,1.1,0.5,1.6c0.1,0.5,0.2,1.5,0.2,1.4
			s0.1-1.4,0.1-2s-0.1-1.1-0.3-1.6s-0.4-0.8-0.6-1.2c-0.3-0.4-0.6-0.8-1-1.1c-0.4-0.3-0.9-0.6-1.2-0.8c-0.4-0.2-0.5-0.3-0.9-0.4
			c-0.4-0.2-1.3-0.5-1.7-0.7c-0.4-0.2-0.9-0.2-1-0.5c0-0.2,0.5-0.6,0.8-0.9c0.3-0.3,0.7-0.5,1.1-0.7c0.4-0.2,1-0.3,1.6-0.4
			c0.6,0,1.4,0,2,0.1c0.6,0.1,1.2,0.2,1.7,0.4c0.5,0.2,0.8,0.4,1.2,0.6c0.4,0.3,0.8,0.8,1,1.1c0.2,0.3,0.2,0.5,0.1,0.8
			c-0.1,0.3-0.5,0.7-0.7,0.9c-0.2,0.2-0.4,0.3-0.7,0.3c-0.3,0-0.6-0.1-1-0.2c-0.4-0.2-1.4-0.9-1.3-0.8c0.1,0.1,1.5,1.1,2,1.5
			s0.7,0.8,1.1,1.2c0.4,0.5,0.8,1.2,1,1.7s0.3,0.9,0.4,1.4c0,0.5,0,0.9-0.2,1.4c-0.2,0.4-0.7,0.8-1.2,1.2c-0.5,0.3-1.1,0.6-1.6,0.7
			c-0.5,0.1-1.1,0.2-1.4,0.1c-0.4-0.1-0.6-0.2-0.8-0.5c-0.3-0.3-0.6-1-0.8-1.6c-0.2-0.5-0.2-1.2-0.4-1.7s-0.2-0.7-0.4-1.1
			c-0.2-0.3-0.7-1-0.7-0.9c0,0.1,0.6,1.2,0.6,1.6c0.1,0.5-0.1,0.8-0.3,1.1c-0.2,0.3-0.7,0.6-1.1,0.8c-0.4,0.1-1.1,0.2-1.5,0.1
			c-0.4-0.1-0.9-0.4-1.2-0.9c-0.3-0.5-0.5-1.4-0.6-2c-0.1-0.6-0.1-1.1,0-1.6c0.1-0.5,0.2-1,0.3-1.4c0.2-0.4,0.6-0.5,0.7-0.8
			c0.1-0.3,0.3-0.6,0-0.9s-0.9-0.6-1.5-0.9c-0.6-0.3-1.3-0.5-1.9-0.7c-0.6-0.2-1.1-0.4-1.8-0.6s-1.8-0.4-2.8-0.6
			c-0.9-0.2-1.9-0.3-2.9-0.4s-2-0.2-3-0.1c-1.1,0-2.2,0.1-3.4,0.3c-1.2,0.2-2.6,0.5-3.9,0.9c-1.3,0.4-2.7,0.8-3.9,1.3
			c-1.3,0.5-2.5,1.1-3.7,1.7c-1.2,0.6-2.2,1.1-3.5,1.7s-2.5,1.4-3.9,2.2c-1.4,0.8-2.9,1.8-4.3,2.7c-1.4,0.9-2.6,1.6-4,2.5
			c-1.5,0.9-3.2,1.9-4.7,2.8c-1.5,0.9-3.1,1.7-4.4,2.4c-1.3,0.7-2.5,1.2-3.6,1.6c-1.1,0.5-1.8,0.8-2.8,1.1c-1,0.3-2,0.6-3,0.8
			c-1,0.2-2.1,0.5-3.2,0.6s-2.1,0.2-3.3,0.2c-1.2,0-2.4-0.1-3.6-0.2c-1.2-0.1-2.5-0.4-3.5-0.6c-1-0.2-1.7-0.4-2.6-0.8
			c-0.9-0.4-2-0.9-2.9-1.3c-0.9-0.5-1.6-0.9-2.5-1.4s-1.9-1.2-2.7-1.8c-0.8-0.6-1.3-1-2.1-1.6c-0.8-0.6-2.3-1.6-2.6-2
			c-0.3-0.5,0.3-0.5,0.7-0.7c0.4-0.2,1.1-0.7,1.6-0.7s0.7,0.3,1.4,0.7c0.6,0.4,1.7,1.1,2.3,1.6c0.7,0.5,1.1,0.8,1.6,1.2
			c0.6,0.4,1.2,0.8,1.9,1.2c0.7,0.4,1.6,0.8,2.3,1.2s1.2,0.5,2,0.8c0.8,0.3,1.7,0.6,2.6,0.8c0.9,0.2,1.7,0.4,2.6,0.6
			c0.9,0.1,2,0.2,2.8,0.2C106.6,35.1,107,35,107.4,34.9z"/>
	</g>
</g>
</svg>
