<?xml version="1.0" encoding="utf-8"?>
<!-- Generator: Adobe Illustrator 21.1.0, SVG Export Plug-In . SVG Version: 6.00 Build 0)  -->
<svg version="1.1" id="Layer_1" xmlns="http://www.w3.org/2000/svg" xmlns:xlink="http://www.w3.org/1999/xlink" x="0px" y="0px"
	 viewBox="0 0 25 25" style="enable-background:new 0 0 25 25;" xml:space="preserve">
<style type="text/css">
	.st0{fill:url(#SVGID_1_);}
	.st1{fill:url(#SVGID_2_);}
	.st2{fill:url(#SVGID_3_);}
	.st3{fill:url(#SVGID_4_);}
	.st4{fill:url(#SVGID_5_);}
	.st5{fill:url(#SVGID_6_);}
	.st6{fill:url(#SVGID_7_);}
	.st7{fill:url(#SVGID_8_);}
	.st8{fill:url(#SVGID_9_);}
	.st9{fill:url(#SVGID_10_);}
	.st10{fill:url(#SVGID_11_);}
	.st11{fill:url(#SVGID_12_);}
	.st12{fill:url(#SVGID_13_);}
	.st13{fill:url(#SVGID_14_);}
	.st14{fill:url(#SVGID_15_);}
	.st15{fill:url(#SVGID_16_);}
	.st16{fill:url(#SVGID_17_);}
	.st17{fill:url(#SVGID_18_);}
	.st18{fill:url(#SVGID_19_);}
	.st19{fill:url(#SVGID_20_);}
	.st20{fill:url(#SVGID_21_);}
	.st21{fill:url(#SVGID_22_);}
	.st22{fill:url(#SVGID_23_);}
	.st23{fill:url(#SVGID_24_);}
	.st24{fill:url(#SVGID_25_);}
	.st25{fill:url(#SVGID_26_);}
	.st26{fill:url(#SVGID_27_);}
	.st27{fill:url(#SVGID_28_);}
	.st28{fill:url(#SVGID_29_);}
	.st29{fill:url(#SVGID_30_);}
	.st30{fill:url(#SVGID_31_);}
	.st31{fill:url(#SVGID_32_);}
	.st32{fill:url(#SVGID_33_);}
	.st33{fill:url(#SVGID_34_);}
	.st34{fill:url(#SVGID_35_);}
	.st35{fill:url(#SVGID_36_);}
	.st36{fill:url(#SVGID_37_);}
	.st37{fill:url(#SVGID_38_);}
	.st38{fill:url(#SVGID_39_);}
	.st39{fill:url(#SVGID_40_);}
	.st40{fill:url(#SVGID_41_);}
	.st41{fill:url(#SVGID_42_);}
	.st42{fill:url(#SVGID_43_);}
	.st43{fill:url(#SVGID_44_);}
	.st44{fill:url(#SVGID_45_);}
	.st45{fill:url(#SVGID_46_);}
	.st46{fill:url(#SVGID_47_);}
	.st47{fill:url(#SVGID_48_);}
	.st48{fill:url(#SVGID_49_);}
	.st49{fill:url(#SVGID_50_);}
	.st50{fill:url(#SVGID_51_);}
	.st51{fill:url(#SVGID_52_);}
	.st52{fill:url(#SVGID_53_);}
	.st53{fill:url(#SVGID_54_);}
	.st54{fill:url(#SVGID_55_);}
	.st55{fill:url(#SVGID_56_);}
	.st56{fill:url(#SVGID_57_);}
	.st57{fill:url(#SVGID_58_);}
	.st58{fill:url(#SVGID_59_);}
	.st59{fill:url(#SVGID_60_);}
	.st60{fill:url(#SVGID_61_);}
	.st61{fill:url(#SVGID_62_);}
	.st62{fill:url(#SVGID_63_);}
	.st63{fill:url(#SVGID_64_);}
	.st64{fill:url(#SVGID_65_);}
	.st65{fill:url(#SVGID_66_);}
	.st66{fill:url(#SVGID_67_);}
	.st67{fill:url(#SVGID_68_);}
	.st68{fill:url(#SVGID_69_);}
	.st69{fill:url(#SVGID_70_);}
	.st70{fill:url(#SVGID_71_);}
	.st71{fill:url(#SVGID_72_);}
	.st72{fill:url(#SVGID_73_);}
	.st73{fill:url(#SVGID_74_);}
	.st74{fill:url(#SVGID_75_);}
	.st75{fill:url(#SVGID_76_);}
	.st76{fill:url(#SVGID_77_);}
	.st77{fill:url(#SVGID_78_);}
	.st78{fill:url(#SVGID_79_);}
	.st79{fill:url(#SVGID_80_);}
	.st80{fill:url(#SVGID_81_);}
	.st81{fill:url(#SVGID_82_);}
	.st82{fill:url(#SVGID_83_);}
	.st83{fill:url(#SVGID_84_);}
	.st84{fill:url(#SVGID_85_);}
	.st85{fill:url(#SVGID_86_);}
	.st86{fill:url(#SVGID_87_);}
	.st87{fill:url(#SVGID_88_);}
	.st88{fill:url(#SVGID_89_);}
	.st89{fill:url(#SVGID_90_);}
	.st90{fill:url(#SVGID_91_);}
	.st91{fill:url(#SVGID_92_);}
	.st92{fill:url(#SVGID_93_);}
	.st93{fill:url(#SVGID_94_);}
	.st94{fill:url(#SVGID_95_);}
	.st95{fill:url(#SVGID_96_);}
	.st96{fill:url(#SVGID_97_);}
	.st97{fill:url(#SVGID_98_);}
	.st98{fill:url(#SVGID_99_);}
	.st99{fill:url(#SVGID_100_);}
	.st100{fill:url(#SVGID_101_);}
	.st101{fill:url(#SVGID_102_);}
	.st102{fill:url(#SVGID_103_);}
	.st103{fill:url(#SVGID_104_);}
	.st104{fill:url(#SVGID_105_);}
	.st105{fill:url(#SVGID_106_);}
	.st106{fill:url(#SVGID_107_);}
	.st107{fill:url(#SVGID_108_);}
	.st108{fill:url(#SVGID_109_);}
	.st109{fill:url(#SVGID_110_);}
	.st110{fill:url(#SVGID_111_);}
	.st111{fill:url(#SVGID_112_);}
	.st112{fill:url(#SVGID_113_);}
	.st113{fill:url(#SVGID_114_);}
	.st114{fill:url(#SVGID_115_);}
	.st115{fill:url(#SVGID_116_);}
	.st116{fill:url(#SVGID_117_);}
	.st117{fill:url(#SVGID_118_);}
	.st118{fill:url(#SVGID_119_);}
	.st119{fill:url(#SVGID_120_);}
	.st120{fill:url(#SVGID_121_);}
</style>
<g>
	<linearGradient id="SVGID_1_" gradientUnits="userSpaceOnUse" x1="1.562546e-03" y1="12.4989" x2="25.0118" y2="12.4989">
		<stop  offset="0" style="stop-color:#FFB449"/>
		<stop  offset="1" style="stop-color:#94304F"/>
	</linearGradient>
	<path class="st0" d="M14.4,0C14.4,0,14.4,0,14.4,0c0.1,0.3,0.3,0.6,0.6,0.6c0.3,0,0.6-0.2,0.6-0.6c0,0,0.1,0,0.1,0
		c0,0.1,0,0.2,0,0.2c0.1,0.8,0.8,1.5,1.5,1.6c0.3,0,0.7,0,0.9,0.4c0.2-0.9,0.7-1.4,1.6-1.6c-0.3-0.3-0.3-0.3-0.3-0.6
		c0,0,0.1,0,0.1,0c0,0.3,0.3,0.6,0.6,0.6c0.3,0,0.6-0.2,0.6-0.6c0,0,0.1,0,0.1,0c0,0.1,0,0.2,0,0.2c0.1,0.8,0.7,1.5,1.5,1.6
		c0.3,0,0.7,0,0.9,0.4c0.2-0.9,0.7-1.4,1.6-1.6c-0.3-0.1-0.3-0.4-0.4-0.6c0,0,0.1,0,0.1,0c0,0.3,0.2,0.6,0.6,0.6c0,0,0,0.1,0,0.1
		c-0.1,0-0.1,0-0.2,0c-0.9,0.1-1.6,0.8-1.7,1.7c0,0.3-0.1,0.6-0.4,0.7c0.9,0.2,1.4,0.7,1.6,1.6c0.2-0.2,0.3-0.4,0.6-0.3
		c0,0,0,0.1,0,0.1c-0.3,0-0.6,0.3-0.6,0.6c0,0.3,0.2,0.6,0.6,0.6c0,0,0,0.1,0,0.1c-0.1,0-0.2,0-0.2,0c-0.8,0.1-1.5,0.8-1.6,1.6
		c0,0.3,0,0.6-0.4,0.8c0.9,0.2,1.4,0.7,1.6,1.6c0.3-0.3,0.4-0.3,0.6-0.3c0,0,0,0.1,0,0.1c-0.3,0-0.6,0.2-0.6,0.6
		c0,0.3,0.2,0.6,0.6,0.6c0,0,0,0.1,0,0.1c-0.1,0-0.2,0-0.2,0c-0.8,0.1-1.5,0.8-1.6,1.6c0,0.3,0,0.6-0.4,0.8c0.9,0.2,1.4,0.7,1.6,1.6
		c0.3-0.3,0.4-0.3,0.6-0.3c0,0,0,0.1,0,0.1c-0.3,0-0.6,0.2-0.6,0.6c0,0.3,0.2,0.6,0.6,0.6c0,0,0,0.1,0,0.1c-0.1,0-0.2,0-0.2,0
		c-0.8,0.1-1.5,0.8-1.6,1.5c0,0.3,0,0.7-0.4,0.9c0.4,0.1,0.8,0.3,1.1,0.5c0.3,0.3,0.4,0.6,0.5,1c0.2-0.2,0.3-0.4,0.6-0.3
		c0,0,0,0.1,0,0.1c-0.3,0-0.6,0.2-0.6,0.6c0,0.3,0.2,0.6,0.6,0.6c0,0,0,0.1,0,0.1c-0.1,0-0.2,0-0.3,0c-0.8,0.1-1.5,0.8-1.5,1.5
		c0,0.3,0,0.7-0.4,0.9c0.9,0.2,1.4,0.7,1.6,1.6c0.3-0.3,0.4-0.3,0.6-0.3c0,0,0,0.1,0,0.1c-0.4,0-0.5,0.3-0.6,0.6
		c0-0.1,0-0.1-0.1-0.2c-0.1-0.8-0.8-1.5-1.6-1.6c-0.3,0-0.6,0-0.8-0.4c-0.1,0.4-0.3,0.8-0.5,1.1c-0.3,0.3-0.6,0.4-1,0.5
		c0.2,0.2,0.3,0.3,0.3,0.6c-0.1-0.3-0.2-0.5-0.6-0.6c-0.4,0-0.6,0.2-0.7,0.6c0-0.1,0-0.1-0.1-0.2c-0.1-0.9-0.8-1.6-1.7-1.7
		c-0.3,0-0.6-0.1-0.7-0.4c-0.1,0.4-0.3,0.8-0.5,1c-0.3,0.3-0.6,0.5-1,0.5c0.3,0.3,0.3,0.4,0.3,0.6c-0.1-0.4-0.2-0.6-0.6-0.6
		c-0.4,0-0.5,0.3-0.6,0.6c0-0.1,0-0.1-0.1-0.2c-0.1-0.8-0.8-1.5-1.6-1.6c-0.3,0-0.7,0-0.9-0.4c-0.2,0.9-0.7,1.4-1.6,1.6
		c0.3,0.3,0.3,0.4,0.3,0.6c-0.1-0.4-0.2-0.6-0.6-0.6c-0.4,0-0.5,0.2-0.6,0.6c0-0.1,0-0.1-0.1-0.2c-0.1-0.9-0.8-1.6-1.6-1.6
		c-0.3,0-0.6,0-0.8-0.4c-0.1,0.4-0.3,0.8-0.5,1.1c-0.3,0.3-0.6,0.4-1,0.5c0.2,0.2,0.3,0.3,0.3,0.6c-0.1-0.3-0.3-0.5-0.6-0.6
		c-0.4,0-0.6,0.2-0.7,0.6c0-0.1,0-0.1-0.1-0.2c-0.1-0.9-0.8-1.6-1.7-1.7c-0.3,0-0.6-0.1-0.8-0.4c-0.2,0.9-0.7,1.4-1.6,1.6
		c0.3,0.3,0.3,0.4,0.3,0.6c-0.1-0.3-0.2-0.6-0.6-0.6c0,0,0-0.1,0-0.1c0.8,0.1,1.7-0.7,1.8-1.6c0-0.3,0-0.6,0.4-0.8
		c-0.9-0.2-1.4-0.7-1.6-1.6c-0.3,0.3-0.3,0.3-0.6,0.3c0,0,0-0.1,0-0.1c0.4,0,0.6-0.3,0.6-0.6c0-0.3-0.3-0.6-0.6-0.6c0,0,0-0.1,0-0.1
		c0.8,0.1,1.7-0.7,1.8-1.6c0-0.3,0-0.6,0.4-0.8c-0.9-0.2-1.4-0.7-1.6-1.6c-0.2,0.2-0.3,0.4-0.6,0.3c0,0,0-0.1,0-0.1
		c0.4,0,0.6-0.3,0.6-0.6c0-0.3-0.2-0.5-0.6-0.6c0,0,0-0.1,0-0.1c0.8,0.1,1.7-0.7,1.8-1.6c0-0.3,0-0.6,0.4-0.8
		c-0.9-0.2-1.4-0.7-1.6-1.6c-0.2,0.2-0.3,0.4-0.6,0.3c0,0,0-0.1,0-0.1c0.4,0,0.6-0.3,0.6-0.6c0-0.3-0.2-0.5-0.6-0.6c0,0,0-0.1,0-0.1
		c0.1,0,0.2,0,0.2,0C1,9.2,1.7,8.5,1.8,7.7c0-0.3,0-0.6,0.4-0.8C1.3,6.7,0.8,6.2,0.6,5.3C0.4,5.5,0.3,5.7,0,5.6c0,0,0-0.1,0-0.1
		c0.3,0,0.6-0.3,0.6-0.6c0-0.3-0.2-0.5-0.6-0.6c0,0,0-0.1,0-0.1c0.1,0,0.2,0,0.2,0C1,4.2,1.7,3.5,1.8,2.7c0-0.3,0-0.6,0.4-0.8
		C1.3,1.7,0.8,1.2,0.6,0.3C0.4,0.5,0.3,0.7,0,0.7c0,0,0-0.1,0-0.1c0.4,0,0.6-0.2,0.6-0.6c0,0,0.1,0,0.1,0c0,0.1,0,0.2,0,0.2
		C0.8,1,1.5,1.7,2.3,1.8c0.3,0,0.6,0,0.8,0.4c0.1-0.4,0.3-0.8,0.5-1.1c0.3-0.3,0.6-0.4,1-0.5C4.4,0.3,4.3,0.2,4.3,0c0,0,0.1,0,0.1,0
		c0,0.3,0.3,0.6,0.6,0.6c0.3,0,0.6-0.2,0.6-0.6c0,0,0.1,0,0.1,0c0,0.1,0,0.2,0,0.2C5.8,1,6.5,1.7,7.2,1.8c0.3,0,0.7,0,0.9,0.4
		c0.2-0.9,0.7-1.4,1.6-1.6C9.5,0.4,9.3,0.3,9.4,0c0,0,0.1,0,0.1,0c0,0.3,0.3,0.6,0.6,0.6c0.3,0,0.6-0.2,0.6-0.6c0,0,0.1,0,0.1,0
		c0,0.1,0,0.2,0,0.2c0.1,0.8,0.8,1.5,1.5,1.6c0.3,0,0.7,0,0.9,0.4c0.2-0.9,0.7-1.4,1.6-1.6C14.4,0.3,14.3,0.2,14.4,0z M20.6,5.3
		c-0.3,0.3-0.3,0.3-0.8,0.3c-0.8,0.1-1.5,0.7-1.6,1.5c0,0.3,0,0.7-0.4,0.9c0.9,0.2,1.4,0.7,1.6,1.6c0.2-0.3,0.5-0.4,0.8-0.4
		c0.8-0.1,1.6-0.8,1.6-1.6c0-0.3,0-0.6,0.4-0.8C21.3,6.6,20.8,6.2,20.6,5.3z M19.7,20.6c-0.3-0.2-0.4-0.5-0.4-0.8
		c-0.1-0.9-0.8-1.6-1.6-1.6c-0.3,0-0.6,0-0.8-0.4c-0.1,0.4-0.3,0.8-0.5,1.1c-0.3,0.3-0.6,0.4-1,0.5c0.3,0.3,0.3,0.3,0.3,0.8
		c0.1,0.9,0.8,1.6,1.7,1.6c0.3,0,0.6,0.1,0.7,0.4C18.3,21.3,18.8,20.8,19.7,20.6z M15.6,5.3c-0.2,0.3-0.5,0.4-0.8,0.4
		c-0.8,0.1-1.5,0.7-1.6,1.5c0,0.3,0,0.7-0.4,0.9c0.9,0.2,1.4,0.7,1.6,1.6c0.2-0.3,0.5-0.3,0.8-0.4c0.8-0.1,1.6-0.8,1.6-1.6
		c0-0.3,0-0.6,0.4-0.8C16.3,6.7,15.8,6.2,15.6,5.3z M15.6,10.3c-0.3,0.3-0.3,0.3-0.8,0.3c-0.8,0.1-1.5,0.8-1.6,1.5
		c0,0.3,0,0.7-0.4,0.9c0.4,0.1,0.8,0.3,1.1,0.5c0.3,0.3,0.4,0.6,0.5,1c0.2-0.3,0.5-0.4,0.8-0.4c0.9-0.1,1.6-0.8,1.6-1.6
		c0-0.3,0.1-0.6,0.4-0.8C16.3,11.7,15.8,11.2,15.6,10.3z M5.6,20.3c-0.3,0.3-0.3,0.3-0.6,0.3c-0.1,0-0.2,0-0.2,0
		c-0.8,0.1-1.5,0.8-1.6,1.6c0,0.3,0,0.6-0.4,0.8c0.9,0.2,1.4,0.7,1.6,1.6c0.3-0.3,0.3-0.3,0.8-0.3c0.9-0.1,1.6-0.8,1.7-1.7
		c0-0.3,0.1-0.6,0.4-0.8C6.3,21.7,5.8,21.1,5.6,20.3z M21.9,2.8c-0.2,0.9-0.7,1.4-1.6,1.6c0.4,0.2,0.4,0.5,0.4,0.8
		c0.1,0.8,0.8,1.5,1.6,1.6c0.3,0,0.6,0,0.8,0.4c0.1-0.4,0.3-0.8,0.5-1.1c0.3-0.3,0.6-0.4,1-0.5c-0.3-0.2-0.3-0.4-0.4-0.7
		c-0.1-1-0.8-1.7-1.7-1.7C22.3,3.2,22.1,3.1,21.9,2.8z M9.4,19.6c0.3-0.3,0.3-0.3,0.8-0.3c0.8-0.1,1.6-0.8,1.6-1.6
		c0-0.3,0-0.6,0.4-0.8c-0.9-0.2-1.4-0.7-1.6-1.6c-0.2,0.3-0.5,0.3-0.8,0.4c-0.8,0.1-1.5,0.7-1.6,1.5c0,0.3,0,0.7-0.4,0.9
		C8.7,18.3,9.2,18.8,9.4,19.6z M19.7,15.6c-0.3-0.2-0.4-0.5-0.4-0.7c-0.1-0.8-0.7-1.6-1.5-1.7c-0.3,0-0.7,0-0.9-0.4
		c-0.3,0.9-0.6,1.3-1.6,1.6c0.3,0.2,0.3,0.5,0.4,0.8c0.1,0.8,0.8,1.5,1.6,1.6c0.3,0,0.6,0,0.8,0.4C18.3,16.3,18.8,15.8,19.7,15.6z
		 M14.4,4.7c0.2-0.3,0.5-0.3,0.8-0.4c0.8-0.1,1.5-0.7,1.6-1.5c0-0.3,0-0.7,0.4-0.9c-0.9-0.2-1.4-0.7-1.6-1.6
		c-0.2,0.3-0.5,0.3-0.8,0.4c-0.9,0.1-1.6,0.8-1.7,1.6c0,0.3-0.1,0.6-0.4,0.8C13.7,3.3,14.2,3.8,14.4,4.7z M20.3,14.4
		c0.4,0.2,0.4,0.5,0.4,0.8c0.1,0.8,0.8,1.5,1.6,1.6c0.3,0,0.6,0,0.8,0.4c0.2-0.9,0.7-1.4,1.6-1.6c-0.3-0.2-0.3-0.4-0.4-0.7
		c-0.1-0.9-0.7-1.6-1.7-1.7c-0.3,0-0.6-0.1-0.7-0.4C21.7,13.7,21.2,14.2,20.3,14.4z M23.1,12.2c0.2-0.9,0.7-1.4,1.6-1.6
		c-0.3-0.2-0.3-0.4-0.4-0.7c-0.1-0.9-0.8-1.6-1.7-1.7c-0.3,0-0.6-0.1-0.8-0.4c-0.2,0.9-0.7,1.4-1.6,1.6c0.3,0.2,0.3,0.5,0.4,0.8
		c0.1,0.9,0.8,1.6,1.7,1.6C22.7,11.8,22.9,11.9,23.1,12.2z M15.3,4.4c0.3,0.2,0.3,0.5,0.4,0.8c0.1,0.8,0.8,1.5,1.6,1.6
		c0.3,0,0.6,0,0.8,0.4c0.1-0.4,0.3-0.8,0.5-1.1c0.3-0.3,0.6-0.5,1-0.5c-0.3-0.3-0.3-0.3-0.3-0.8c-0.1-0.8-0.7-1.5-1.6-1.6
		c-0.3,0-0.7,0-0.9-0.4C16.6,3.7,16.3,4.1,15.3,4.4z M19.4,19.6c0.2-0.3,0.5-0.4,0.8-0.4c0.9-0.1,1.6-0.8,1.6-1.6
		c0-0.3,0-0.6,0.4-0.8c-0.9-0.2-1.4-0.7-1.6-1.6c-0.3,0.3-0.3,0.3-0.6,0.3c-0.1,0-0.2,0-0.2,0c-0.8,0.1-1.5,0.8-1.5,1.6
		c0,0.3,0,0.6-0.4,0.8C18.7,18.3,19.2,18.8,19.4,19.6z M7.2,16.9c-0.4-0.1-0.8-0.3-1.1-0.5c-0.3-0.3-0.4-0.6-0.5-1
		c-0.2,0.3-0.5,0.4-0.8,0.4c-0.9,0.1-1.6,0.8-1.6,1.6c0,0.3,0,0.6-0.4,0.8c0.9,0.2,1.4,0.7,1.6,1.6c0.3-0.3,0.3-0.3,0.7-0.3
		c0.9-0.1,1.6-0.8,1.7-1.7C6.8,17.3,6.9,17.1,7.2,16.9z M6.9,12.8c-0.2,0.9-0.7,1.4-1.6,1.6c0.3,0.2,0.3,0.5,0.4,0.8
		c0.1,0.9,0.8,1.6,1.7,1.6c0.3,0,0.6,0.1,0.8,0.4c0.2-0.9,0.7-1.4,1.6-1.6c-0.3-0.2-0.3-0.4-0.4-0.7c-0.1-1-0.7-1.7-1.7-1.7
		C7.3,13.1,7.1,13.1,6.9,12.8z M15.6,20.3c-0.3,0.3-0.3,0.3-0.8,0.3c-0.9,0.1-1.6,0.8-1.7,1.7c0,0.3-0.1,0.6-0.4,0.8
		c0.9,0.2,1.4,0.7,1.6,1.6c0.2-0.3,0.5-0.3,0.8-0.4c0.8-0.1,1.6-0.7,1.6-1.5c0-0.3,0-0.7,0.4-0.9C16.3,21.7,15.8,21.1,15.6,20.3z
		 M21.9,17.8c-0.4,1-0.6,1.2-1.6,1.6c0.3,0.2,0.3,0.5,0.4,0.8c0.1,0.8,0.8,1.5,1.6,1.6c0.3,0,0.6,0,0.8,0.4c0.2-0.9,0.7-1.4,1.6-1.6
		c-0.3-0.2-0.3-0.4-0.4-0.7c-0.1-0.9-0.7-1.6-1.7-1.7C22.4,18.1,22.1,18.1,21.9,17.8z M17.8,13.1c0.9,0.2,1.4,0.7,1.6,1.6
		c0.2-0.3,0.5-0.3,0.7-0.4c0.9-0.1,1.6-0.8,1.7-1.7c0-0.3,0.1-0.6,0.4-0.8c-0.4-0.1-0.8-0.3-1-0.5c-0.3-0.3-0.5-0.6-0.5-1
		c-0.3,0.3-0.3,0.3-0.7,0.3c-0.9,0.1-1.6,0.8-1.7,1.7C18.2,12.6,18.1,12.9,17.8,13.1z M4.7,15.6c-0.3-0.2-0.4-0.5-0.4-0.8
		c-0.1-0.8-0.8-1.6-1.6-1.6c-0.3,0-0.6,0-0.8-0.4c-0.2,0.9-0.7,1.4-1.6,1.6c0.3,0.2,0.3,0.5,0.4,0.8c0.1,0.9,0.8,1.6,1.6,1.6
		c0.3,0,0.6,0.1,0.8,0.4C3.3,16.3,3.8,15.8,4.7,15.6z M9.4,24.6c0.2-0.3,0.5-0.3,0.8-0.4c0.8-0.1,1.6-0.8,1.6-1.6
		c0-0.3,0-0.6,0.4-0.8c-0.9-0.2-1.4-0.7-1.6-1.6c-0.2,0.3-0.5,0.3-0.8,0.4c-0.9,0.1-1.6,0.8-1.6,1.6c0,0.3,0,0.6-0.4,0.8
		C8.7,23.3,9.2,23.8,9.4,24.6z M9.7,20.6c-0.3-0.3-0.3-0.3-0.3-0.8c-0.1-0.8-0.7-1.5-1.5-1.6c-0.3,0-0.7,0-0.9-0.4
		c-0.3,0.9-0.6,1.3-1.6,1.6c0.3,0.2,0.3,0.5,0.4,0.8c0.1,0.8,0.8,1.5,1.6,1.6c0.3,0,0.6,0,0.8,0.4C8.4,21.2,8.8,20.8,9.7,20.6z
		 M11.9,17.8c-0.2,0.9-0.7,1.4-1.6,1.6c0.3,0.2,0.3,0.5,0.4,0.8c0.1,0.8,0.8,1.5,1.6,1.6c0.3,0,0.6,0.1,0.8,0.4
		c0.2-0.9,0.7-1.4,1.6-1.6c-0.3-0.3-0.3-0.3-0.3-0.7c-0.1-1-0.8-1.7-1.7-1.7C12.3,18.1,12.1,18.1,11.9,17.8z M9.4,9.6
		c0.3-0.3,0.3-0.3,0.8-0.3c0.8-0.1,1.5-0.8,1.6-1.5c0-0.3,0-0.7,0.4-0.9c-0.4-0.1-0.8-0.3-1.1-0.5c-0.3-0.3-0.4-0.6-0.5-1
		c-0.2,0.3-0.5,0.4-0.8,0.4C9,5.7,8.3,6.4,8.2,7.3c0,0.3,0,0.6-0.4,0.8C8.7,8.3,9.2,8.8,9.4,9.6z M15.3,9.4c0.2,0.2,0.3,0.4,0.3,0.6
		c0,0.1,0,0.2,0,0.2c0.1,0.8,0.8,1.5,1.5,1.6c0.3,0,0.7,0,0.9,0.4c0.1-0.4,0.3-0.8,0.5-1.1c0.3-0.3,0.6-0.4,1-0.5
		c-0.3-0.2-0.4-0.5-0.4-0.8c-0.1-0.8-0.8-1.6-1.6-1.6c-0.3,0-0.6,0-0.8-0.4C16.6,8.8,16.2,9.1,15.3,9.4z M14.7,5.6
		c-0.3-0.2-0.3-0.4-0.4-0.7c-0.1-0.9-0.8-1.6-1.7-1.7c-0.3,0-0.6-0.1-0.7-0.4c-0.2,0.9-0.7,1.4-1.6,1.6c0.3,0.3,0.3,0.3,0.3,0.6
		c0,0.1,0,0.2,0,0.2c0.1,0.8,0.8,1.5,1.5,1.6c0.3,0,0.7,0,0.9,0.4C13.3,6.3,13.8,5.8,14.7,5.6z M0.4,19.4c0.3,0.3,0.3,0.3,0.3,0.8
		c0.1,0.8,0.8,1.6,1.6,1.6c0.3,0,0.6,0,0.8,0.4c0.1-0.4,0.3-0.8,0.5-1c0.3-0.3,0.6-0.5,1.1-0.5c-0.3-0.2-0.4-0.5-0.4-0.8
		c-0.1-0.8-0.7-1.5-1.5-1.6c-0.3,0-0.7,0-0.9-0.4C1.7,18.7,1.3,19.1,0.4,19.4z M12.8,18.1c0.9,0.2,1.4,0.7,1.6,1.6
		c0.2-0.3,0.4-0.3,0.7-0.4c0.9-0.1,1.6-0.8,1.7-1.7c0-0.3,0.1-0.6,0.4-0.8c-0.9-0.2-1.4-0.7-1.6-1.6c-0.2,0.3-0.4,0.3-0.7,0.4
		c-0.9,0.1-1.6,0.8-1.7,1.7C13.2,17.6,13.1,17.9,12.8,18.1z M7.2,6.9C6.3,6.7,5.8,6.2,5.6,5.3C5.3,5.6,5.3,5.6,4.8,5.7
		C4,5.7,3.3,6.4,3.2,7.2c0,0.3,0,0.7-0.4,0.9c0.9,0.2,1.4,0.7,1.6,1.6c0.3-0.3,0.3-0.3,0.7-0.3c1-0.1,1.7-0.8,1.7-1.7
		C6.8,7.3,6.9,7.1,7.2,6.9z M4.4,14.7c0.2-0.3,0.5-0.4,0.8-0.4c0.9-0.1,1.6-0.8,1.6-1.6c0-0.3,0.1-0.6,0.4-0.8
		c-1-0.3-1.2-0.6-1.6-1.6c-0.2,0.3-0.5,0.3-0.8,0.4c-0.8,0.1-1.5,0.8-1.6,1.6c0,0.3,0,0.6-0.4,0.8C3.7,13.3,4.2,13.8,4.4,14.7z
		 M5.6,0.3C5.4,0.6,5.1,0.7,4.8,0.7C4,0.8,3.3,1.5,3.2,2.3c0,0.3,0,0.6-0.4,0.8c0.9,0.2,1.4,0.7,1.6,1.6c0.3-0.3,0.3-0.3,0.8-0.3
		C6,4.2,6.7,3.6,6.8,2.8c0-0.3,0-0.7,0.4-0.9C6.3,1.7,5.9,1.3,5.6,0.3z M12.2,1.9c-1-0.3-1.2-0.6-1.6-1.6c-0.2,0.3-0.5,0.3-0.8,0.4
		C9,0.7,8.3,1.4,8.2,2.2c0,0.3,0,0.6-0.4,0.8c0.4,0.1,0.8,0.3,1.1,0.5c0.3,0.3,0.4,0.6,0.5,1c0.2-0.3,0.5-0.4,0.8-0.4
		c0.9-0.1,1.6-0.8,1.6-1.6C11.8,2.4,11.9,2.1,12.2,1.9z M19.4,4.6c0.3-0.3,0.3-0.3,0.8-0.3c0.8-0.1,1.5-0.8,1.6-1.6
		c0-0.3,0-0.6,0.4-0.8c-0.9-0.2-1.4-0.7-1.6-1.6c-0.2,0.3-0.4,0.3-0.7,0.4c-0.9,0.1-1.6,0.7-1.7,1.7c0,0.3-0.1,0.6-0.4,0.7
		C18.7,3.3,19.2,3.8,19.4,4.6z M22.2,21.9c-0.9-0.2-1.4-0.7-1.6-1.6c-0.2,0.3-0.5,0.3-0.8,0.4c-0.9,0.1-1.6,0.8-1.6,1.6
		c0,0.3-0.1,0.6-0.4,0.8c0.9,0.2,1.4,0.7,1.6,1.6c0.2-0.3,0.5-0.3,0.7-0.4c0.9-0.1,1.6-0.8,1.7-1.7C21.8,22.3,21.9,22,22.2,21.9z
		 M9.4,14.7c0.2-0.4,0.5-0.3,0.8-0.4c0.8-0.1,1.5-0.8,1.6-1.6c0-0.3,0-0.6,0.4-0.8c-0.9-0.2-1.4-0.7-1.6-1.6
		c-0.2,0.3-0.5,0.4-0.8,0.4c-0.8,0.1-1.5,0.8-1.6,1.6c0,0.3,0,0.6-0.4,0.8C8.7,13.3,9.1,13.7,9.4,14.7z M5.3,9.4
		c0.3,0.2,0.4,0.5,0.4,0.8c0.1,0.8,0.8,1.5,1.6,1.6c0.3,0,0.6,0,0.8,0.4c0.2-0.9,0.7-1.4,1.6-1.6c-0.3-0.3-0.3-0.3-0.3-0.8
		C9.2,9,8.6,8.3,7.8,8.2c-0.3,0-0.7,0-0.9-0.4C6.7,8.7,6.2,9.2,5.3,9.4z M10.3,14.4c0.2,0.2,0.3,0.4,0.3,0.6c0,0.1,0,0.2,0,0.2
		c0.1,0.8,0.8,1.5,1.6,1.5c0.3,0,0.6,0,0.8,0.4c0.1-0.4,0.3-0.8,0.5-1.1c0.3-0.3,0.6-0.4,1-0.5c-0.3-0.2-0.3-0.4-0.4-0.7
		c-0.1-0.9-0.7-1.6-1.7-1.7c-0.3,0-0.6-0.1-0.8-0.4C11.7,13.7,11.2,14.2,10.3,14.4z M14.7,10.6c-0.3-0.2-0.4-0.5-0.4-0.8
		c-0.1-0.8-0.7-1.5-1.5-1.6c-0.3,0-0.7,0-0.9-0.4c-0.2,0.9-0.7,1.4-1.6,1.6c0.3,0.2,0.4,0.5,0.4,0.8c0.1,0.8,0.8,1.5,1.6,1.6
		c0.3,0,0.6,0,0.8,0.4C13.3,11.3,13.8,10.8,14.7,10.6z M6.9,2.8C6.7,3.7,6.2,4.2,5.3,4.4c0.3,0.2,0.4,0.5,0.4,0.8
		C5.8,6,6.4,6.7,7.2,6.8c0.3,0,0.7,0,0.9,0.4c0.2-0.9,0.7-1.4,1.6-1.6C9.4,5.4,9.3,5.1,9.3,4.8C9.3,4,8.5,3.2,7.7,3.2
		C7.4,3.2,7.1,3.1,6.9,2.8z M3.1,12.2c0.2-0.9,0.7-1.4,1.6-1.6c-0.3-0.3-0.3-0.3-0.3-0.8C4.2,9,3.5,8.2,2.7,8.2
		c-0.3,0-0.6,0-0.8-0.4C1.7,8.7,1.2,9.2,0.3,9.4c0.3,0.3,0.3,0.3,0.3,0.8c0.1,0.9,0.8,1.6,1.7,1.7C2.7,11.8,2.9,11.9,3.1,12.2z
		 M4.7,5.6C4.4,5.3,4.4,5.3,4.3,4.8C4.2,4,3.6,3.3,2.8,3.2c-0.3,0-0.7,0-0.9-0.4C1.7,3.7,1.3,4.1,0.4,4.4c0.3,0.3,0.3,0.3,0.3,0.8
		C0.8,6,1.5,6.7,2.3,6.8c0.3,0,0.6,0,0.8,0.4C3.3,6.3,3.8,5.8,4.7,5.6z M10,10.6c0.3,0,0.6-0.3,0.6-0.6c0-0.3-0.3-0.6-0.6-0.6
		c-0.3,0-0.6,0.3-0.6,0.6C9.4,10.3,9.7,10.6,10,10.6z M17.5,8.1c0.3,0,0.6-0.3,0.6-0.6c0-0.3-0.3-0.6-0.6-0.6
		c-0.3,0-0.6,0.3-0.6,0.6C16.9,7.8,17.2,8.1,17.5,8.1z M2.5,13.1c0.3,0,0.6-0.3,0.6-0.6c0-0.3-0.3-0.6-0.6-0.6
		c-0.3,0-0.6,0.3-0.6,0.6C1.9,12.8,2.2,13.1,2.5,13.1z M8.1,12.5c0-0.3-0.3-0.6-0.6-0.6c-0.3,0-0.6,0.3-0.6,0.6
		c0,0.3,0.3,0.6,0.6,0.6C7.8,13.1,8.1,12.8,8.1,12.5z M11.9,12.4c0,0.3,0.2,0.6,0.6,0.6c0.3,0,0.6-0.2,0.6-0.6
		c0-0.3-0.2-0.6-0.6-0.6C12.2,11.9,11.9,12.1,11.9,12.4z M18.1,12.5c0-0.3-0.3-0.6-0.6-0.6c-0.3,0-0.6,0.3-0.6,0.6
		c0,0.3,0.3,0.6,0.6,0.6C17.8,13,18.1,12.8,18.1,12.5z M23.1,12.5c0-0.3-0.3-0.6-0.6-0.6c-0.3,0-0.6,0.3-0.6,0.6
		c0,0.3,0.3,0.6,0.6,0.6C22.8,13,23.1,12.8,23.1,12.5z M5,14.4c-0.3,0-0.6,0.2-0.6,0.6c0,0.3,0.3,0.6,0.6,0.6c0.3,0,0.6-0.3,0.6-0.6
		C5.6,14.7,5.3,14.4,5,14.4z M9.4,14.9c0,0.3,0.2,0.6,0.6,0.6c0.3,0,0.6-0.2,0.6-0.6c0-0.3-0.2-0.6-0.5-0.6
		C9.7,14.4,9.4,14.6,9.4,14.9z M15,14.4c-0.3,0-0.6,0.3-0.6,0.6c0,0.3,0.3,0.6,0.6,0.6c0.3,0,0.6-0.3,0.6-0.6
		C15.6,14.7,15.3,14.4,15,14.4z M3.1,17.5c0-0.3-0.2-0.6-0.6-0.6c-0.3,0-0.6,0.2-0.6,0.6c0,0.3,0.2,0.6,0.6,0.6
		C2.8,18.1,3.1,17.8,3.1,17.5z M8.1,17.5c0-0.3-0.3-0.6-0.6-0.6c-0.3,0-0.6,0.3-0.6,0.6c0,0.3,0.3,0.6,0.6,0.6
		C7.8,18,8.1,17.8,8.1,17.5z M12.5,16.9c-0.3,0-0.6,0.3-0.6,0.6c0,0.3,0.3,0.6,0.6,0.6c0.3,0,0.6-0.3,0.6-0.6
		C13.1,17.1,12.8,16.9,12.5,16.9z M22.5,16.9c-0.3,0-0.6,0.3-0.6,0.6c0,0.3,0.3,0.6,0.6,0.6c0.3,0,0.6-0.3,0.6-0.6
		C23.1,17.2,22.8,16.9,22.5,16.9z M20.6,20c0-0.3-0.3-0.6-0.6-0.6c-0.3,0-0.6,0.3-0.6,0.6c0,0.3,0.3,0.6,0.6,0.6
		C20.3,20.5,20.6,20.3,20.6,20z M7.5,23c0.3,0,0.6-0.3,0.6-0.6c0-0.3-0.3-0.6-0.6-0.6c-0.3,0-0.6,0.3-0.6,0.6
		C6.9,22.8,7.2,23,7.5,23z M2.5,1.9c-0.3,0-0.6,0.3-0.6,0.6c0,0.3,0.3,0.6,0.6,0.6c0.3,0,0.6-0.3,0.6-0.6C3.1,2.2,2.8,1.9,2.5,1.9z
		 M8.1,2.5c0-0.3-0.3-0.6-0.6-0.6c-0.3,0-0.6,0.3-0.6,0.6c0,0.3,0.3,0.6,0.6,0.6C7.8,3.1,8.1,2.8,8.1,2.5z M13.1,2.5
		c0-0.3-0.3-0.6-0.6-0.6c-0.3,0-0.6,0.3-0.6,0.6c0,0.3,0.3,0.6,0.6,0.6C12.8,3.1,13.1,2.8,13.1,2.5z M18.1,2.5
		c0-0.3-0.3-0.6-0.6-0.6c-0.3,0-0.6,0.3-0.6,0.6c0,0.3,0.3,0.6,0.6,0.6C17.8,3.1,18.1,2.8,18.1,2.5z M22.5,3.1
		c0.3,0,0.6-0.3,0.6-0.6c0-0.3-0.3-0.6-0.6-0.6c-0.3,0-0.6,0.3-0.6,0.6C21.9,2.8,22.2,3.1,22.5,3.1z M5,5.6c0.3,0,0.6-0.3,0.6-0.6
		c0-0.3-0.3-0.6-0.6-0.6C4.7,4.4,4.4,4.7,4.4,5C4.4,5.3,4.7,5.6,5,5.6z M10,5.6c0.3,0,0.6-0.2,0.6-0.6c0-0.3-0.3-0.6-0.6-0.6
		C9.7,4.4,9.4,4.7,9.4,5C9.4,5.3,9.7,5.6,10,5.6z M15.6,5c0-0.3-0.3-0.6-0.6-0.6c-0.3,0-0.6,0.3-0.6,0.6c0,0.3,0.3,0.6,0.6,0.6
		C15.3,5.6,15.6,5.3,15.6,5z M20.6,5c0-0.3-0.3-0.6-0.6-0.6c-0.3,0-0.6,0.3-0.6,0.6c0,0.3,0.3,0.6,0.6,0.6C20.3,5.6,20.6,5.3,20.6,5
		z M2.5,8.1c0.3,0,0.6-0.2,0.6-0.5c0-0.3-0.2-0.6-0.6-0.6c-0.3,0-0.6,0.2-0.6,0.6C1.9,7.8,2.2,8,2.5,8.1z M8.1,7.5
		c0-0.3-0.3-0.6-0.6-0.6c-0.3,0-0.6,0.3-0.6,0.6c0,0.3,0.3,0.6,0.6,0.6C7.8,8.1,8.1,7.8,8.1,7.5z M13.1,7.5c0-0.3-0.3-0.6-0.6-0.6
		c-0.3,0-0.6,0.3-0.6,0.6c0,0.3,0.3,0.6,0.6,0.6C12.8,8.1,13.1,7.8,13.1,7.5z M5.6,10c0-0.3-0.3-0.6-0.6-0.6c-0.3,0-0.6,0.3-0.6,0.6
		c0,0.3,0.3,0.6,0.6,0.6C5.3,10.6,5.6,10.3,5.6,10z M5.6,20c0-0.3-0.3-0.6-0.6-0.6c-0.3,0-0.6,0.3-0.6,0.6c0,0.3,0.3,0.6,0.6,0.6
		C5.3,20.5,5.6,20.3,5.6,20z M13.1,22.5c0-0.3-0.3-0.6-0.6-0.6c-0.3,0-0.6,0.3-0.6,0.6c0,0.3,0.3,0.6,0.6,0.6
		C12.8,23,13.1,22.8,13.1,22.5z M15.6,20c0-0.3-0.2-0.6-0.6-0.6c-0.3,0-0.6,0.2-0.6,0.6c0,0.3,0.2,0.6,0.6,0.6
		C15.3,20.6,15.6,20.3,15.6,20z M3.1,22.5c0-0.3-0.3-0.6-0.6-0.6c-0.3,0-0.6,0.3-0.6,0.6c0,0.3,0.3,0.6,0.6,0.6
		C2.8,23,3.1,22.8,3.1,22.5z M15.6,10c0-0.3-0.3-0.6-0.6-0.6c-0.3,0-0.6,0.3-0.6,0.6c0,0.3,0.3,0.6,0.6,0.6
		C15.3,10.6,15.6,10.3,15.6,10z M10,20.5c0.3,0,0.6-0.3,0.6-0.6c0-0.3-0.3-0.6-0.6-0.6c-0.3,0-0.6,0.3-0.6,0.6
		C9.4,20.3,9.7,20.5,10,20.5z M22.5,8.1c0.3,0,0.6-0.3,0.6-0.6c0-0.3-0.3-0.6-0.6-0.6c-0.3,0-0.6,0.3-0.6,0.6
		C21.9,7.8,22.2,8.1,22.5,8.1z M17.5,18c0.3,0,0.6-0.3,0.6-0.6c0-0.3-0.3-0.6-0.6-0.6c-0.3,0-0.6,0.3-0.6,0.6
		C16.9,17.8,17.2,18,17.5,18z M20.6,15c0-0.3-0.3-0.6-0.6-0.6c-0.3,0-0.6,0.3-0.6,0.6c0,0.3,0.3,0.6,0.6,0.6
		C20.3,15.5,20.6,15.3,20.6,15z M18.1,22.5c0-0.3-0.3-0.6-0.6-0.6c-0.3,0-0.6,0.3-0.6,0.6c0,0.3,0.3,0.6,0.6,0.6
		C17.8,23,18.1,22.8,18.1,22.5z M20,10.6c0.3,0,0.6-0.2,0.6-0.6c0-0.3-0.2-0.6-0.6-0.6c-0.3,0-0.6,0.2-0.6,0.6
		C19.4,10.3,19.7,10.6,20,10.6z M22.5,23c0.3,0,0.6-0.3,0.6-0.6c0-0.3-0.3-0.6-0.6-0.6c-0.3,0-0.6,0.3-0.6,0.6
		C21.9,22.8,22.2,23,22.5,23z"/>
	<linearGradient id="SVGID_2_" gradientUnits="userSpaceOnUse" x1="1.1944" y1="0.6457" x2="3.8108" y2="0.6457">
		<stop  offset="0" style="stop-color:#FFB449"/>
		<stop  offset="1" style="stop-color:#94304F"/>
	</linearGradient>
	<path class="st1" d="M1.3,0c0,0.6,0.5,1.2,1.2,1.2c0.7,0,1.2-0.5,1.2-1.2c0,0,0.1,0,0.1,0c0,0.5-0.3,0.9-0.7,1.2
		C2.3,1.5,1.4,1.1,1.2,0.2c0-0.1,0-0.2,0-0.2C1.2,0,1.3,0,1.3,0z"/>
	<linearGradient id="SVGID_3_" gradientUnits="userSpaceOnUse" x1="1.562546e-03" y1="2.494" x2="1.2988" y2="2.494">
		<stop  offset="0" style="stop-color:#FFB449"/>
		<stop  offset="1" style="stop-color:#94304F"/>
	</linearGradient>
	<path class="st2" d="M0,3.7c0.7,0,1.2-0.5,1.2-1.2c0-0.7-0.6-1.2-1.2-1.2c0,0,0-0.1,0-0.1c0.5,0,0.9,0.2,1.1,0.6
		c0.5,0.8,0,1.8-0.9,1.9c-0.1,0-0.2,0-0.2,0C0,3.8,0,3.7,0,3.7z"/>
	<linearGradient id="SVGID_4_" gradientUnits="userSpaceOnUse" x1="6.1964" y1="0.6457" x2="8.8128" y2="0.6457">
		<stop  offset="0" style="stop-color:#FFB449"/>
		<stop  offset="1" style="stop-color:#94304F"/>
	</linearGradient>
	<path class="st3" d="M6.3,0c0,0.6,0.5,1.2,1.2,1.2c0.7,0,1.2-0.5,1.2-1.2c0,0,0.1,0,0.1,0c0,0.4-0.2,0.8-0.6,1.1
		c-0.8,0.5-1.8,0.1-2-0.8c0-0.1,0-0.2,0-0.2C6.2,0,6.3,0,6.3,0z"/>
	<linearGradient id="SVGID_5_" gradientUnits="userSpaceOnUse" x1="1.562546e-03" y1="17.4675" x2="1.2942" y2="17.4675">
		<stop  offset="0" style="stop-color:#FFB449"/>
		<stop  offset="1" style="stop-color:#94304F"/>
	</linearGradient>
	<path class="st4" d="M0,18.7c0.7,0,1.2-0.5,1.2-1.2c0-0.7-0.6-1.2-1.2-1.2c0,0,0-0.1,0-0.1c0.7,0.1,1.2,0.5,1.3,1.1
		c0.1,0.7-0.3,1.4-1.1,1.5c-0.1,0-0.1,0-0.2,0C0,18.7,0,18.7,0,18.7z"/>
	<linearGradient id="SVGID_6_" gradientUnits="userSpaceOnUse" x1="16.2005" y1="0.6457" x2="18.8169" y2="0.6457">
		<stop  offset="0" style="stop-color:#FFB449"/>
		<stop  offset="1" style="stop-color:#94304F"/>
	</linearGradient>
	<path class="st5" d="M16.3,0c0,0.6,0.5,1.2,1.2,1.2c0.7,0,1.2-0.5,1.2-1.2c0,0,0.1,0,0.1,0c0,0.5-0.3,0.9-0.8,1.2
		c-0.8,0.4-1.7-0.1-1.8-0.9c0-0.1,0-0.2,0-0.2C16.2,0,16.3,0,16.3,0z"/>
	<linearGradient id="SVGID_7_" gradientUnits="userSpaceOnUse" x1="23.7113" y1="2.494" x2="25.0118" y2="2.494">
		<stop  offset="0" style="stop-color:#FFB449"/>
		<stop  offset="1" style="stop-color:#94304F"/>
	</linearGradient>
	<path class="st6" d="M25,1.3c-0.7,0-1.2,0.5-1.2,1.2c0,0.7,0.5,1.2,1.2,1.2c0,0,0,0.1,0,0.1c-0.5,0-0.9-0.3-1.2-0.8
		c-0.4-0.8,0.1-1.7,1-1.8c0.1,0,0.1,0,0.2,0C25,1.2,25,1.3,25,1.3z"/>
	<linearGradient id="SVGID_8_" gradientUnits="userSpaceOnUse" x1="1.562546e-03" y1="7.4852" x2="1.3005" y2="7.4852">
		<stop  offset="0" style="stop-color:#FFB449"/>
		<stop  offset="1" style="stop-color:#94304F"/>
	</linearGradient>
	<path class="st7" d="M0,8.7c0.7,0,1.2-0.5,1.2-1.2c0-0.7-0.6-1.2-1.2-1.2c0,0,0-0.1,0-0.1c0.5,0,0.9,0.3,1.2,0.8
		c0.4,0.8-0.1,1.7-1,1.8c-0.1,0-0.1,0-0.2,0C0,8.8,0,8.7,0,8.7z"/>
	<linearGradient id="SVGID_9_" gradientUnits="userSpaceOnUse" x1="23.7134" y1="12.4763" x2="25.0118" y2="12.4763">
		<stop  offset="0" style="stop-color:#FFB449"/>
		<stop  offset="1" style="stop-color:#94304F"/>
	</linearGradient>
	<path class="st8" d="M25,11.3c-0.6,0-1.2,0.5-1.2,1.2c0,0.7,0.5,1.2,1.2,1.2c0,0,0,0.1,0,0.1c-0.4,0-0.8-0.2-1-0.5
		c-0.6-0.8-0.2-1.9,0.8-2.1c0.1,0,0.2,0,0.2,0C25,11.2,25,11.2,25,11.3z"/>
	<linearGradient id="SVGID_10_" gradientUnits="userSpaceOnUse" x1="11.1984" y1="0.6457" x2="13.8149" y2="0.6457">
		<stop  offset="0" style="stop-color:#FFB449"/>
		<stop  offset="1" style="stop-color:#94304F"/>
	</linearGradient>
	<path class="st9" d="M11.3,0c0,0.6,0.5,1.2,1.2,1.2c0.7,0,1.2-0.5,1.2-1.2c0,0,0.1,0,0.1,0c0,0.5-0.3,0.9-0.8,1.2
		c-0.8,0.4-1.7-0.1-1.8-0.9c0-0.1,0-0.2,0-0.2C11.2,0,11.3,0,11.3,0z"/>
	<linearGradient id="SVGID_11_" gradientUnits="userSpaceOnUse" x1="21.2025" y1="0.6461" x2="23.819" y2="0.6461">
		<stop  offset="0" style="stop-color:#FFB449"/>
		<stop  offset="1" style="stop-color:#94304F"/>
	</linearGradient>
	<path class="st10" d="M21.3,0c0,0.6,0.5,1.2,1.2,1.2c0.7,0,1.2-0.5,1.2-1.2c0,0,0.1,0,0.1,0c0,0.4-0.2,0.8-0.6,1.1
		c-0.8,0.5-1.8,0.1-2-0.8c0-0.1,0-0.2,0-0.2C21.2,0,21.3,0,21.3,0z"/>
	<linearGradient id="SVGID_12_" gradientUnits="userSpaceOnUse" x1="23.7125" y1="7.4852" x2="25.0118" y2="7.4852">
		<stop  offset="0" style="stop-color:#FFB449"/>
		<stop  offset="1" style="stop-color:#94304F"/>
	</linearGradient>
	<path class="st11" d="M25,6.3c-0.7,0-1.2,0.5-1.2,1.2c0,0.7,0.5,1.2,1.2,1.2c0,0,0,0.1,0,0.1c-0.4,0-0.8-0.2-1-0.5
		c-0.6-0.8-0.2-1.9,0.8-2.1c0.1,0,0.2,0,0.2,0C25,6.2,25,6.3,25,6.3z"/>
	<linearGradient id="SVGID_13_" gradientUnits="userSpaceOnUse" x1="1.562500e-03" y1="12.4763" x2="1.2986" y2="12.4763">
		<stop  offset="0" style="stop-color:#FFB449"/>
		<stop  offset="1" style="stop-color:#94304F"/>
	</linearGradient>
	<path class="st12" d="M0,13.7c0.7,0,1.2-0.5,1.2-1.2c0-0.7-0.6-1.2-1.2-1.2c0,0,0-0.1,0-0.1c0.6,0,1,0.3,1.2,0.8
		c0.3,0.8-0.2,1.6-1,1.8c-0.1,0-0.1,0-0.2,0C0,13.7,0,13.7,0,13.7z"/>
	<linearGradient id="SVGID_14_" gradientUnits="userSpaceOnUse" x1="23.7122" y1="22.4586" x2="25.0118" y2="22.4586">
		<stop  offset="0" style="stop-color:#FFB449"/>
		<stop  offset="1" style="stop-color:#94304F"/>
	</linearGradient>
	<path class="st13" d="M25,21.3c-0.6,0-1.2,0.5-1.2,1.2c0,0.7,0.5,1.2,1.2,1.2c0,0,0,0.1,0,0.1c-0.5,0-0.9-0.2-1.2-0.7
		c-0.4-0.8,0.1-1.7,0.9-1.9c0.1,0,0.2,0,0.2,0C25,21.2,25,21.2,25,21.3z"/>
	<linearGradient id="SVGID_15_" gradientUnits="userSpaceOnUse" x1="23.7098" y1="17.4675" x2="25.0118" y2="17.4675">
		<stop  offset="0" style="stop-color:#FFB449"/>
		<stop  offset="1" style="stop-color:#94304F"/>
	</linearGradient>
	<path class="st14" d="M25,16.3c-0.6,0-1.2,0.5-1.2,1.2c0,0.7,0.5,1.2,1.2,1.2c0,0,0,0.1,0,0.1c-0.2,0-0.3,0-0.5-0.1
		c-0.5-0.2-0.9-0.8-0.8-1.3c0.1-0.6,0.5-1.1,1.1-1.2c0.1,0,0.2,0,0.2,0C25,16.2,25,16.2,25,16.3z"/>
	<linearGradient id="SVGID_16_" gradientUnits="userSpaceOnUse" x1="1.562546e-03" y1="22.4586" x2="1.2967" y2="22.4586">
		<stop  offset="0" style="stop-color:#FFB449"/>
		<stop  offset="1" style="stop-color:#94304F"/>
	</linearGradient>
	<path class="st15" d="M0,23.6c0.7,0,1.2-0.5,1.2-1.2c0-0.7-0.6-1.2-1.2-1.2c0,0,0-0.1,0-0.1c0.7,0.1,1.2,0.5,1.3,1.1
		c0.1,0.7-0.4,1.3-1.1,1.5c-0.1,0-0.2,0-0.2,0C0,23.7,0,23.7,0,23.6z"/>
	<linearGradient id="SVGID_17_" gradientUnits="userSpaceOnUse" x1="24.34" y1="7.4851" x2="25.0118" y2="7.4851">
		<stop  offset="0" style="stop-color:#FFB449"/>
		<stop  offset="1" style="stop-color:#94304F"/>
	</linearGradient>
	<path class="st16" d="M25,6.9c-0.3,0-0.6,0.3-0.6,0.6c0,0.3,0.2,0.6,0.6,0.6c0,0,0,0.1,0,0.1c-0.4,0-0.7-0.3-0.7-0.7
		C24.3,7.1,24.6,6.8,25,6.9C25,6.9,25,6.9,25,6.9z"/>
	<linearGradient id="SVGID_18_" gradientUnits="userSpaceOnUse" x1="24.34" y1="22.4584" x2="25.0118" y2="22.4584">
		<stop  offset="0" style="stop-color:#FFB449"/>
		<stop  offset="1" style="stop-color:#94304F"/>
	</linearGradient>
	<path class="st17" d="M25,21.9c-0.3,0-0.6,0.2-0.6,0.6c0,0.3,0.2,0.6,0.6,0.6c0,0,0,0.1,0,0.1c-0.4,0-0.7-0.3-0.7-0.7
		C24.3,22.1,24.6,21.8,25,21.9C25,21.8,25,21.9,25,21.9z"/>
	<linearGradient id="SVGID_19_" gradientUnits="userSpaceOnUse" x1="1.562546e-03" y1="12.4762" x2="0.6684" y2="12.4762">
		<stop  offset="0" style="stop-color:#FFB449"/>
		<stop  offset="1" style="stop-color:#94304F"/>
	</linearGradient>
	<path class="st18" d="M0,13.1c0.3,0,0.6-0.3,0.6-0.6c0-0.3-0.2-0.5-0.6-0.6c0,0,0-0.1,0-0.1c0.4,0,0.7,0.3,0.7,0.7
		C0.7,12.9,0.4,13.1,0,13.1C0,13.1,0,13.1,0,13.1z"/>
	<linearGradient id="SVGID_20_" gradientUnits="userSpaceOnUse" x1="6.8503" y1="0.3316" x2="8.1589" y2="0.3316">
		<stop  offset="0" style="stop-color:#FFB449"/>
		<stop  offset="1" style="stop-color:#94304F"/>
	</linearGradient>
	<path class="st19" d="M6.9,0c0,0.3,0.3,0.6,0.6,0.6c0.3,0,0.6-0.2,0.6-0.6c0,0,0.1,0,0.1,0c0,0.4-0.3,0.7-0.7,0.7
		C7.1,0.7,6.8,0.4,6.9,0C6.9,0,6.9,0,6.9,0z"/>
	<linearGradient id="SVGID_21_" gradientUnits="userSpaceOnUse" x1="1.562546e-03" y1="2.494" x2="0.6683" y2="2.494">
		<stop  offset="0" style="stop-color:#FFB449"/>
		<stop  offset="1" style="stop-color:#94304F"/>
	</linearGradient>
	<path class="st20" d="M0,3.1c0.3,0,0.6-0.3,0.6-0.6c0-0.2-0.2-0.6-0.6-0.6c0,0,0-0.1,0-0.1c0.4,0,0.7,0.3,0.7,0.7
		C0.7,2.9,0.4,3.2,0,3.1C0,3.1,0,3.1,0,3.1z"/>
	<linearGradient id="SVGID_22_" gradientUnits="userSpaceOnUse" x1="1.8483" y1="0.3312" x2="3.1568" y2="0.3312">
		<stop  offset="0" style="stop-color:#FFB449"/>
		<stop  offset="1" style="stop-color:#94304F"/>
	</linearGradient>
	<path class="st21" d="M1.9,0c0,0.3,0.3,0.6,0.6,0.6c0.3,0,0.6-0.2,0.6-0.6c0,0,0.1,0,0.1,0c0,0.4-0.3,0.7-0.7,0.7
		C2.1,0.7,1.8,0.4,1.9,0C1.9,0,1.9,0,1.9,0z"/>
	<linearGradient id="SVGID_23_" gradientUnits="userSpaceOnUse" x1="24.3421" y1="2.494" x2="25.0118" y2="2.494">
		<stop  offset="0" style="stop-color:#FFB449"/>
		<stop  offset="1" style="stop-color:#94304F"/>
	</linearGradient>
	<path class="st22" d="M25,1.9c-0.3,0-0.6,0.3-0.6,0.6c0,0.3,0.2,0.6,0.6,0.6c0,0,0,0.1,0,0.1c-0.4,0-0.7-0.3-0.7-0.7
		C24.3,2.1,24.6,1.8,25,1.9C25,1.9,25,1.9,25,1.9z"/>
	<linearGradient id="SVGID_24_" gradientUnits="userSpaceOnUse" x1="21.8562" y1="0.3318" x2="23.1649" y2="0.3318">
		<stop  offset="0" style="stop-color:#FFB449"/>
		<stop  offset="1" style="stop-color:#94304F"/>
	</linearGradient>
	<path class="st23" d="M21.9,0c0,0.3,0.3,0.6,0.6,0.6c0.3,0,0.6-0.2,0.6-0.6c0,0,0.1,0,0.1,0c0,0.4-0.3,0.7-0.7,0.7
		C22.1,0.7,21.8,0.4,21.9,0C21.9,0,21.9,0,21.9,0z"/>
	<linearGradient id="SVGID_25_" gradientUnits="userSpaceOnUse" x1="16.8542" y1="0.331" x2="18.1629" y2="0.331">
		<stop  offset="0" style="stop-color:#FFB449"/>
		<stop  offset="1" style="stop-color:#94304F"/>
	</linearGradient>
	<path class="st24" d="M16.9,0c0,0.3,0.3,0.6,0.6,0.6c0.3,0,0.6-0.2,0.6-0.6c0,0,0.1,0,0.1,0c0,0.4-0.3,0.7-0.7,0.7
		C17.1,0.7,16.8,0.4,16.9,0C16.9,0,16.9,0,16.9,0z"/>
	<linearGradient id="SVGID_26_" gradientUnits="userSpaceOnUse" x1="24.3422" y1="17.4673" x2="25.0118" y2="17.4673">
		<stop  offset="0" style="stop-color:#FFB449"/>
		<stop  offset="1" style="stop-color:#94304F"/>
	</linearGradient>
	<path class="st25" d="M25,16.9c-0.3,0-0.6,0.3-0.6,0.6c0,0.3,0.2,0.6,0.6,0.6c0,0,0,0.1,0,0.1c-0.4,0-0.7-0.3-0.7-0.7
		C24.3,17.1,24.6,16.8,25,16.9C25,16.8,25,16.9,25,16.9z"/>
	<linearGradient id="SVGID_27_" gradientUnits="userSpaceOnUse" x1="1.562546e-03" y1="22.4584" x2="0.6692" y2="22.4584">
		<stop  offset="0" style="stop-color:#FFB449"/>
		<stop  offset="1" style="stop-color:#94304F"/>
	</linearGradient>
	<path class="st26" d="M0,23c0.4,0,0.6-0.3,0.6-0.6c0-0.3-0.2-0.5-0.6-0.6c0,0,0-0.1,0-0.1c0.4,0,0.7,0.3,0.7,0.7
		C0.7,22.8,0.4,23.1,0,23C0,23.1,0,23.1,0,23z"/>
	<linearGradient id="SVGID_28_" gradientUnits="userSpaceOnUse" x1="1.562546e-03" y1="7.4851" x2="0.6697" y2="7.4851">
		<stop  offset="0" style="stop-color:#FFB449"/>
		<stop  offset="1" style="stop-color:#94304F"/>
	</linearGradient>
	<path class="st27" d="M0,8.1c0.3,0,0.6-0.3,0.6-0.6c0-0.3-0.2-0.5-0.6-0.6c0,0,0-0.1,0-0.1c0.4,0,0.7,0.3,0.7,0.7
		C0.7,7.9,0.4,8.1,0,8.1C0,8.1,0,8.1,0,8.1z"/>
	<linearGradient id="SVGID_29_" gradientUnits="userSpaceOnUse" x1="24.3422" y1="12.4762" x2="25.0118" y2="12.4762">
		<stop  offset="0" style="stop-color:#FFB449"/>
		<stop  offset="1" style="stop-color:#94304F"/>
	</linearGradient>
	<path class="st28" d="M25,11.9c-0.3,0-0.6,0.3-0.6,0.6c0,0.3,0.2,0.6,0.6,0.6c0,0,0,0.1,0,0.1c-0.4,0-0.7-0.3-0.7-0.7
		C24.3,12.1,24.6,11.8,25,11.9C25,11.8,25,11.9,25,11.9z"/>
	<linearGradient id="SVGID_30_" gradientUnits="userSpaceOnUse" x1="1.562546e-03" y1="17.4673" x2="0.6685" y2="17.4673">
		<stop  offset="0" style="stop-color:#FFB449"/>
		<stop  offset="1" style="stop-color:#94304F"/>
	</linearGradient>
	<path class="st29" d="M0,18c0.4,0,0.6-0.3,0.6-0.6c0-0.3-0.2-0.5-0.6-0.6c0,0,0-0.1,0-0.1c0.4,0,0.7,0.3,0.7,0.7
		C0.7,17.8,0.4,18.1,0,18C0,18.1,0,18.1,0,18z"/>
	<linearGradient id="SVGID_31_" gradientUnits="userSpaceOnUse" x1="11.8523" y1="0.3313" x2="13.1608" y2="0.3313">
		<stop  offset="0" style="stop-color:#FFB449"/>
		<stop  offset="1" style="stop-color:#94304F"/>
	</linearGradient>
	<path class="st30" d="M11.9,0c0,0.3,0.3,0.6,0.6,0.6c0.3,0,0.6-0.2,0.6-0.6c0,0,0.1,0,0.1,0c0,0.4-0.3,0.7-0.7,0.7
		C12.1,0.7,11.8,0.4,11.9,0C11.9,0,11.9,0,11.9,0z"/>
	<linearGradient id="SVGID_32_" gradientUnits="userSpaceOnUse" x1="1.2356" y1="24.3295" x2="3.7687" y2="24.3295">
		<stop  offset="0" style="stop-color:#FFB449"/>
		<stop  offset="1" style="stop-color:#94304F"/>
	</linearGradient>
	<path class="st31" d="M3.7,25c-0.1-0.7-0.4-1.2-1.1-1.2c-0.4,0-0.7,0.1-0.9,0.3c-0.3,0.2-0.4,0.5-0.4,0.9c-0.1-0.2,0-0.7,0.3-1
		c0.4-0.4,1.1-0.5,1.6-0.1C3.6,24.2,3.9,24.7,3.7,25z"/>
	<linearGradient id="SVGID_33_" gradientUnits="userSpaceOnUse" x1="6.232" y1="24.311" x2="8.7732" y2="24.311">
		<stop  offset="0" style="stop-color:#FFB449"/>
		<stop  offset="1" style="stop-color:#94304F"/>
	</linearGradient>
	<path class="st32" d="M8.7,25c-0.1-0.7-0.5-1.2-1.2-1.2c-0.8,0-1.1,0.5-1.2,1.2c-0.1-0.2,0-0.6,0.3-0.9c0.4-0.5,1.1-0.6,1.6-0.3
		C8.6,24.1,8.9,24.6,8.7,25z"/>
	<linearGradient id="SVGID_34_" gradientUnits="userSpaceOnUse" x1="16.2394" y1="24.3063" x2="18.7739" y2="24.3063">
		<stop  offset="0" style="stop-color:#FFB449"/>
		<stop  offset="1" style="stop-color:#94304F"/>
	</linearGradient>
	<path class="st33" d="M18.7,25c-0.1-0.7-0.4-1.1-1.1-1.2c-0.4-0.1-0.7,0.1-1,0.3c-0.3,0.2-0.4,0.5-0.4,0.9c-0.1-0.3,0.1-0.7,0.4-1
		c0.4-0.4,1.1-0.4,1.5-0.1C18.6,24.1,18.9,24.6,18.7,25z"/>
	<linearGradient id="SVGID_35_" gradientUnits="userSpaceOnUse" x1="21.236" y1="24.312" x2="23.7782" y2="24.312">
		<stop  offset="0" style="stop-color:#FFB449"/>
		<stop  offset="1" style="stop-color:#94304F"/>
	</linearGradient>
	<path class="st34" d="M23.7,24.9c-0.1-0.7-0.4-1.2-1.2-1.2c-0.8,0-1.2,0.4-1.3,1.2c-0.1-0.2,0-0.7,0.3-0.9c0.4-0.4,1.1-0.5,1.6-0.2
		C23.6,24.1,23.9,24.7,23.7,24.9z"/>
	<linearGradient id="SVGID_36_" gradientUnits="userSpaceOnUse" x1="11.2385" y1="24.3251" x2="13.7745" y2="24.3251">
		<stop  offset="0" style="stop-color:#FFB449"/>
		<stop  offset="1" style="stop-color:#94304F"/>
	</linearGradient>
	<path class="st35" d="M11.3,25c-0.1-0.3,0.1-0.8,0.5-1.1c0.5-0.3,1.1-0.3,1.5,0c0.3,0.3,0.6,0.7,0.4,1.1c-0.1-0.8-0.6-1.3-1.4-1.2
		C11.7,23.8,11.4,24.3,11.3,25z"/>
	<linearGradient id="SVGID_37_" gradientUnits="userSpaceOnUse" x1="1.8659" y1="24.6158" x2="3.1423" y2="24.6158">
		<stop  offset="0" style="stop-color:#FFB449"/>
		<stop  offset="1" style="stop-color:#94304F"/>
	</linearGradient>
	<path class="st36" d="M1.9,24.9c0-0.3,0.1-0.4,0.3-0.6c0.2-0.1,0.5-0.1,0.7,0c0.2,0.1,0.3,0.3,0.3,0.6c-0.1-0.3-0.3-0.6-0.6-0.6
		C2.1,24.4,2,24.6,1.9,24.9z"/>
	<linearGradient id="SVGID_38_" gradientUnits="userSpaceOnUse" x1="6.8709" y1="24.6368" x2="8.1402" y2="24.6368">
		<stop  offset="0" style="stop-color:#FFB449"/>
		<stop  offset="1" style="stop-color:#94304F"/>
	</linearGradient>
	<path class="st37" d="M6.9,24.9c-0.1-0.2,0-0.4,0.2-0.5c0.2-0.2,0.5-0.2,0.8,0c0.2,0.1,0.3,0.3,0.2,0.6c-0.1-0.4-0.3-0.6-0.7-0.6
		C7.1,24.4,7,24.6,6.9,24.9z"/>
	<linearGradient id="SVGID_39_" gradientUnits="userSpaceOnUse" x1="11.8715" y1="24.6431" x2="13.1401" y2="24.6431">
		<stop  offset="0" style="stop-color:#FFB449"/>
		<stop  offset="1" style="stop-color:#94304F"/>
	</linearGradient>
	<path class="st38" d="M11.9,24.9c-0.1-0.2,0-0.4,0.2-0.5c0.2-0.2,0.5-0.2,0.8,0c0.2,0.1,0.3,0.3,0.2,0.6c-0.1-0.4-0.3-0.7-0.7-0.6
		C12.1,24.4,12,24.6,11.9,24.9z"/>
	<linearGradient id="SVGID_40_" gradientUnits="userSpaceOnUse" x1="16.8753" y1="24.6335" x2="18.1438" y2="24.6335">
		<stop  offset="0" style="stop-color:#FFB449"/>
		<stop  offset="1" style="stop-color:#94304F"/>
	</linearGradient>
	<path class="st39" d="M16.9,24.9c-0.1-0.2,0-0.4,0.3-0.6c0.2-0.1,0.6-0.1,0.8,0c0.2,0.1,0.3,0.3,0.2,0.6c-0.1-0.4-0.3-0.6-0.6-0.6
		C17.1,24.4,17,24.6,16.9,24.9z"/>
	<linearGradient id="SVGID_41_" gradientUnits="userSpaceOnUse" x1="21.872" y1="24.6313" x2="23.141" y2="24.6313">
		<stop  offset="0" style="stop-color:#FFB449"/>
		<stop  offset="1" style="stop-color:#94304F"/>
	</linearGradient>
	<path class="st40" d="M23.1,25c-0.1-0.3-0.3-0.6-0.6-0.6c-0.4,0-0.5,0.2-0.6,0.6c-0.1-0.2,0-0.4,0.2-0.5c0.2-0.2,0.5-0.2,0.8-0.1
		C23.1,24.5,23.2,24.7,23.1,25z"/>
	<linearGradient id="SVGID_42_" gradientUnits="userSpaceOnUse" x1="18.7098" y1="7.4847" x2="21.3073" y2="7.4847">
		<stop  offset="0" style="stop-color:#FFB449"/>
		<stop  offset="1" style="stop-color:#94304F"/>
	</linearGradient>
	<path class="st41" d="M20,8.8c-0.7,0-1.3-0.6-1.3-1.3c0-0.7,0.6-1.3,1.3-1.3c0.7,0,1.3,0.6,1.3,1.3C21.3,8.2,20.7,8.8,20,8.8z
		 M21.2,7.5c0-0.7-0.5-1.2-1.2-1.2c-0.7,0-1.2,0.5-1.2,1.2c0,0.7,0.5,1.2,1.2,1.2C20.7,8.7,21.2,8.2,21.2,7.5z"/>
	<linearGradient id="SVGID_43_" gradientUnits="userSpaceOnUse" x1="16.2097" y1="19.9617" x2="18.8047" y2="19.9617">
		<stop  offset="0" style="stop-color:#FFB449"/>
		<stop  offset="1" style="stop-color:#94304F"/>
	</linearGradient>
	<path class="st42" d="M17.5,18.7c0.7,0,1.3,0.6,1.3,1.3c0,0.7-0.6,1.3-1.3,1.3c-0.7,0-1.3-0.6-1.3-1.3
		C16.2,19.3,16.8,18.7,17.5,18.7z M16.3,20c0,0.7,0.5,1.2,1.2,1.2c0.7,0,1.2-0.5,1.2-1.2c0-0.7-0.5-1.2-1.2-1.2
		C16.8,18.8,16.3,19.3,16.3,20z"/>
	<linearGradient id="SVGID_44_" gradientUnits="userSpaceOnUse" x1="13.7078" y1="7.4848" x2="16.305" y2="7.4848">
		<stop  offset="0" style="stop-color:#FFB449"/>
		<stop  offset="1" style="stop-color:#94304F"/>
	</linearGradient>
	<path class="st43" d="M16.3,7.5c0,0.7-0.6,1.3-1.3,1.3c-0.7,0-1.3-0.6-1.3-1.3c0-0.7,0.6-1.3,1.3-1.3C15.7,6.2,16.3,6.8,16.3,7.5z
		 M16.2,7.5c0-0.7-0.5-1.2-1.2-1.2c-0.7,0-1.2,0.5-1.2,1.2c0,0.7,0.5,1.2,1.2,1.2C15.7,8.7,16.2,8.2,16.2,7.5z"/>
	<linearGradient id="SVGID_45_" gradientUnits="userSpaceOnUse" x1="13.7087" y1="12.4755" x2="16.3045" y2="12.4755">
		<stop  offset="0" style="stop-color:#FFB449"/>
		<stop  offset="1" style="stop-color:#94304F"/>
	</linearGradient>
	<path class="st44" d="M15,13.8c-0.7,0-1.3-0.6-1.3-1.3c0-0.7,0.6-1.3,1.3-1.3c0.7,0,1.3,0.6,1.3,1.3C16.3,13.2,15.7,13.8,15,13.8z
		 M15,11.3c-0.7,0-1.2,0.5-1.2,1.2c0,0.7,0.5,1.2,1.2,1.2c0.7,0,1.2-0.5,1.2-1.2C16.2,11.8,15.7,11.3,15,11.3z"/>
	<linearGradient id="SVGID_46_" gradientUnits="userSpaceOnUse" x1="3.705" y1="22.4569" x2="6.3019" y2="22.4569">
		<stop  offset="0" style="stop-color:#FFB449"/>
		<stop  offset="1" style="stop-color:#94304F"/>
	</linearGradient>
	<path class="st45" d="M6.3,22.4c0,0.7-0.6,1.3-1.3,1.3c-0.7,0-1.3-0.6-1.3-1.3c0-0.7,0.6-1.3,1.3-1.3C5.7,21.2,6.3,21.7,6.3,22.4z
		 M5,21.3c-0.7,0-1.2,0.5-1.2,1.2c0,0.7,0.5,1.2,1.2,1.2c0.7,0,1.2-0.5,1.2-1.2C6.2,21.8,5.7,21.3,5,21.3z"/>
	<linearGradient id="SVGID_47_" gradientUnits="userSpaceOnUse" x1="21.2114" y1="4.9895" x2="23.8068" y2="4.9895">
		<stop  offset="0" style="stop-color:#FFB449"/>
		<stop  offset="1" style="stop-color:#94304F"/>
	</linearGradient>
	<path class="st46" d="M23.8,5c0,0.7-0.6,1.3-1.3,1.3c-0.7,0-1.3-0.6-1.3-1.3c0-0.7,0.6-1.3,1.3-1.3C23.2,3.7,23.8,4.3,23.8,5z
		 M22.5,3.8c-0.7,0-1.2,0.5-1.2,1.2c0,0.7,0.5,1.2,1.2,1.2c0.7,0,1.2-0.5,1.2-1.2C23.7,4.3,23.2,3.8,22.5,3.8z"/>
	<linearGradient id="SVGID_48_" gradientUnits="userSpaceOnUse" x1="8.7072" y1="17.466" x2="11.3022" y2="17.466">
		<stop  offset="0" style="stop-color:#FFB449"/>
		<stop  offset="1" style="stop-color:#94304F"/>
	</linearGradient>
	<path class="st47" d="M11.3,17.5c0,0.7-0.6,1.3-1.3,1.3c-0.7,0-1.3-0.6-1.3-1.3c0-0.7,0.6-1.3,1.3-1.3
		C10.7,16.2,11.3,16.8,11.3,17.5z M10,16.3c-0.7,0-1.2,0.5-1.2,1.2c0,0.7,0.5,1.2,1.2,1.2c0.7,0,1.2-0.5,1.2-1.2
		C11.2,16.8,10.7,16.3,10,16.3z"/>
	<linearGradient id="SVGID_49_" gradientUnits="userSpaceOnUse" x1="16.2089" y1="14.9709" x2="18.8056" y2="14.9709">
		<stop  offset="0" style="stop-color:#FFB449"/>
		<stop  offset="1" style="stop-color:#94304F"/>
	</linearGradient>
	<path class="st48" d="M18.8,15c0,0.7-0.6,1.3-1.3,1.3c-0.7,0-1.3-0.6-1.3-1.3c0-0.7,0.6-1.3,1.3-1.3C18.2,13.7,18.8,14.3,18.8,15z
		 M17.5,13.8c-0.7,0-1.2,0.5-1.2,1.2c0,0.7,0.5,1.2,1.2,1.2c0.7,0,1.2-0.5,1.2-1.2C18.7,14.3,18.2,13.8,17.5,13.8z"/>
	<linearGradient id="SVGID_50_" gradientUnits="userSpaceOnUse" x1="13.7087" y1="2.4936" x2="16.3045" y2="2.4936">
		<stop  offset="0" style="stop-color:#FFB449"/>
		<stop  offset="1" style="stop-color:#94304F"/>
	</linearGradient>
	<path class="st49" d="M16.3,2.5c0,0.7-0.6,1.3-1.3,1.3c-0.7,0-1.3-0.6-1.3-1.3c0-0.7,0.6-1.3,1.3-1.3C15.7,1.2,16.3,1.8,16.3,2.5z
		 M15,1.3c-0.7,0-1.2,0.5-1.2,1.2c0,0.7,0.5,1.2,1.2,1.2c0.7,0,1.2-0.5,1.2-1.2C16.2,1.8,15.7,1.3,15,1.3z"/>
	<linearGradient id="SVGID_51_" gradientUnits="userSpaceOnUse" x1="21.2104" y1="14.9709" x2="23.8079" y2="14.9709">
		<stop  offset="0" style="stop-color:#FFB449"/>
		<stop  offset="1" style="stop-color:#94304F"/>
	</linearGradient>
	<path class="st50" d="M22.5,16.3c-0.7,0-1.3-0.6-1.3-1.3c0-0.7,0.6-1.3,1.3-1.3c0.7,0,1.3,0.6,1.3,1.3
		C23.8,15.7,23.2,16.3,22.5,16.3z M22.5,16.2c0.7,0,1.2-0.5,1.2-1.2c0-0.7-0.5-1.2-1.2-1.2c-0.7,0-1.2,0.5-1.2,1.2
		C21.3,15.6,21.8,16.2,22.5,16.2z"/>
	<linearGradient id="SVGID_52_" gradientUnits="userSpaceOnUse" x1="21.2114" y1="9.9799" x2="23.8068" y2="9.9799">
		<stop  offset="0" style="stop-color:#FFB449"/>
		<stop  offset="1" style="stop-color:#94304F"/>
	</linearGradient>
	<path class="st51" d="M23.8,10c0,0.7-0.6,1.3-1.3,1.3c-0.7,0-1.3-0.6-1.3-1.3c0-0.7,0.6-1.3,1.3-1.3C23.2,8.7,23.8,9.3,23.8,10z
		 M21.3,10c0,0.7,0.5,1.2,1.2,1.2c0.7,0,1.2-0.5,1.2-1.2c0-0.7-0.5-1.2-1.2-1.2C21.8,8.8,21.3,9.3,21.3,10z"/>
	<linearGradient id="SVGID_53_" gradientUnits="userSpaceOnUse" x1="16.21" y1="4.9891" x2="18.8049" y2="4.9891">
		<stop  offset="0" style="stop-color:#FFB449"/>
		<stop  offset="1" style="stop-color:#94304F"/>
	</linearGradient>
	<path class="st52" d="M17.5,6.3c-0.7,0-1.3-0.6-1.3-1.3c0-0.7,0.6-1.3,1.3-1.3c0.7,0,1.3,0.6,1.3,1.3C18.8,5.7,18.2,6.3,17.5,6.3z
		 M17.5,3.8c-0.7,0-1.2,0.5-1.2,1.2c0,0.7,0.5,1.2,1.2,1.2c0.7,0,1.2-0.5,1.2-1.2C18.7,4.3,18.2,3.8,17.5,3.8z"/>
	<linearGradient id="SVGID_54_" gradientUnits="userSpaceOnUse" x1="18.7107" y1="17.466" x2="21.3062" y2="17.466">
		<stop  offset="0" style="stop-color:#FFB449"/>
		<stop  offset="1" style="stop-color:#94304F"/>
	</linearGradient>
	<path class="st53" d="M18.7,17.5c0-0.7,0.6-1.3,1.3-1.3c0.7,0,1.3,0.6,1.3,1.3c0,0.7-0.6,1.3-1.3,1.3
		C19.3,18.8,18.7,18.2,18.7,17.5z M18.8,17.5c0,0.7,0.5,1.2,1.2,1.2c0.7,0,1.2-0.5,1.2-1.2c0-0.7-0.5-1.2-1.2-1.2
		C19.3,16.3,18.8,16.8,18.8,17.5z"/>
	<linearGradient id="SVGID_55_" gradientUnits="userSpaceOnUse" x1="3.7058" y1="17.4659" x2="6.3013" y2="17.4659">
		<stop  offset="0" style="stop-color:#FFB449"/>
		<stop  offset="1" style="stop-color:#94304F"/>
	</linearGradient>
	<path class="st54" d="M6.3,17.5c0,0.7-0.6,1.3-1.3,1.3c-0.7,0-1.3-0.6-1.3-1.3c0-0.7,0.6-1.3,1.3-1.3C5.7,16.2,6.3,16.8,6.3,17.5z
		 M5,18.7c0.7,0,1.2-0.5,1.2-1.2c0-0.7-0.5-1.2-1.2-1.2c-0.7,0-1.2,0.5-1.2,1.2C3.8,18.1,4.3,18.7,5,18.7z"/>
	<linearGradient id="SVGID_56_" gradientUnits="userSpaceOnUse" x1="6.2054" y1="14.9705" x2="8.8031" y2="14.9705">
		<stop  offset="0" style="stop-color:#FFB449"/>
		<stop  offset="1" style="stop-color:#94304F"/>
	</linearGradient>
	<path class="st55" d="M7.5,16.3c-0.7,0-1.3-0.6-1.3-1.3c0-0.7,0.6-1.3,1.3-1.3c0.7,0,1.3,0.6,1.3,1.3C8.8,15.7,8.2,16.3,7.5,16.3z
		 M6.3,15c0,0.7,0.5,1.2,1.2,1.2c0.7,0,1.2-0.5,1.2-1.2c0-0.7-0.5-1.2-1.2-1.2C6.8,13.8,6.3,14.3,6.3,15z"/>
	<linearGradient id="SVGID_57_" gradientUnits="userSpaceOnUse" x1="13.7079" y1="22.4568" x2="16.3054" y2="22.4568">
		<stop  offset="0" style="stop-color:#FFB449"/>
		<stop  offset="1" style="stop-color:#94304F"/>
	</linearGradient>
	<path class="st56" d="M16.3,22.5c0,0.7-0.6,1.3-1.3,1.3c-0.7,0-1.3-0.6-1.3-1.3c0-0.7,0.6-1.3,1.3-1.3
		C15.7,21.2,16.3,21.8,16.3,22.5z M13.8,22.5c0,0.7,0.5,1.2,1.2,1.2c0.7,0,1.2-0.5,1.2-1.2c0-0.7-0.5-1.2-1.2-1.2
		C14.3,21.3,13.8,21.8,13.8,22.5z"/>
	<linearGradient id="SVGID_58_" gradientUnits="userSpaceOnUse" x1="21.2116" y1="19.9618" x2="23.8067" y2="19.9618">
		<stop  offset="0" style="stop-color:#FFB449"/>
		<stop  offset="1" style="stop-color:#94304F"/>
	</linearGradient>
	<path class="st57" d="M22.5,21.3c-0.7,0-1.3-0.6-1.3-1.3c0-0.7,0.6-1.3,1.3-1.3c0.7,0,1.3,0.6,1.3,1.3
		C23.8,20.7,23.2,21.3,22.5,21.3z M22.5,18.8c-0.7,0-1.2,0.5-1.2,1.2c0,0.7,0.5,1.2,1.2,1.2c0.7,0,1.2-0.5,1.2-1.2
		C23.7,19.3,23.2,18.8,22.5,18.8z"/>
	<linearGradient id="SVGID_59_" gradientUnits="userSpaceOnUse" x1="18.7104" y1="12.4752" x2="21.3065" y2="12.4752">
		<stop  offset="0" style="stop-color:#FFB449"/>
		<stop  offset="1" style="stop-color:#94304F"/>
	</linearGradient>
	<path class="st58" d="M20,11.2c0.7,0,1.3,0.6,1.3,1.3c0,0.7-0.6,1.3-1.3,1.3c-0.7,0-1.3-0.6-1.3-1.3C18.7,11.8,19.3,11.2,20,11.2z
		 M20,11.3c-0.7,0-1.2,0.5-1.2,1.2c0,0.7,0.5,1.2,1.2,1.2c0.7,0,1.2-0.5,1.2-1.2C21.2,11.8,20.7,11.3,20,11.3z"/>
	<linearGradient id="SVGID_60_" gradientUnits="userSpaceOnUse" x1="1.2037" y1="14.9708" x2="3.8005" y2="14.9708">
		<stop  offset="0" style="stop-color:#FFB449"/>
		<stop  offset="1" style="stop-color:#94304F"/>
	</linearGradient>
	<path class="st59" d="M3.8,15c0,0.7-0.6,1.3-1.3,1.3c-0.7,0-1.3-0.6-1.3-1.3c0-0.7,0.6-1.3,1.3-1.3C3.2,13.7,3.8,14.3,3.8,15z
		 M3.7,15c0-0.7-0.5-1.2-1.2-1.2c-0.7,0-1.2,0.5-1.2,1.2c0,0.7,0.5,1.2,1.2,1.2C3.2,16.2,3.7,15.6,3.7,15z"/>
	<linearGradient id="SVGID_61_" gradientUnits="userSpaceOnUse" x1="8.7062" y1="22.4569" x2="11.303" y2="22.4569">
		<stop  offset="0" style="stop-color:#FFB449"/>
		<stop  offset="1" style="stop-color:#94304F"/>
	</linearGradient>
	<path class="st60" d="M11.3,22.5c0,0.7-0.6,1.3-1.3,1.3c-0.7,0-1.3-0.6-1.3-1.3c0-0.7,0.6-1.3,1.3-1.3
		C10.7,21.2,11.3,21.8,11.3,22.5z M11.2,22.5c0-0.7-0.5-1.2-1.2-1.2c-0.7,0-1.2,0.5-1.2,1.2c0,0.7,0.5,1.2,1.2,1.2
		C10.7,23.7,11.2,23.1,11.2,22.5z"/>
	<linearGradient id="SVGID_62_" gradientUnits="userSpaceOnUse" x1="6.2063" y1="19.962" x2="8.8008" y2="19.962">
		<stop  offset="0" style="stop-color:#FFB449"/>
		<stop  offset="1" style="stop-color:#94304F"/>
	</linearGradient>
	<path class="st61" d="M8.8,20c0,0.7-0.6,1.3-1.3,1.3c-0.7,0-1.3-0.6-1.3-1.3c0-0.7,0.6-1.3,1.3-1.3C8.2,18.7,8.8,19.2,8.8,20z
		 M7.5,21.2c0.7,0,1.2-0.5,1.2-1.2c0-0.7-0.5-1.2-1.2-1.2c-0.7,0-1.2,0.5-1.2,1.2C6.3,20.6,6.8,21.2,7.5,21.2z"/>
	<linearGradient id="SVGID_63_" gradientUnits="userSpaceOnUse" x1="11.2085" y1="19.9621" x2="13.803" y2="19.9621">
		<stop  offset="0" style="stop-color:#FFB449"/>
		<stop  offset="1" style="stop-color:#94304F"/>
	</linearGradient>
	<path class="st62" d="M12.5,18.7c0.7,0,1.3,0.6,1.3,1.3c0,0.7-0.6,1.3-1.3,1.3c-0.7,0-1.3-0.6-1.3-1.3
		C11.2,19.2,11.8,18.7,12.5,18.7z M11.3,20c0,0.7,0.5,1.2,1.2,1.2c0.7,0,1.2-0.5,1.2-1.2c0-0.7-0.5-1.2-1.2-1.2
		C11.8,18.8,11.3,19.3,11.3,20z"/>
	<linearGradient id="SVGID_64_" gradientUnits="userSpaceOnUse" x1="8.7062" y1="7.4845" x2="11.303" y2="7.4845">
		<stop  offset="0" style="stop-color:#FFB449"/>
		<stop  offset="1" style="stop-color:#94304F"/>
	</linearGradient>
	<path class="st63" d="M11.3,7.5c0,0.7-0.6,1.3-1.3,1.3c-0.7,0-1.3-0.6-1.3-1.3c0-0.7,0.6-1.3,1.3-1.3C10.7,6.2,11.3,6.8,11.3,7.5z
		 M10,6.3c-0.7,0-1.2,0.5-1.2,1.2c0,0.7,0.5,1.2,1.2,1.2c0.7,0,1.2-0.5,1.2-1.2C11.2,6.8,10.7,6.3,10,6.3z"/>
	<linearGradient id="SVGID_65_" gradientUnits="userSpaceOnUse" x1="16.2096" y1="9.98" x2="18.8045" y2="9.98">
		<stop  offset="0" style="stop-color:#FFB449"/>
		<stop  offset="1" style="stop-color:#94304F"/>
	</linearGradient>
	<path class="st64" d="M17.5,11.3c-0.7,0-1.3-0.6-1.3-1.3c0-0.7,0.6-1.3,1.3-1.3c0.7,0,1.3,0.6,1.3,1.3
		C18.8,10.7,18.2,11.3,17.5,11.3z M16.3,10c0,0.7,0.5,1.2,1.2,1.2c0.7,0,1.2-0.5,1.2-1.2c0-0.7-0.5-1.2-1.2-1.2
		C16.8,8.8,16.3,9.3,16.3,10z"/>
	<linearGradient id="SVGID_66_" gradientUnits="userSpaceOnUse" x1="11.2086" y1="4.9895" x2="13.8027" y2="4.9895">
		<stop  offset="0" style="stop-color:#FFB449"/>
		<stop  offset="1" style="stop-color:#94304F"/>
	</linearGradient>
	<path class="st65" d="M12.5,3.7c0.7,0,1.3,0.6,1.3,1.3c0,0.7-0.6,1.3-1.3,1.3c-0.7,0-1.3-0.6-1.3-1.3C11.2,4.3,11.8,3.7,12.5,3.7z
		 M12.5,3.8c-0.7,0-1.2,0.5-1.2,1.2c0,0.7,0.5,1.2,1.2,1.2c0.7,0,1.2-0.5,1.2-1.2C13.7,4.3,13.2,3.8,12.5,3.8z"/>
	<linearGradient id="SVGID_67_" gradientUnits="userSpaceOnUse" x1="1.2048" y1="19.9616" x2="3.7998" y2="19.9616">
		<stop  offset="0" style="stop-color:#FFB449"/>
		<stop  offset="1" style="stop-color:#94304F"/>
	</linearGradient>
	<path class="st66" d="M2.5,18.7c0.7,0,1.3,0.6,1.3,1.3c0,0.7-0.6,1.3-1.3,1.3c-0.7,0-1.3-0.6-1.3-1.3C1.2,19.2,1.8,18.7,2.5,18.7z
		 M2.5,18.8c-0.7,0-1.2,0.5-1.2,1.2c0,0.7,0.5,1.2,1.2,1.2c0.7,0,1.2-0.5,1.2-1.2C3.7,19.3,3.2,18.8,2.5,18.8z"/>
	<linearGradient id="SVGID_68_" gradientUnits="userSpaceOnUse" x1="13.7087" y1="17.466" x2="16.3045" y2="17.466">
		<stop  offset="0" style="stop-color:#FFB449"/>
		<stop  offset="1" style="stop-color:#94304F"/>
	</linearGradient>
	<path class="st67" d="M15,18.8c-0.7,0-1.3-0.6-1.3-1.3c0-0.7,0.6-1.3,1.3-1.3c0.7,0,1.3,0.6,1.3,1.3C16.3,18.2,15.7,18.8,15,18.8z
		 M15,16.3c-0.7,0-1.2,0.5-1.2,1.2c0,0.7,0.5,1.2,1.2,1.2c0.7,0,1.2-0.5,1.2-1.2C16.2,16.8,15.7,16.3,15,16.3z"/>
	<linearGradient id="SVGID_69_" gradientUnits="userSpaceOnUse" x1="3.7049" y1="7.4845" x2="6.3017" y2="7.4845">
		<stop  offset="0" style="stop-color:#FFB449"/>
		<stop  offset="1" style="stop-color:#94304F"/>
	</linearGradient>
	<path class="st68" d="M6.3,7.5c0,0.7-0.6,1.3-1.3,1.3c-0.7,0-1.3-0.6-1.3-1.3c0-0.7,0.6-1.3,1.3-1.3C5.7,6.2,6.3,6.8,6.3,7.5z
		 M6.2,7.5c0-0.7-0.5-1.2-1.2-1.2c-0.7,0-1.2,0.5-1.2,1.2c0,0.7,0.5,1.2,1.2,1.2C5.7,8.7,6.2,8.1,6.2,7.5z"/>
	<linearGradient id="SVGID_70_" gradientUnits="userSpaceOnUse" x1="3.7057" y1="12.4755" x2="6.3009" y2="12.4755">
		<stop  offset="0" style="stop-color:#FFB449"/>
		<stop  offset="1" style="stop-color:#94304F"/>
	</linearGradient>
	<path class="st69" d="M5,11.2c0.7,0,1.3,0.6,1.3,1.3c0,0.7-0.6,1.3-1.3,1.3c-0.7,0-1.3-0.6-1.3-1.3C3.7,11.8,4.3,11.2,5,11.2z
		 M6.2,12.5c0-0.7-0.5-1.2-1.2-1.2c-0.7,0-1.2,0.5-1.2,1.2c0,0.7,0.5,1.2,1.2,1.2C5.7,13.7,6.2,13.1,6.2,12.5z"/>
	<linearGradient id="SVGID_71_" gradientUnits="userSpaceOnUse" x1="3.7058" y1="2.4938" x2="6.3014" y2="2.4938">
		<stop  offset="0" style="stop-color:#FFB449"/>
		<stop  offset="1" style="stop-color:#94304F"/>
	</linearGradient>
	<path class="st70" d="M5,3.8c-0.7,0-1.3-0.6-1.3-1.3c0-0.7,0.6-1.3,1.3-1.3c0.7,0,1.3,0.6,1.3,1.3C6.3,3.2,5.7,3.8,5,3.8z M5,3.7
		c0.7,0,1.2-0.5,1.2-1.2c0-0.7-0.5-1.2-1.2-1.2c-0.7,0-1.2,0.5-1.2,1.2C3.8,3.2,4.3,3.7,5,3.7z"/>
	<linearGradient id="SVGID_72_" gradientUnits="userSpaceOnUse" x1="8.7069" y1="2.4937" x2="11.3022" y2="2.4937">
		<stop  offset="0" style="stop-color:#FFB449"/>
		<stop  offset="1" style="stop-color:#94304F"/>
	</linearGradient>
	<path class="st71" d="M10,1.2c0.7,0,1.3,0.6,1.3,1.3c0,0.7-0.6,1.3-1.3,1.3c-0.7,0-1.3-0.6-1.3-1.3C8.7,1.8,9.3,1.2,10,1.2z
		 M8.8,2.5c0,0.7,0.5,1.2,1.2,1.2c0.7,0,1.2-0.5,1.2-1.2c0-0.7-0.5-1.2-1.2-1.2C9.3,1.3,8.8,1.8,8.8,2.5z"/>
	<linearGradient id="SVGID_73_" gradientUnits="userSpaceOnUse" x1="18.7106" y1="2.4934" x2="21.3063" y2="2.4934">
		<stop  offset="0" style="stop-color:#FFB449"/>
		<stop  offset="1" style="stop-color:#94304F"/>
	</linearGradient>
	<path class="st72" d="M18.7,2.5c0-0.7,0.6-1.3,1.3-1.3c0.7,0,1.3,0.6,1.3,1.3c0,0.7-0.6,1.3-1.3,1.3C19.3,3.8,18.7,3.2,18.7,2.5z
		 M18.8,2.5c0,0.7,0.5,1.2,1.2,1.2c0.7,0,1.2-0.5,1.2-1.2c0-0.7-0.5-1.2-1.2-1.2C19.3,1.3,18.8,1.8,18.8,2.5z"/>
	<linearGradient id="SVGID_74_" gradientUnits="userSpaceOnUse" x1="18.7102" y1="22.457" x2="21.3065" y2="22.457">
		<stop  offset="0" style="stop-color:#FFB449"/>
		<stop  offset="1" style="stop-color:#94304F"/>
	</linearGradient>
	<path class="st73" d="M20,23.8c-0.7,0-1.3-0.6-1.3-1.3c0-0.7,0.6-1.3,1.3-1.3c0.7,0,1.3,0.6,1.3,1.3C21.3,23.2,20.7,23.8,20,23.8z
		 M20,21.3c-0.7,0-1.2,0.5-1.2,1.2c0,0.7,0.5,1.2,1.2,1.2c0.7,0,1.2-0.5,1.2-1.2C21.2,21.8,20.7,21.3,20,21.3z"/>
	<linearGradient id="SVGID_75_" gradientUnits="userSpaceOnUse" x1="8.7071" y1="12.4757" x2="11.3026" y2="12.4757">
		<stop  offset="0" style="stop-color:#FFB449"/>
		<stop  offset="1" style="stop-color:#94304F"/>
	</linearGradient>
	<path class="st74" d="M10,11.2c0.7,0,1.3,0.6,1.3,1.3c0,0.7-0.6,1.3-1.3,1.3c-0.7,0-1.3-0.6-1.3-1.3C8.7,11.8,9.3,11.2,10,11.2z
		 M8.8,12.5c0,0.7,0.5,1.2,1.2,1.2c0.7,0,1.2-0.5,1.2-1.2c0-0.7-0.5-1.2-1.2-1.2C9.3,11.3,8.8,11.8,8.8,12.5z"/>
	<linearGradient id="SVGID_76_" gradientUnits="userSpaceOnUse" x1="6.2062" y1="9.9799" x2="8.8019" y2="9.9799">
		<stop  offset="0" style="stop-color:#FFB449"/>
		<stop  offset="1" style="stop-color:#94304F"/>
	</linearGradient>
	<path class="st75" d="M8.8,10c0,0.7-0.6,1.3-1.3,1.3c-0.7,0-1.3-0.6-1.3-1.3c0-0.7,0.6-1.3,1.3-1.3C8.2,8.7,8.8,9.3,8.8,10z
		 M6.3,10c0,0.7,0.5,1.2,1.2,1.2c0.7,0,1.2-0.5,1.2-1.2c0-0.7-0.5-1.2-1.2-1.2C6.8,8.8,6.3,9.3,6.3,10z"/>
	<linearGradient id="SVGID_77_" gradientUnits="userSpaceOnUse" x1="11.2074" y1="14.9709" x2="13.8042" y2="14.9709">
		<stop  offset="0" style="stop-color:#FFB449"/>
		<stop  offset="1" style="stop-color:#94304F"/>
	</linearGradient>
	<path class="st76" d="M12.5,16.3c-0.7,0-1.3-0.6-1.3-1.3c0-0.7,0.6-1.3,1.3-1.3c0.7,0,1.3,0.6,1.3,1.3
		C13.8,15.7,13.2,16.3,12.5,16.3z M12.5,16.2c0.7,0,1.2-0.5,1.2-1.2c0-0.7-0.5-1.2-1.2-1.2c-0.7,0-1.2,0.5-1.2,1.2
		C11.3,15.6,11.8,16.2,12.5,16.2z"/>
	<linearGradient id="SVGID_78_" gradientUnits="userSpaceOnUse" x1="11.2085" y1="9.9798" x2="13.8036" y2="9.9798">
		<stop  offset="0" style="stop-color:#FFB449"/>
		<stop  offset="1" style="stop-color:#94304F"/>
	</linearGradient>
	<path class="st77" d="M12.5,8.7c0.7,0,1.3,0.6,1.3,1.3c0,0.7-0.6,1.3-1.3,1.3c-0.7,0-1.3-0.6-1.3-1.3C11.2,9.3,11.8,8.7,12.5,8.7z
		 M11.3,10c0,0.7,0.5,1.2,1.2,1.2c0.7,0,1.2-0.5,1.2-1.2c0-0.7-0.5-1.2-1.2-1.2C11.8,8.8,11.3,9.3,11.3,10z"/>
	<linearGradient id="SVGID_79_" gradientUnits="userSpaceOnUse" x1="6.2067" y1="4.9894" x2="8.8019" y2="4.9894">
		<stop  offset="0" style="stop-color:#FFB449"/>
		<stop  offset="1" style="stop-color:#94304F"/>
	</linearGradient>
	<path class="st78" d="M7.5,6.3C6.8,6.3,6.2,5.7,6.2,5c0-0.7,0.6-1.3,1.3-1.3c0.7,0,1.3,0.6,1.3,1.3C8.8,5.7,8.2,6.3,7.5,6.3z
		 M6.3,5c0,0.7,0.5,1.2,1.2,1.2c0.7,0,1.2-0.5,1.2-1.2c0-0.7-0.5-1.2-1.2-1.2C6.8,3.8,6.3,4.3,6.3,5z"/>
	<linearGradient id="SVGID_80_" gradientUnits="userSpaceOnUse" x1="1.2046" y1="9.9798" x2="3.7998" y2="9.9798">
		<stop  offset="0" style="stop-color:#FFB449"/>
		<stop  offset="1" style="stop-color:#94304F"/>
	</linearGradient>
	<path class="st79" d="M3.8,10c0,0.7-0.6,1.3-1.3,1.3c-0.7,0-1.3-0.6-1.3-1.3c0-0.7,0.6-1.3,1.3-1.3C3.2,8.7,3.8,9.3,3.8,10z
		 M1.3,10c0,0.7,0.5,1.2,1.2,1.2c0.7,0,1.2-0.5,1.2-1.2c0-0.7-0.5-1.2-1.2-1.2C1.8,8.8,1.3,9.3,1.3,10z"/>
	<linearGradient id="SVGID_81_" gradientUnits="userSpaceOnUse" x1="1.2046" y1="4.9893" x2="3.7995" y2="4.9893">
		<stop  offset="0" style="stop-color:#FFB449"/>
		<stop  offset="1" style="stop-color:#94304F"/>
	</linearGradient>
	<path class="st80" d="M2.5,6.3C1.8,6.3,1.2,5.7,1.2,5c0-0.7,0.6-1.3,1.3-1.3c0.7,0,1.3,0.6,1.3,1.3C3.8,5.7,3.2,6.3,2.5,6.3z
		 M1.3,5c0,0.7,0.5,1.2,1.2,1.2c0.7,0,1.2-0.5,1.2-1.2c0-0.7-0.5-1.2-1.2-1.2C1.8,3.8,1.3,4.3,1.3,5z"/>
	<linearGradient id="SVGID_82_" gradientUnits="userSpaceOnUse" x1="19.3391" y1="7.4844" x2="20.675" y2="7.4844">
		<stop  offset="0" style="stop-color:#FFB449"/>
		<stop  offset="1" style="stop-color:#94304F"/>
	</linearGradient>
	<path class="st81" d="M20.7,7.5c0,0.4-0.3,0.7-0.7,0.7c-0.4,0-0.7-0.3-0.7-0.7c0-0.4,0.3-0.7,0.7-0.7C20.4,6.8,20.7,7.1,20.7,7.5z
		 M20.6,7.5c0-0.3-0.3-0.6-0.6-0.6c-0.3,0-0.6,0.3-0.6,0.6c0,0.3,0.3,0.6,0.6,0.6C20.3,8.1,20.6,7.8,20.6,7.5z"/>
	<linearGradient id="SVGID_83_" gradientUnits="userSpaceOnUse" x1="16.8395" y1="19.96" x2="18.1732" y2="19.96">
		<stop  offset="0" style="stop-color:#FFB449"/>
		<stop  offset="1" style="stop-color:#94304F"/>
	</linearGradient>
	<path class="st82" d="M18.2,20c0,0.4-0.3,0.7-0.7,0.7c-0.4,0-0.7-0.3-0.7-0.7c0-0.4,0.3-0.7,0.7-0.7C17.9,19.3,18.2,19.6,18.2,20z
		 M18.1,20c0-0.3-0.3-0.6-0.6-0.6c-0.3,0-0.6,0.3-0.6,0.6c0,0.3,0.3,0.6,0.6,0.6C17.8,20.5,18.1,20.3,18.1,20z"/>
	<linearGradient id="SVGID_84_" gradientUnits="userSpaceOnUse" x1="14.3374" y1="7.4844" x2="15.6739" y2="7.4844">
		<stop  offset="0" style="stop-color:#FFB449"/>
		<stop  offset="1" style="stop-color:#94304F"/>
	</linearGradient>
	<path class="st83" d="M15.7,7.5c0,0.4-0.3,0.7-0.7,0.7c-0.4,0-0.7-0.3-0.7-0.7c0-0.4,0.3-0.7,0.7-0.7C15.4,6.8,15.7,7.1,15.7,7.5z
		 M15.6,7.5c0-0.3-0.3-0.6-0.6-0.6c-0.3,0-0.6,0.3-0.6,0.6c0,0.3,0.3,0.6,0.6,0.6C15.3,8.1,15.6,7.8,15.6,7.5z"/>
	<linearGradient id="SVGID_85_" gradientUnits="userSpaceOnUse" x1="14.3383" y1="12.4742" x2="15.6725" y2="12.4742">
		<stop  offset="0" style="stop-color:#FFB449"/>
		<stop  offset="1" style="stop-color:#94304F"/>
	</linearGradient>
	<path class="st84" d="M15,13.1c-0.4,0-0.7-0.3-0.7-0.7c0-0.4,0.3-0.7,0.7-0.7c0.4,0,0.7,0.3,0.7,0.7C15.7,12.8,15.4,13.1,15,13.1z
		 M15,13.1c0.3,0,0.6-0.3,0.6-0.6c0-0.3-0.3-0.6-0.6-0.6c-0.3,0-0.6,0.3-0.6,0.6C14.4,12.8,14.7,13.1,15,13.1z"/>
	<linearGradient id="SVGID_86_" gradientUnits="userSpaceOnUse" x1="4.3344" y1="22.456" x2="5.6699" y2="22.456">
		<stop  offset="0" style="stop-color:#FFB449"/>
		<stop  offset="1" style="stop-color:#94304F"/>
	</linearGradient>
	<path class="st85" d="M5,21.8c0.4,0,0.7,0.3,0.7,0.7c0,0.4-0.3,0.7-0.6,0.7c-0.4,0-0.7-0.3-0.7-0.7C4.3,22.1,4.6,21.8,5,21.8z
		 M5,23c0.3,0,0.6-0.3,0.6-0.6c0-0.3-0.3-0.6-0.6-0.6c-0.3,0-0.6,0.3-0.6,0.6C4.4,22.8,4.7,23,5,23z"/>
	<linearGradient id="SVGID_87_" gradientUnits="userSpaceOnUse" x1="21.8416" y1="4.9884" x2="23.1744" y2="4.9884">
		<stop  offset="0" style="stop-color:#FFB449"/>
		<stop  offset="1" style="stop-color:#94304F"/>
	</linearGradient>
	<path class="st86" d="M23.2,5c0,0.4-0.3,0.7-0.7,0.7c-0.4,0-0.7-0.3-0.7-0.7c0-0.4,0.3-0.7,0.7-0.7C22.9,4.3,23.2,4.6,23.2,5z
		 M22.5,5.6c0.3,0,0.6-0.3,0.6-0.6c0-0.3-0.3-0.6-0.6-0.6c-0.3,0-0.6,0.3-0.6,0.6C21.9,5.3,22.2,5.6,22.5,5.6z"/>
	<linearGradient id="SVGID_88_" gradientUnits="userSpaceOnUse" x1="9.3382" y1="17.4654" x2="10.6722" y2="17.4654">
		<stop  offset="0" style="stop-color:#FFB449"/>
		<stop  offset="1" style="stop-color:#94304F"/>
	</linearGradient>
	<path class="st87" d="M10,18.1c-0.4,0-0.7-0.3-0.7-0.7c0-0.4,0.3-0.7,0.7-0.7c0.4,0,0.7,0.3,0.7,0.7C10.7,17.8,10.4,18.1,10,18.1z
		 M10.6,17.5c0-0.3-0.3-0.6-0.6-0.6c-0.3,0-0.6,0.3-0.6,0.6c0,0.3,0.3,0.6,0.6,0.6C10.3,18.1,10.6,17.8,10.6,17.5z"/>
	<linearGradient id="SVGID_89_" gradientUnits="userSpaceOnUse" x1="16.8395" y1="14.9705" x2="18.1743" y2="14.9705">
		<stop  offset="0" style="stop-color:#FFB449"/>
		<stop  offset="1" style="stop-color:#94304F"/>
	</linearGradient>
	<path class="st88" d="M17.5,14.3c0.4,0,0.7,0.3,0.7,0.7c0,0.4-0.3,0.7-0.7,0.7c-0.4,0-0.7-0.3-0.7-0.7
		C16.8,14.6,17.1,14.3,17.5,14.3z M18.1,15c0-0.3-0.2-0.6-0.6-0.6c-0.3,0-0.6,0.2-0.6,0.6c0,0.3,0.2,0.6,0.6,0.6
		C17.8,15.6,18.1,15.3,18.1,15z"/>
	<linearGradient id="SVGID_90_" gradientUnits="userSpaceOnUse" x1="14.3387" y1="2.4936" x2="15.6729" y2="2.4936">
		<stop  offset="0" style="stop-color:#FFB449"/>
		<stop  offset="1" style="stop-color:#94304F"/>
	</linearGradient>
	<path class="st89" d="M15.7,2.5c0,0.4-0.3,0.7-0.7,0.7c-0.4,0-0.7-0.3-0.7-0.7c0-0.4,0.3-0.7,0.7-0.7C15.4,1.8,15.7,2.1,15.7,2.5z
		 M15,1.9c-0.3,0-0.6,0.3-0.6,0.6c0,0.3,0.3,0.6,0.6,0.6c0.3,0,0.6-0.3,0.6-0.6C15.6,2.2,15.3,1.9,15,1.9z"/>
	<linearGradient id="SVGID_91_" gradientUnits="userSpaceOnUse" x1="21.8397" y1="14.9702" x2="23.1757" y2="14.9702">
		<stop  offset="0" style="stop-color:#FFB449"/>
		<stop  offset="1" style="stop-color:#94304F"/>
	</linearGradient>
	<path class="st90" d="M23.2,15c0,0.4-0.3,0.7-0.7,0.7c-0.4,0-0.7-0.3-0.7-0.7c0-0.4,0.3-0.7,0.7-0.7C22.9,14.3,23.2,14.6,23.2,15z
		 M23.1,15c0-0.3-0.3-0.6-0.6-0.6c-0.3,0-0.6,0.3-0.6,0.6c0,0.3,0.3,0.6,0.6,0.6C22.8,15.5,23.1,15.3,23.1,15z"/>
	<linearGradient id="SVGID_92_" gradientUnits="userSpaceOnUse" x1="21.8414" y1="9.9799" x2="23.1743" y2="9.9799">
		<stop  offset="0" style="stop-color:#FFB449"/>
		<stop  offset="1" style="stop-color:#94304F"/>
	</linearGradient>
	<path class="st91" d="M22.5,9.3c0.4,0,0.7,0.3,0.7,0.7c0,0.4-0.3,0.7-0.7,0.7c-0.4,0-0.7-0.3-0.7-0.7C21.8,9.6,22.1,9.3,22.5,9.3z
		 M22.5,9.4c-0.3,0-0.6,0.3-0.6,0.6c0,0.3,0.3,0.6,0.6,0.6c0.3,0,0.6-0.3,0.6-0.6C23.1,9.7,22.8,9.4,22.5,9.4z"/>
	<linearGradient id="SVGID_93_" gradientUnits="userSpaceOnUse" x1="16.841" y1="4.9888" x2="18.1731" y2="4.9888">
		<stop  offset="0" style="stop-color:#FFB449"/>
		<stop  offset="1" style="stop-color:#94304F"/>
	</linearGradient>
	<path class="st92" d="M17.5,4.3c0.4,0,0.7,0.3,0.7,0.7c0,0.4-0.3,0.7-0.7,0.7c-0.4,0-0.7-0.3-0.7-0.7C16.8,4.6,17.1,4.3,17.5,4.3z
		 M18.1,5c0-0.3-0.3-0.6-0.6-0.6c-0.3,0-0.6,0.3-0.6,0.6c0,0.3,0.3,0.6,0.6,0.6C17.8,5.6,18.1,5.3,18.1,5z"/>
	<linearGradient id="SVGID_94_" gradientUnits="userSpaceOnUse" x1="19.34" y1="17.4657" x2="20.6736" y2="17.4657">
		<stop  offset="0" style="stop-color:#FFB449"/>
		<stop  offset="1" style="stop-color:#94304F"/>
	</linearGradient>
	<path class="st93" d="M20,16.8c0.4,0,0.7,0.3,0.7,0.7c0,0.4-0.3,0.7-0.7,0.7c-0.4,0-0.7-0.3-0.7-0.7C19.3,17.1,19.6,16.8,20,16.8z
		 M20.6,17.5c0-0.3-0.3-0.6-0.6-0.6c-0.3,0-0.6,0.3-0.6,0.6c0,0.3,0.3,0.6,0.6,0.6C20.3,18.1,20.6,17.8,20.6,17.5z"/>
	<linearGradient id="SVGID_95_" gradientUnits="userSpaceOnUse" x1="4.3362" y1="17.4658" x2="5.669" y2="17.4658">
		<stop  offset="0" style="stop-color:#FFB449"/>
		<stop  offset="1" style="stop-color:#94304F"/>
	</linearGradient>
	<path class="st94" d="M5,18.1c-0.4,0-0.7-0.3-0.7-0.7c0-0.4,0.3-0.7,0.7-0.7c0.4,0,0.7,0.3,0.7,0.7C5.7,17.8,5.4,18.1,5,18.1z
		 M5.6,17.5c0-0.3-0.3-0.6-0.6-0.6c-0.3,0-0.6,0.3-0.6,0.6C4.4,17.8,4.7,18,5,18C5.3,18,5.6,17.8,5.6,17.5z"/>
	<linearGradient id="SVGID_96_" gradientUnits="userSpaceOnUse" x1="6.836" y1="14.9699" x2="8.1715" y2="14.9699">
		<stop  offset="0" style="stop-color:#FFB449"/>
		<stop  offset="1" style="stop-color:#94304F"/>
	</linearGradient>
	<path class="st95" d="M8.2,15c0,0.4-0.3,0.7-0.7,0.7c-0.4,0-0.7-0.3-0.7-0.7c0-0.4,0.3-0.7,0.7-0.7C7.9,14.3,8.2,14.6,8.2,15z
		 M8.1,15c0-0.3-0.3-0.6-0.6-0.6c-0.3,0-0.6,0.3-0.6,0.6c0,0.3,0.3,0.6,0.6,0.6C7.8,15.6,8.1,15.3,8.1,15z"/>
	<linearGradient id="SVGID_97_" gradientUnits="userSpaceOnUse" x1="14.3378" y1="22.4559" x2="15.6736" y2="22.4559">
		<stop  offset="0" style="stop-color:#FFB449"/>
		<stop  offset="1" style="stop-color:#94304F"/>
	</linearGradient>
	<path class="st96" d="M15,23.1c-0.4,0-0.7-0.3-0.7-0.7c0-0.4,0.3-0.7,0.7-0.7c0.4,0,0.7,0.3,0.7,0.7C15.7,22.8,15.4,23.1,15,23.1z
		 M15,23c0.3,0,0.6-0.3,0.6-0.6c0-0.3-0.3-0.6-0.6-0.6c-0.3,0-0.6,0.3-0.6,0.6C14.4,22.8,14.7,23,15,23z"/>
	<linearGradient id="SVGID_98_" gradientUnits="userSpaceOnUse" x1="21.8413" y1="19.9602" x2="23.1739" y2="19.9602">
		<stop  offset="0" style="stop-color:#FFB449"/>
		<stop  offset="1" style="stop-color:#94304F"/>
	</linearGradient>
	<path class="st97" d="M23.2,20c0,0.4-0.3,0.7-0.7,0.7c-0.4,0-0.7-0.3-0.7-0.7c0-0.4,0.3-0.7,0.7-0.7C22.9,19.3,23.2,19.6,23.2,20z
		 M23.1,20c0-0.3-0.3-0.6-0.6-0.6c-0.3,0-0.6,0.3-0.6,0.6c0,0.3,0.3,0.6,0.6,0.6C22.8,20.5,23.1,20.3,23.1,20z"/>
	<linearGradient id="SVGID_99_" gradientUnits="userSpaceOnUse" x1="19.3403" y1="12.4745" x2="20.6735" y2="12.4745">
		<stop  offset="0" style="stop-color:#FFB449"/>
		<stop  offset="1" style="stop-color:#94304F"/>
	</linearGradient>
	<path class="st98" d="M20,13.1c-0.4,0-0.7-0.3-0.7-0.7c0-0.4,0.3-0.7,0.7-0.7c0.4,0,0.7,0.3,0.7,0.7C20.7,12.8,20.4,13.1,20,13.1z
		 M20,11.9c-0.3,0-0.6,0.2-0.6,0.6c0,0.3,0.2,0.6,0.6,0.6c0.3,0,0.6-0.3,0.6-0.6C20.6,12.2,20.3,11.9,20,11.9z"/>
	<linearGradient id="SVGID_100_" gradientUnits="userSpaceOnUse" x1="1.8348" y1="14.9699" x2="3.1697" y2="14.9699">
		<stop  offset="0" style="stop-color:#FFB449"/>
		<stop  offset="1" style="stop-color:#94304F"/>
	</linearGradient>
	<path class="st99" d="M3.2,15c0,0.4-0.3,0.7-0.7,0.7c-0.4,0-0.7-0.3-0.7-0.7c0-0.4,0.3-0.7,0.7-0.7C2.9,14.3,3.2,14.6,3.2,15z
		 M2.5,14.4c-0.3,0-0.6,0.3-0.6,0.6c0,0.3,0.3,0.6,0.6,0.6c0.3,0,0.6-0.3,0.6-0.6C3.1,14.7,2.8,14.4,2.5,14.4z"/>
	<linearGradient id="SVGID_101_" gradientUnits="userSpaceOnUse" x1="9.3368" y1="22.4559" x2="10.6721" y2="22.4559">
		<stop  offset="0" style="stop-color:#FFB449"/>
		<stop  offset="1" style="stop-color:#94304F"/>
	</linearGradient>
	<path class="st100" d="M10,23.1c-0.4,0-0.7-0.3-0.7-0.7c0-0.4,0.3-0.7,0.7-0.7c0.4,0,0.7,0.3,0.6,0.7C10.7,22.8,10.4,23.1,10,23.1z
		 M10.6,22.5c0-0.3-0.3-0.6-0.6-0.6c-0.3,0-0.6,0.3-0.6,0.6c0,0.3,0.3,0.6,0.6,0.6C10.3,23,10.6,22.8,10.6,22.5z"/>
	<linearGradient id="SVGID_102_" gradientUnits="userSpaceOnUse" x1="6.8373" y1="19.9603" x2="8.1704" y2="19.9603">
		<stop  offset="0" style="stop-color:#FFB449"/>
		<stop  offset="1" style="stop-color:#94304F"/>
	</linearGradient>
	<path class="st101" d="M8.2,20c0,0.4-0.3,0.7-0.7,0.7c-0.4,0-0.7-0.3-0.7-0.6c0-0.4,0.3-0.7,0.7-0.7C7.9,19.3,8.2,19.6,8.2,20z
		 M8.1,20c0-0.3-0.3-0.6-0.6-0.6c-0.3,0-0.6,0.3-0.6,0.6c0,0.3,0.3,0.6,0.6,0.6C7.8,20.5,8.1,20.3,8.1,20z"/>
	<linearGradient id="SVGID_103_" gradientUnits="userSpaceOnUse" x1="11.8387" y1="19.9604" x2="13.171" y2="19.9604">
		<stop  offset="0" style="stop-color:#FFB449"/>
		<stop  offset="1" style="stop-color:#94304F"/>
	</linearGradient>
	<path class="st102" d="M12.5,20.6c-0.4,0-0.7-0.3-0.7-0.7c0-0.4,0.3-0.7,0.7-0.7c0.4,0,0.7,0.3,0.7,0.7
		C13.2,20.3,12.9,20.6,12.5,20.6z M12.5,20.5c0.3,0,0.6-0.3,0.6-0.6c0-0.3-0.3-0.6-0.6-0.6c-0.3,0-0.6,0.3-0.6,0.6
		C11.9,20.3,12.2,20.5,12.5,20.5z"/>
	<linearGradient id="SVGID_104_" gradientUnits="userSpaceOnUse" x1="9.3368" y1="7.4843" x2="10.6727" y2="7.4843">
		<stop  offset="0" style="stop-color:#FFB449"/>
		<stop  offset="1" style="stop-color:#94304F"/>
	</linearGradient>
	<path class="st103" d="M10.7,7.5c0,0.4-0.3,0.7-0.7,0.7c-0.4,0-0.7-0.3-0.7-0.7c0-0.4,0.3-0.6,0.7-0.6C10.4,6.8,10.7,7.1,10.7,7.5z
		 M10.6,7.5c0-0.3-0.3-0.6-0.6-0.6c-0.3,0-0.6,0.3-0.6,0.6c0,0.3,0.3,0.6,0.6,0.6C10.3,8.1,10.6,7.8,10.6,7.5z"/>
	<linearGradient id="SVGID_105_" gradientUnits="userSpaceOnUse" x1="16.8406" y1="9.9798" x2="18.1732" y2="9.9798">
		<stop  offset="0" style="stop-color:#FFB449"/>
		<stop  offset="1" style="stop-color:#94304F"/>
	</linearGradient>
	<path class="st104" d="M18.2,10c0,0.4-0.3,0.7-0.7,0.7c-0.4,0-0.7-0.3-0.6-0.7c0-0.4,0.3-0.7,0.7-0.7C17.9,9.3,18.2,9.6,18.2,10z
		 M17.5,10.6c0.3,0,0.6-0.3,0.6-0.6c0-0.3-0.3-0.6-0.6-0.6c-0.3,0-0.6,0.3-0.6,0.6C16.9,10.3,17.2,10.6,17.5,10.6z"/>
	<linearGradient id="SVGID_106_" gradientUnits="userSpaceOnUse" x1="11.8389" y1="4.9888" x2="13.1708" y2="4.9888">
		<stop  offset="0" style="stop-color:#FFB449"/>
		<stop  offset="1" style="stop-color:#94304F"/>
	</linearGradient>
	<path class="st105" d="M12.5,5.7c-0.4,0-0.7-0.3-0.7-0.7c0-0.4,0.3-0.7,0.7-0.7c0.4,0,0.7,0.3,0.7,0.7C13.2,5.4,12.9,5.7,12.5,5.7z
		 M12.5,5.6c0.3,0,0.6-0.3,0.6-0.6c0-0.3-0.3-0.6-0.6-0.6c-0.3,0-0.6,0.3-0.6,0.6C11.9,5.3,12.2,5.6,12.5,5.6z"/>
	<linearGradient id="SVGID_107_" gradientUnits="userSpaceOnUse" x1="1.8361" y1="19.9604" x2="3.169" y2="19.9604">
		<stop  offset="0" style="stop-color:#FFB449"/>
		<stop  offset="1" style="stop-color:#94304F"/>
	</linearGradient>
	<path class="st106" d="M2.5,20.6c-0.4,0-0.7-0.3-0.7-0.7c0-0.4,0.3-0.7,0.7-0.7c0.4,0,0.7,0.3,0.7,0.7C3.2,20.3,2.9,20.6,2.5,20.6z
		 M3.1,20c0-0.3-0.3-0.6-0.6-0.6c-0.3,0-0.6,0.3-0.6,0.6c0,0.3,0.3,0.6,0.6,0.6C2.8,20.5,3.1,20.3,3.1,20z"/>
	<linearGradient id="SVGID_108_" gradientUnits="userSpaceOnUse" x1="14.3384" y1="17.4658" x2="15.673" y2="17.4658">
		<stop  offset="0" style="stop-color:#FFB449"/>
		<stop  offset="1" style="stop-color:#94304F"/>
	</linearGradient>
	<path class="st107" d="M15,16.8c0.4,0,0.7,0.3,0.7,0.7c0,0.4-0.3,0.7-0.7,0.7c-0.4,0-0.7-0.3-0.7-0.7C14.3,17.1,14.6,16.8,15,16.8z
		 M15,18c0.3,0,0.6-0.3,0.6-0.6c0-0.3-0.3-0.6-0.6-0.6c-0.3,0-0.6,0.3-0.6,0.6C14.4,17.8,14.7,18,15,18z"/>
	<linearGradient id="SVGID_109_" gradientUnits="userSpaceOnUse" x1="4.335" y1="7.4841" x2="5.6712" y2="7.4841">
		<stop  offset="0" style="stop-color:#FFB449"/>
		<stop  offset="1" style="stop-color:#94304F"/>
	</linearGradient>
	<path class="st108" d="M5.7,7.5c0,0.4-0.3,0.7-0.7,0.7c-0.4,0-0.7-0.3-0.7-0.7c0-0.4,0.3-0.7,0.7-0.7C5.4,6.8,5.7,7.1,5.7,7.5z
		 M5,6.9c-0.3,0-0.6,0.3-0.6,0.6c0,0.3,0.3,0.6,0.6,0.6c0.3,0,0.6-0.3,0.6-0.6C5.6,7.2,5.3,6.9,5,6.9z"/>
	<linearGradient id="SVGID_110_" gradientUnits="userSpaceOnUse" x1="4.3362" y1="12.4743" x2="5.6693" y2="12.4743">
		<stop  offset="0" style="stop-color:#FFB449"/>
		<stop  offset="1" style="stop-color:#94304F"/>
	</linearGradient>
	<path class="st109" d="M5,11.8c0.4,0,0.7,0.3,0.7,0.7c0,0.4-0.3,0.7-0.7,0.7c-0.4,0-0.7-0.3-0.7-0.7C4.3,12.1,4.6,11.8,5,11.8z
		 M5.6,12.5c0-0.3-0.3-0.6-0.6-0.6c-0.3,0-0.6,0.3-0.6,0.6c0,0.3,0.3,0.6,0.6,0.6C5.3,13.1,5.6,12.8,5.6,12.5z"/>
	<linearGradient id="SVGID_111_" gradientUnits="userSpaceOnUse" x1="4.336" y1="2.4937" x2="5.6693" y2="2.4937">
		<stop  offset="0" style="stop-color:#FFB449"/>
		<stop  offset="1" style="stop-color:#94304F"/>
	</linearGradient>
	<path class="st110" d="M5.7,2.5c0,0.4-0.3,0.7-0.7,0.7c-0.4,0-0.7-0.3-0.7-0.7c0-0.4,0.3-0.7,0.7-0.7C5.4,1.8,5.7,2.1,5.7,2.5z
		 M5.6,2.5c0-0.3-0.3-0.6-0.6-0.6c-0.3,0-0.6,0.3-0.6,0.6c0,0.3,0.3,0.6,0.6,0.6C5.3,3.1,5.6,2.8,5.6,2.5z"/>
	<linearGradient id="SVGID_112_" gradientUnits="userSpaceOnUse" x1="9.3383" y1="2.4941" x2="10.6716" y2="2.4941">
		<stop  offset="0" style="stop-color:#FFB449"/>
		<stop  offset="1" style="stop-color:#94304F"/>
	</linearGradient>
	<path class="st111" d="M10.7,2.5c0,0.4-0.3,0.7-0.7,0.7c-0.4,0-0.7-0.3-0.7-0.7c0-0.4,0.3-0.7,0.7-0.7C10.4,1.8,10.7,2.1,10.7,2.5z
		 M10,3.1c0.3,0,0.6-0.2,0.6-0.6c0-0.3-0.2-0.6-0.6-0.6c-0.3,0-0.6,0.2-0.6,0.5C9.4,2.8,9.7,3.1,10,3.1z"/>
	<linearGradient id="SVGID_113_" gradientUnits="userSpaceOnUse" x1="19.3409" y1="2.4936" x2="20.6733" y2="2.4936">
		<stop  offset="0" style="stop-color:#FFB449"/>
		<stop  offset="1" style="stop-color:#94304F"/>
	</linearGradient>
	<path class="st112" d="M20.7,2.5c0,0.4-0.3,0.7-0.7,0.7c-0.4,0-0.7-0.3-0.7-0.7c0-0.4,0.3-0.7,0.7-0.7C20.4,1.8,20.7,2.1,20.7,2.5z
		 M20,3.1c0.3,0,0.6-0.3,0.6-0.6c0-0.3-0.3-0.6-0.6-0.6c-0.3,0-0.6,0.3-0.6,0.6C19.4,2.8,19.7,3.1,20,3.1z"/>
	<linearGradient id="SVGID_114_" gradientUnits="userSpaceOnUse" x1="19.339" y1="22.4558" x2="20.6744" y2="22.4558">
		<stop  offset="0" style="stop-color:#FFB449"/>
		<stop  offset="1" style="stop-color:#94304F"/>
	</linearGradient>
	<path class="st113" d="M20.7,22.4c0,0.4-0.3,0.7-0.7,0.7c-0.4,0-0.7-0.3-0.7-0.7c0-0.4,0.3-0.7,0.7-0.7
		C20.4,21.8,20.7,22.1,20.7,22.4z M20.6,22.4c0-0.3-0.3-0.6-0.6-0.6c-0.3,0-0.6,0.3-0.6,0.6c0,0.3,0.3,0.6,0.6,0.6
		C20.3,23,20.6,22.8,20.6,22.4z"/>
	<linearGradient id="SVGID_115_" gradientUnits="userSpaceOnUse" x1="9.3385" y1="12.4746" x2="10.6711" y2="12.4746">
		<stop  offset="0" style="stop-color:#FFB449"/>
		<stop  offset="1" style="stop-color:#94304F"/>
	</linearGradient>
	<path class="st114" d="M10.7,12.5c0,0.4-0.3,0.7-0.7,0.7c-0.4,0-0.7-0.3-0.7-0.7c0-0.4,0.3-0.7,0.7-0.7
		C10.4,11.8,10.7,12.1,10.7,12.5z M10,13.1c0.3,0,0.6-0.3,0.6-0.6c0-0.3-0.3-0.6-0.6-0.6c-0.3,0-0.6,0.3-0.6,0.6
		C9.4,12.8,9.7,13.1,10,13.1z"/>
	<linearGradient id="SVGID_116_" gradientUnits="userSpaceOnUse" x1="6.8379" y1="9.98" x2="8.1703" y2="9.98">
		<stop  offset="0" style="stop-color:#FFB449"/>
		<stop  offset="1" style="stop-color:#94304F"/>
	</linearGradient>
	<path class="st115" d="M8.2,10c0,0.4-0.3,0.7-0.7,0.7c-0.4,0-0.7-0.3-0.7-0.7c0-0.4,0.3-0.7,0.7-0.7C7.9,9.3,8.2,9.6,8.2,10z
		 M8.1,10c0-0.3-0.3-0.6-0.6-0.6c-0.3,0-0.6,0.3-0.6,0.6c0,0.3,0.3,0.6,0.6,0.6C7.8,10.5,8.1,10.3,8.1,10z"/>
	<linearGradient id="SVGID_117_" gradientUnits="userSpaceOnUse" x1="11.837" y1="14.9699" x2="13.1719" y2="14.9699">
		<stop  offset="0" style="stop-color:#FFB449"/>
		<stop  offset="1" style="stop-color:#94304F"/>
	</linearGradient>
	<path class="st116" d="M13.2,15c0,0.4-0.3,0.7-0.7,0.7c-0.4,0-0.7-0.3-0.7-0.7c0-0.4,0.3-0.7,0.7-0.7C12.9,14.3,13.2,14.6,13.2,15z
		 M13.1,15c0-0.3-0.3-0.6-0.6-0.6c-0.3,0-0.6,0.3-0.6,0.6c0,0.3,0.3,0.6,0.6,0.6C12.8,15.6,13.1,15.3,13.1,15z"/>
	<linearGradient id="SVGID_118_" gradientUnits="userSpaceOnUse" x1="11.8384" y1="9.9798" x2="13.1708" y2="9.9798">
		<stop  offset="0" style="stop-color:#FFB449"/>
		<stop  offset="1" style="stop-color:#94304F"/>
	</linearGradient>
	<path class="st117" d="M13.2,10c0,0.4-0.3,0.7-0.7,0.7c-0.4,0-0.7-0.3-0.7-0.7c0-0.4,0.3-0.7,0.7-0.7C12.9,9.3,13.2,9.6,13.2,10z
		 M13.1,10c0-0.3-0.3-0.6-0.6-0.6c-0.3,0-0.6,0.3-0.6,0.6c0,0.3,0.3,0.6,0.6,0.6C12.8,10.6,13.1,10.3,13.1,10z"/>
	<linearGradient id="SVGID_119_" gradientUnits="userSpaceOnUse" x1="6.8376" y1="4.9884" x2="8.1702" y2="4.9884">
		<stop  offset="0" style="stop-color:#FFB449"/>
		<stop  offset="1" style="stop-color:#94304F"/>
	</linearGradient>
	<path class="st118" d="M7.5,5.7C7.1,5.7,6.8,5.4,6.8,5c0-0.4,0.3-0.7,0.7-0.7c0.4,0,0.7,0.3,0.7,0.7C8.2,5.4,7.9,5.7,7.5,5.7z
		 M7.5,4.4C7.2,4.4,6.9,4.7,6.9,5c0,0.3,0.3,0.6,0.6,0.6c0.3,0,0.6-0.2,0.6-0.6C8.1,4.7,7.8,4.4,7.5,4.4z"/>
	<linearGradient id="SVGID_120_" gradientUnits="userSpaceOnUse" x1="1.8364" y1="9.98" x2="3.1685" y2="9.98">
		<stop  offset="0" style="stop-color:#FFB449"/>
		<stop  offset="1" style="stop-color:#94304F"/>
	</linearGradient>
	<path class="st119" d="M3.2,10c0,0.4-0.3,0.7-0.7,0.7c-0.4,0-0.7-0.3-0.7-0.6c0-0.4,0.3-0.7,0.7-0.7C2.9,9.3,3.2,9.6,3.2,10z
		 M3.1,10c0-0.3-0.3-0.6-0.6-0.6c-0.3,0-0.6,0.3-0.6,0.6c0,0.3,0.3,0.6,0.6,0.6C2.8,10.6,3.1,10.3,3.1,10z"/>
	<linearGradient id="SVGID_121_" gradientUnits="userSpaceOnUse" x1="1.8365" y1="4.9888" x2="3.1684" y2="4.9888">
		<stop  offset="0" style="stop-color:#FFB449"/>
		<stop  offset="1" style="stop-color:#94304F"/>
	</linearGradient>
	<path class="st120" d="M3.2,5c0,0.4-0.3,0.7-0.7,0.7C2.1,5.7,1.8,5.4,1.8,5c0-0.4,0.3-0.7,0.7-0.7C2.9,4.3,3.2,4.6,3.2,5z M2.5,4.4
		C2.2,4.4,1.9,4.7,1.9,5c0,0.3,0.3,0.6,0.6,0.6c0.3,0,0.6-0.3,0.6-0.6C3.1,4.7,2.8,4.4,2.5,4.4z"/>
</g>
</svg>
