<?xml version="1.0" encoding="utf-8"?>
<!-- Generator: Adobe Illustrator 21.1.0, SVG Export Plug-In . SVG Version: 6.00 Build 0)  -->
<svg version="1.1" id="Layer_1" xmlns="http://www.w3.org/2000/svg" xmlns:xlink="http://www.w3.org/1999/xlink" x="0px" y="0px"
	 viewBox="0 0 650 104" style="enable-background:new 0 0 650 104;" xml:space="preserve">
<style type="text/css">
	.st0{fill:#94304F;}
	.st1{fill:#FFB449;}
	.st2{fill:#FDD479;}
	.st3{fill:#FFFFFF;}
	.st4{font-family:'Playball-Regular';}
	.st5{font-size:78.5789px;}
</style>
<rect x="-1" class="st0" width="651.5" height="104.1"/>
<g id="heart">
	<g>
		<path class="st1" d="M112.7,13.2c-12.7-12.6-33-12.8-46.2-1c-13.1-11.9-33.4-11.6-46.1,1c-13.1,13-13.1,34,0,47
			c3.8,3.7,38.7,38.3,38.7,38.3c4.2,4.1,10.9,4.1,14.9,0c0,0,38.2-37.9,38.7-38.3C125.8,47.2,125.8,26.1,112.7,13.2z M107.7,55.2
			L69,93.5c-1.4,1.4-3.6,1.4-5,0L25.3,55.2C15,45,15,28.3,25.3,18.2c10-9.9,26-10.3,36.5-0.8l4.8,4.3l4.8-4.3
			c10.5-9.4,26.5-9.1,36.5,0.8C118,28.3,118,44.9,107.7,55.2z"/>
	</g>
</g>
<path class="st2" d="M104.3,52.2c-0.1,5.5-2,10.3-5.9,14.2C90.3,74.4,82.2,82.5,74,90.5c-1.8,1.7-3.6,3.6-5.4,5.3
	c-1.3,1.3-2.8,1.3-4.1,0C54.7,86.1,44.8,76.4,35,66.6c-4.5-4.5-6.5-9.8-6-16c0.6-8.6,7.1-16.1,15.5-18c7-1.6,13.2,0.1,18.5,4.9
	c1.1,1,2.1,1.8,3.1,2.8c0.3,0.3,0.5,0.3,0.8,0c1.5-1.3,2.8-2.7,4.4-3.9c11.8-9.1,28.9-3.2,32.4,11.2
	C104.1,49.1,104.3,50.7,104.3,52.2z"/>
<g>
	<g>
		<g>
			<text transform="matrix(1 0 0 1 121.8667 78.5928)" class="st3 st4 st5">Jain Bandhan</text>
		</g>
	</g>
</g>
</svg>
