<?xml version="1.0" encoding="utf-8"?>
<!-- Generator: Adobe Illustrator 21.1.0, SVG Export Plug-In . SVG Version: 6.00 Build 0)  -->
<svg version="1.1" id="Layer_1" xmlns="http://www.w3.org/2000/svg" xmlns:xlink="http://www.w3.org/1999/xlink" x="0px" y="0px"
	 viewBox="0 0 25 19" style="enable-background:new 0 0 25 19;" xml:space="preserve">
<style type="text/css">
	.st0{fill:#FFB449;}
	.st1{fill:#FFFFFF;}
</style>
<g>
	<path class="st0" d="M6.2,16.5h12.7c0.3,0,0.6,0.4,0.6,1s-0.3,1-0.6,1H6.2c-0.3,0-0.6-0.4-0.6-1S5.9,16.5,6.2,16.5z"/>
	<path class="st1" d="M1.5,8.5h22c0.6,0,1,0.4,1,1s-0.4,1-1,1h-22c-0.6,0-1-0.4-1-1S0.9,8.5,1.5,8.5z"/>
	<path class="st0" d="M6.2,0.5h12.7c0.3,0,0.6,0.4,0.6,1s-0.3,1-0.6,1H6.2c-0.3,0-0.6-0.4-0.6-1S5.9,0.5,6.2,0.5z"/>
</g>
</svg>
