<?xml version="1.0" encoding="utf-8"?>
<!-- Generator: Adobe Illustrator 21.1.0, SVG Export Plug-In . SVG Version: 6.00 Build 0)  -->
<svg version="1.1" id="Layer_1" xmlns="http://www.w3.org/2000/svg" xmlns:xlink="http://www.w3.org/1999/xlink" x="0px" y="0px"
	 viewBox="0 0 1024 1024" style="enable-background:new 0 0 1024 1024;" xml:space="preserve">
<style type="text/css">
	.st0{fill:#DBDBDB;}
	.st1{fill:#ADADAD;}
	.st2{fill:#ACACAC;}
</style>
<rect x="-1" y="-1" class="st0" width="1024" height="1026"/>
<g id="heart">
	<path class="st1" d="M694.4,318.5c-57.2-56.6-148.6-57.8-207.8-4.5c-59.2-53.3-150.6-52.1-207.8,4.5c-58.9,58.3-58.9,152.9,0,211.3
		C295.7,546.5,453,702.2,453,702.2c18.6,18.5,48.8,18.5,67.4,0c0,0,172.2-170.5,174.1-172.3C753.4,471.4,753.4,376.9,694.4,318.5z
		 M672,507.6L497.9,679.9c-6.2,6.2-16.3,6.2-22.4,0L301.3,507.6c-46.5-46-46.5-120.8,0-166.8c44.8-44.3,116.8-45.9,164-3.5
		l21.4,19.2l21.3-19.2c47.2-42.4,119.2-40.9,164,3.5C718.4,386.7,718.4,461.6,672,507.6z"/>
</g>
<path class="st2" d="M656.7,494.2c-0.4,24.8-9,46.3-26.6,63.8c-36.4,36.2-73,72.3-109.5,108.4c-8.1,8-16.2,16.1-24.3,24.1
	c-5.7,5.6-12.8,5.5-18.5-0.1c-44.3-43.9-88.7-87.7-132.9-131.6c-20-19.9-29.1-44.1-27-72.3c2.8-38.7,31.9-72.3,69.9-80.6
	c31.5-6.9,59.4,0.6,83.6,21.8c4.7,4.2,9.5,8.3,14,12.7c1.5,1.4,2.3,1.2,3.7-0.1c6.5-5.8,12.7-12,19.6-17.4
	c53.2-41,129.9-14.4,145.6,50.3C655.9,480.2,656.7,487.1,656.7,494.2z"/>
</svg>
